<svg width="71" height="70" viewBox="0 0 71 70" fill="none" xmlns="http://www.w3.org/2000/svg">
<path d="M61.9683 28.623C61.4441 28.0858 61.0508 27.435 60.819 26.7211C60.5871 26.0073 60.5229 25.2496 60.6313 24.507L60.8273 23.121C61.4152 18.97 58.6433 15.148 54.5133 14.427L53.1343 14.182C52.3952 14.0548 51.6953 13.7595 51.0884 13.3189C50.4816 12.8784 49.9841 12.3043 49.6343 11.641L48.9762 10.409C47.0092 6.70597 42.5222 5.24297 38.7562 7.09097L37.4963 7.69997C36.8234 8.03156 36.0834 8.20402 35.3333 8.20402C34.5831 8.20402 33.8431 8.03156 33.1702 7.69997L31.9172 7.08397C30.1175 6.19489 28.0416 6.04421 26.1323 6.66407C24.223 7.28393 22.6315 8.62526 21.6973 10.402L21.0393 11.634C20.6897 12.2975 20.1923 12.8718 19.5854 13.3124C18.9785 13.753 18.2784 14.0481 17.5393 14.175L16.1603 14.42C12.0303 15.141 9.25825 18.963 9.84625 23.114L10.0423 24.5C10.2593 26.019 9.76925 27.517 8.70525 28.616L7.73225 29.617C6.32876 31.0531 5.54297 32.9814 5.54297 34.9895C5.54297 36.9975 6.32876 38.9258 7.73225 40.362L8.70525 41.37C9.22939 41.9072 9.62267 42.558 9.85454 43.2718C10.0864 43.9856 10.1506 44.7433 10.0423 45.486L9.84625 46.872C9.55587 48.8585 10.0537 50.8798 11.2335 52.5043C12.4132 54.1287 14.1813 55.2275 16.1603 55.566L17.5393 55.811C19.0443 56.077 20.3253 57.001 21.0393 58.352L21.6973 59.584C23.0903 62.202 25.7362 63.7 28.5082 63.7C29.6493 63.7 30.8182 63.441 31.9172 62.902L33.1702 62.3C33.8431 61.9684 34.5831 61.7959 35.3333 61.7959C36.0834 61.7959 36.8234 61.9684 37.4963 62.3L38.7492 62.916C42.5153 64.757 47.0023 63.301 48.9693 59.598L49.6272 58.366C49.9768 57.7024 50.4742 57.1282 51.0811 56.6876C51.688 56.247 52.3881 55.9518 53.1273 55.825L54.5063 55.58C58.6363 54.859 61.4083 51.037 60.8203 46.886L60.6242 45.5C60.4072 43.981 60.8973 42.483 61.9613 41.384L62.9343 40.383C65.8533 37.373 65.8533 32.648 62.9343 29.638L61.9683 28.623ZM60.9253 38.43L59.9523 39.431C59.1317 40.2743 58.5157 41.2948 58.1516 42.4137C57.7875 43.5327 57.6851 44.7202 57.8522 45.885L58.0482 47.271C58.2336 48.5376 57.9164 49.8264 57.1643 50.8623C56.4123 51.8982 55.285 52.599 54.0233 52.815L52.6443 53.06C50.2783 53.473 48.2762 54.929 47.1562 57.05L46.4982 58.282C45.9031 59.4155 44.8886 60.2717 43.6711 60.6679C42.4537 61.0641 41.1296 60.9691 39.9813 60.403L38.7282 59.787C37.6725 59.2655 36.5108 58.9942 35.3333 58.9942C34.1557 58.9942 32.994 59.2655 31.9383 59.787L30.6852 60.403C29.5372 60.9707 28.2125 61.0667 26.9946 60.6703C25.7767 60.2739 24.7622 59.4167 24.1683 58.282L23.5103 57.05C22.9621 56.0091 22.1822 55.108 21.2307 54.4162C20.2791 53.7244 19.1815 53.2604 18.0223 53.06L16.6433 52.815C15.3815 52.599 14.2542 51.8982 13.5022 50.8623C12.7501 49.8264 12.4329 48.5376 12.6183 47.271L12.8143 45.885C13.1503 43.505 12.3873 41.153 10.7143 39.431L9.74125 38.423C8.84604 37.5071 8.34482 36.2772 8.34482 34.9965C8.34482 33.7157 8.84604 32.4859 9.74125 31.57L10.7143 30.569C12.3803 28.847 13.1503 26.488 12.8143 24.115L12.6183 22.729C12.4329 21.4624 12.7501 20.1735 13.5022 19.1376C14.2542 18.1017 15.3815 17.401 16.6433 17.185L18.0223 16.94C20.3883 16.527 22.3903 15.071 23.5103 12.95L24.1683 11.718C24.5836 10.9263 25.2075 10.2633 25.9724 9.80064C26.7374 9.33797 27.6143 9.09325 28.5082 9.09297C29.2362 9.09297 29.9783 9.25397 30.6852 9.59697L31.9383 10.213C34.0942 11.27 36.5722 11.27 38.7282 10.213L39.9813 9.59697C41.1293 9.02922 42.454 8.93327 43.6719 9.32964C44.8898 9.72602 45.9043 10.5833 46.4982 11.718L47.1562 12.95C48.2832 15.071 50.2853 16.527 52.6443 16.94L54.0233 17.185C56.6553 17.647 58.4263 20.083 58.0482 22.729L57.8522 24.115C57.5163 26.495 58.2793 28.847 59.9523 30.569L60.9253 31.577C61.8205 32.4929 62.3217 33.7227 62.3217 35.0035C62.3217 36.2842 61.8205 37.5141 60.9253 38.43Z" fill="white"/>
<path d="M46.4694 23.863C45.9234 23.317 45.0344 23.317 44.4884 23.863L24.1954 44.156C23.9998 44.3519 23.8665 44.6013 23.8123 44.8729C23.7582 45.1444 23.7856 45.4259 23.8912 45.6819C23.9967 45.9378 24.1756 46.1569 24.4054 46.3113C24.6352 46.4658 24.9055 46.5489 25.1824 46.55C25.5394 46.55 25.8964 46.41 26.1694 46.137L46.4624 25.844C47.0154 25.298 47.0154 24.409 46.4694 23.863ZM29.6414 31.297C31.1674 31.297 32.6864 30.716 33.8484 29.554C36.1654 27.237 36.1654 23.457 33.8484 21.14C31.5314 18.823 27.7514 18.823 25.4344 21.14C24.3074 22.26 23.6914 23.758 23.6914 25.347C23.6914 26.936 24.3074 28.434 25.4344 29.554C25.986 30.1076 26.6417 30.5467 27.3638 30.8458C28.0858 31.1449 28.8599 31.2983 29.6414 31.297ZM27.4154 23.121C28.0314 22.505 28.8364 22.197 29.6414 22.197C30.4464 22.197 31.2514 22.505 31.8674 23.121C32.4558 23.7124 32.786 24.5127 32.786 25.347C32.786 26.1812 32.4558 26.9815 31.8674 27.573C30.6354 28.798 28.6404 28.798 27.4154 27.573C26.8204 26.978 26.4914 26.187 26.4914 25.347C26.4914 24.507 26.8204 23.716 27.4154 23.121ZM36.8164 40.446C34.4994 42.763 34.4994 46.543 36.8164 48.86C37.9784 50.022 39.4974 50.603 41.0234 50.603C42.5494 50.603 44.0684 50.022 45.2304 48.86C46.3574 47.733 46.9734 46.242 46.9734 44.653C46.9734 43.064 46.3574 41.566 45.2304 40.446C42.9134 38.122 39.1404 38.122 36.8164 40.446ZM43.2494 46.879C42.0244 48.104 40.0224 48.104 38.7974 46.879C37.5724 45.654 37.5724 43.652 38.7974 42.427C39.4134 41.811 40.2184 41.503 41.0234 41.503C41.8284 41.503 42.6334 41.811 43.2494 42.427C43.8444 43.022 44.1734 43.813 44.1734 44.653C44.1734 45.493 43.8444 46.284 43.2494 46.879Z" fill="white"/>
</svg>
