<svg width="24" height="24" viewBox="0 0 24 24" fill="none" xmlns="http://www.w3.org/2000/svg">
<path d="M12.0204 3.29784C13.1717 2.14663 14.7331 1.49993 16.3613 1.5C17.9894 1.50007 19.5508 2.14691 20.702 3.29821C21.8532 4.44952 22.4999 6.01098 22.4998 7.6391C22.4998 9.26722 21.8529 10.8286 20.7016 11.9798L11.2944 21.3863C10.9434 21.7464 10.5244 22.0331 10.0617 22.23C9.59899 22.4268 9.10182 22.5298 8.59901 22.533C8.0962 22.5362 7.59776 22.4395 7.13261 22.2486C6.66746 22.0576 6.24485 21.7762 5.8893 21.4207C5.53376 21.0651 5.25235 20.6425 5.0614 20.1773C4.87046 19.7122 4.77378 19.2138 4.77697 18.7109C4.78016 18.2081 4.88317 17.711 5.08 17.2483C5.27684 16.7856 5.56359 16.3666 5.92362 16.0156L14.2786 7.65909C14.4545 7.48315 14.693 7.38427 14.9417 7.3842C15.1905 7.38413 15.4291 7.48287 15.605 7.65871C15.7809 7.83455 15.8798 8.07308 15.8799 8.32182C15.88 8.57056 15.7812 8.80915 15.6054 8.98509L7.24812 17.3401C7.06951 17.5187 6.92782 17.7307 6.83116 17.9641C6.73449 18.1975 6.68474 18.4476 6.68474 18.7002C6.68474 19.2104 6.8874 19.6996 7.24812 20.0603C7.60885 20.4211 8.0981 20.6237 8.60825 20.6237C9.11839 20.6237 9.60765 20.4211 9.96837 20.0603L19.3756 10.6531C19.7716 10.2572 20.0856 9.78711 20.2999 9.26979C20.5142 8.75248 20.6245 8.19802 20.6245 7.63809C20.6245 7.07815 20.5142 6.52369 20.2999 6.00638C20.0856 5.48906 19.7716 5.01902 19.3756 4.62309C18.9797 4.22715 18.5096 3.91308 17.9923 3.6988C17.475 3.48452 16.9206 3.37423 16.3606 3.37423C15.8007 3.37423 15.2462 3.48452 14.7289 3.6988C14.2116 3.91308 13.7416 4.22715 13.3456 4.62309L3.10062 14.8703C2.92479 15.0462 2.6863 15.145 2.43762 15.145C2.18895 15.145 1.95046 15.0462 1.77462 14.8703C1.59879 14.6945 1.5 14.456 1.5 14.2073C1.5 13.9587 1.59879 13.7202 1.77462 13.5443L12.0204 3.29784Z" fill="#004290"/>
</svg>
