<svg width="24" height="24" viewBox="0 0 24 24" fill="none" xmlns="http://www.w3.org/2000/svg">
<path d="M3 12H12V13.5H3V12ZM1.5 8.25H9V9.75H1.5V8.25Z" fill="#004290"/>
<path d="M22.4427 12.4545L20.1927 7.2045C20.1349 7.06962 20.0387 6.95466 19.9162 6.87387C19.7937 6.79309 19.6502 6.75002 19.5034 6.75H17.2534V5.25C17.2534 5.05109 17.1744 4.86032 17.0338 4.71967C16.8931 4.57902 16.7023 4.5 16.5034 4.5H4.50342V6H15.7534V15.417C15.4119 15.6157 15.113 15.8799 14.8738 16.1945C14.6347 16.509 14.46 16.8678 14.3599 17.25H9.64692C9.46438 16.543 9.03025 15.9269 8.42592 15.517C7.82158 15.1072 7.08854 14.9319 6.36417 15.0239C5.63981 15.1159 4.97387 15.4689 4.49118 16.0168C4.00849 16.5647 3.74219 17.2698 3.74219 18C3.74219 18.7302 4.00849 19.4353 4.49118 19.9832C4.97387 20.5311 5.63981 20.8841 6.36417 20.9761C7.08854 21.0681 7.82158 20.8928 8.42592 20.483C9.03025 20.0731 9.46438 19.457 9.64692 18.75H14.3599C14.5231 19.3937 14.8962 19.9646 15.4203 20.3724C15.9443 20.7802 16.5894 21.0016 17.2534 21.0016C17.9175 21.0016 18.5625 20.7802 19.0866 20.3724C19.6107 19.9646 19.9838 19.3937 20.1469 18.75H21.7534C21.9523 18.75 22.1431 18.671 22.2838 18.5303C22.4244 18.3897 22.5034 18.1989 22.5034 18V12.75C22.5034 12.6484 22.4827 12.5479 22.4427 12.4545ZM6.75342 19.5C6.45675 19.5 6.16674 19.412 5.92007 19.2472C5.6734 19.0824 5.48114 18.8481 5.36761 18.574C5.25407 18.2999 5.22437 17.9983 5.28225 17.7074C5.34012 17.4164 5.48299 17.1491 5.69276 16.9393C5.90254 16.7296 6.16982 16.5867 6.46079 16.5288C6.75176 16.4709 7.05336 16.5006 7.32745 16.6142C7.60154 16.7277 7.83581 16.92 8.00063 17.1666C8.16545 17.4133 8.25342 17.7033 8.25342 18C8.25342 18.3978 8.09539 18.7794 7.81409 19.0607C7.53278 19.342 7.15125 19.5 6.75342 19.5ZM17.2534 8.25H19.0084L20.6164 12H17.2534V8.25ZM17.2534 19.5C16.9568 19.5 16.6667 19.412 16.4201 19.2472C16.1734 19.0824 15.9811 18.8481 15.8676 18.574C15.7541 18.2999 15.7244 17.9983 15.7822 17.7074C15.8401 17.4164 15.983 17.1491 16.1928 16.9393C16.4025 16.7296 16.6698 16.5867 16.9608 16.5288C17.2518 16.4709 17.5534 16.5006 17.8274 16.6142C18.1015 16.7277 18.3358 16.92 18.5006 17.1666C18.6655 17.4133 18.7534 17.7033 18.7534 18C18.7534 18.3978 18.5954 18.7794 18.3141 19.0607C18.0328 19.342 17.6512 19.5 17.2534 19.5ZM21.0034 17.25H20.1469C19.9817 16.6076 19.608 16.0381 19.0844 15.6309C18.5607 15.2238 17.9168 15.0018 17.2534 15V13.5H21.0034V17.25Z" fill="#004290"/>
</svg>
