<svg width="32" height="32" viewBox="0 0 32 32" fill="none" xmlns="http://www.w3.org/2000/svg">
<rect width="32" height="32" rx="9" fill="white"/>
<path d="M15.5 4C11.3536 4 8 7.5995 8 12.05C8 13.8963 8.70136 16.0114 9.67512 18.0583C12.0745 23.102 18.9255 23.102 21.3249 18.0583C22.2986 16.0114 23 13.8963 23 12.05C23 7.5995 19.6464 4 15.5 4ZM15.5 14.925C14.0214 14.925 12.8214 13.637 12.8214 12.05C12.8214 10.463 14.0214 9.175 15.5 9.175C16.9786 9.175 18.1786 10.463 18.1786 12.05C18.1786 13.637 16.9786 14.925 15.5 14.925Z" fill="#353535"/>
</svg>
