<svg width="42" height="42" viewBox="0 0 42 42" fill="none" xmlns="http://www.w3.org/2000/svg">
<rect width="42" height="42" rx="9" fill="white"/>
<path d="M37.0595 20.8398C37.0602 20.8398 37.0607 20.8392 37.0607 20.8386C37.06 20.6801 36.9311 20.5491 36.7724 20.5417C31.0657 20.3255 27.5926 19.5976 25.1628 17.1678C22.728 14.7331 22.0025 11.2573 21.7864 5.53818C21.7814 5.37918 21.6497 5.25 21.4882 5.25H20.8224C20.6634 5.25 20.5317 5.37918 20.5243 5.53818C20.3081 11.2549 19.5827 14.7331 17.1479 17.1678C14.7157 19.6001 11.2449 20.3255 5.53818 20.5417C5.37918 20.5466 5.25 20.6783 5.25 20.8398V21.5056C5.25 21.6646 5.37918 21.7963 5.53818 21.8038C11.2449 22.0199 14.7181 22.7478 17.1479 25.1776C19.5777 27.6074 20.3031 31.0733 20.5218 36.7699C20.5267 36.9289 20.6584 37.0582 20.8199 37.0582H21.4882C21.6472 37.0582 21.7789 36.9289 21.7864 36.7699C22.005 31.0733 22.7304 27.6074 25.1603 25.1776C27.5926 22.7454 31.0632 22.0199 36.77 21.8038C36.929 21.7988 37.0582 21.6671 37.0582 21.5056V20.841C37.0582 20.8404 37.0588 20.8398 37.0595 20.8398Z" fill="#353535"/>
</svg>
