<svg width="28" height="29" viewBox="0 0 28 29" fill="none" xmlns="http://www.w3.org/2000/svg">
<path d="M8.4 22.6227C6.86 22.6227 5.614 23.8827 5.614 25.4227C5.614 26.9627 6.86 28.2227 8.4 28.2227C9.94 28.2227 11.2 26.9627 11.2 25.4227C11.2 23.8827 9.94 22.6227 8.4 22.6227ZM0 0.222656V3.02266H2.8L7.84 13.6487L5.95 17.0787C5.726 17.4707 5.6 17.9327 5.6 18.4227C5.6 19.9627 6.86 21.2227 8.4 21.2227H25.2V18.4227H8.988C8.792 18.4227 8.638 18.2687 8.638 18.0727L8.68 17.9047L9.94 15.6227H20.37C21.42 15.6227 22.344 15.0487 22.82 14.1807L27.832 5.09466C27.944 4.89866 28 4.66066 28 4.42266C28 3.65266 27.37 3.02266 26.6 3.02266H5.894L4.578 0.222656H0ZM22.4 22.6227C20.86 22.6227 19.614 23.8827 19.614 25.4227C19.614 26.9627 20.86 28.2227 22.4 28.2227C23.94 28.2227 25.2 26.9627 25.2 25.4227C25.2 23.8827 23.94 22.6227 22.4 22.6227Z" fill="#004290"/>
</svg>
