<svg width="55" height="54" viewBox="0 0 55 54" fill="none" xmlns="http://www.w3.org/2000/svg">
<rect x="0.924805" width="54" height="54" rx="10" fill="white"/>
<path d="M42.8115 29.7812H38.4365V25.4062H36.249V35.25H18.749V17.75H28.5928V15.5625H24.2178V11.1875H22.0303V15.5625H18.749C18.1689 15.5625 17.6125 15.793 17.2022 16.2032C16.792 16.6134 16.5615 17.1698 16.5615 17.75V21.0312H12.1865V23.2188H16.5615V29.7812H12.1865V31.9688H16.5615V35.25C16.5615 35.8302 16.792 36.3866 17.2022 36.7968C17.6125 37.207 18.1689 37.4375 18.749 37.4375H22.0303V41.8125H24.2178V37.4375H30.7803V41.8125H32.9678V37.4375H36.249C36.8289 37.4366 37.3848 37.2059 37.7949 36.7958C38.2049 36.3858 38.4357 35.8299 38.4365 35.25V31.9688H42.8115V29.7812Z" fill="#004290"/>
<path d="M38.4365 11.1875C37.2766 11.1887 36.1644 11.65 35.3442 12.4702C34.524 13.2904 34.0627 14.4025 34.0615 15.5625C34.0658 16.3413 34.2801 17.1046 34.6817 17.7719L31.4212 21.0312H22.0303V31.9688H32.9678V22.5778L36.2271 19.3184C36.8946 19.7197 37.6578 19.9335 38.4365 19.9375C39.5968 19.9375 40.7096 19.4766 41.5301 18.6561C42.3506 17.8356 42.8115 16.7228 42.8115 15.5625C42.8115 14.4022 42.3506 13.2894 41.5301 12.4689C40.7096 11.6484 39.5968 11.1875 38.4365 11.1875ZM30.7803 29.7812H24.2178V23.2188H30.7803V29.7812ZM38.4365 17.75C38.0039 17.75 37.5809 17.6217 37.2212 17.3813C36.8615 17.141 36.5811 16.7993 36.4155 16.3996C36.25 15.9999 36.2067 15.5601 36.2911 15.1357C36.3755 14.7114 36.5838 14.3216 36.8897 14.0157C37.1957 13.7098 37.5854 13.5014 38.0098 13.417C38.4341 13.3326 38.8739 13.3759 39.2736 13.5415C39.6734 13.7071 40.015 13.9875 40.2554 14.3472C40.4957 14.7069 40.624 15.1299 40.624 15.5625C40.624 16.1427 40.3936 16.6991 39.9833 17.1093C39.5731 17.5195 39.0167 17.75 38.4365 17.75Z" fill="#004290"/>
</svg>
