<svg width="30" height="30" viewBox="0 0 30 30" fill="none" xmlns="http://www.w3.org/2000/svg">
<path d="M24.0378 19.075L20.8628 18.7125C20.4895 18.6686 20.1111 18.7099 19.756 18.8333C19.4009 18.9567 19.0785 19.159 18.8128 19.425L16.5128 21.725C12.9645 19.9199 10.0804 17.0357 8.27529 13.4875L10.5878 11.175C11.1253 10.6375 11.3878 9.88745 11.3003 9.12495L10.9378 5.97495C10.8672 5.36507 10.5746 4.80248 10.1159 4.39445C9.65712 3.98641 9.06426 3.76145 8.4503 3.76245H6.2878C4.8753 3.76245 3.70029 4.93745 3.78779 6.34995C4.45029 17.025 12.9878 25.55 23.6503 26.2125C25.0628 26.3 26.2378 25.125 26.2378 23.7125V21.55C26.2503 20.2875 25.3003 19.225 24.0378 19.075Z" fill="white"/>
</svg>
