<svg width="24" height="20" viewBox="0 0 24 20" fill="none" xmlns="http://www.w3.org/2000/svg">
<path d="M8.08984 2.59851H22.8926M8.08984 9.99617H17.3415M8.08984 17.4012H22.8926" stroke="white" stroke-width="2" stroke-linecap="round" stroke-linejoin="round"/>
<path fill-rule="evenodd" clip-rule="evenodd" d="M2.53794 4.44958C3.46311 4.44958 4.38828 3.52441 4.38828 2.59924C4.38828 1.67407 3.46311 0.748901 2.53794 0.748901C1.61277 0.748901 0.689453 1.67407 0.689453 2.59924C0.689453 3.52441 1.61277 4.44958 2.53794 4.44958ZM2.53794 11.8509C3.46311 11.8509 4.38828 10.9258 4.38828 10.0006C4.38828 9.07543 3.46311 8.15026 2.53794 8.15026C1.61277 8.15026 0.689453 9.07543 0.689453 10.0006C0.689453 10.9258 1.61277 11.8509 2.53794 11.8509ZM2.53794 19.2523C3.46311 19.2523 4.38828 18.3271 4.38828 17.402C4.38828 16.4768 3.46311 15.5516 2.53794 15.5516C1.61277 15.5516 0.689453 16.4768 0.689453 17.402C0.689453 18.3271 1.61277 19.2523 2.53794 19.2523Z" fill="white"/>
</svg>
