<svg width="32" height="32" viewBox="0 0 32 32" fill="none" xmlns="http://www.w3.org/2000/svg">
<rect width="32" height="32" rx="9" fill="white"/>
<path d="M24 8H8C6.9 8 6.01 8.84375 6.01 9.875L6 21.125C6 22.1562 6.9 23 8 23H24C25.1 23 26 22.1562 26 21.125V9.875C26 8.84375 25.1 8 24 8ZM24 11.2864C24 11.5736 23.8478 11.8392 23.6 11.9843L20.0444 14.0678C17.5467 15.5312 14.4533 15.5312 11.9556 14.0678L8.39995 11.9843C8.15222 11.8392 8 11.5736 8 11.2864C8 10.6615 8.67857 10.2726 9.2178 10.5886L13.989 13.3842C15.2309 14.1119 16.7691 14.1119 18.011 13.3842L22.7822 10.5886C23.3214 10.2726 24 10.6615 24 11.2864Z" fill="#353535"/>
</svg>
