<svg width="32" height="32" viewBox="0 0 32 32" fill="none" xmlns="http://www.w3.org/2000/svg">
<rect width="32" height="32" rx="9" fill="white"/>
<path d="M12.1433 11.9006C10.7585 13.2854 10.3744 15.4494 11.604 16.9738C12.3222 17.8644 13.1353 18.6759 14.0272 19.394C15.5519 20.6215 17.7154 20.2407 19.0994 18.8567C19.3844 18.5717 19.8067 18.4767 20.1761 18.6033C21.3583 18.9939 22.6356 19.205 23.9444 19.205C24.525 19.205 25 19.68 25 20.2606V23.9444C25 24.525 24.525 25 23.9444 25C14.0328 25 6 16.9672 6 7.05556C6 6.475 6.475 6 7.05556 6H10.75C11.3306 6 11.8056 6.475 11.8056 7.05556C11.8056 8.375 12.0167 9.64167 12.4072 10.8239C12.5233 11.1933 12.4389 11.605 12.1433 11.9006Z" fill="#353535"/>
</svg>
