<svg width="28" height="28" viewBox="0 0 28 28" fill="none" xmlns="http://www.w3.org/2000/svg">
<path d="M13.9974 0.664062C15.7655 0.664063 17.4612 1.36644 18.7114 2.61668C19.9617 3.86693 20.6641 5.56262 20.6641 7.33073C20.6641 9.09884 19.9617 10.7945 18.7114 12.0448C17.4612 13.295 15.7655 13.9974 13.9974 13.9974C12.2293 13.9974 10.5336 13.295 9.28335 12.0448C8.03311 10.7945 7.33073 9.09884 7.33073 7.33073C7.33073 5.56262 8.03311 3.86693 9.28335 2.61668C10.5336 1.36644 12.2293 0.664063 13.9974 0.664062ZM13.9974 17.3307C21.3641 17.3307 27.3307 20.3141 27.3307 23.9974V27.3307H0.664062V23.9974C0.664062 20.3141 6.63073 17.3307 13.9974 17.3307Z" fill="#004290"/>
</svg>
