<svg width="70" height="66" viewBox="0 0 70 66" fill="none" xmlns="http://www.w3.org/2000/svg">
<g clip-path="url(#clip0_2904_11379)">
<path d="M22.1852 50.0583C24.5549 48.2516 26.087 45.4084 26.087 42.2145C26.087 36.768 21.6358 32.3371 16.1648 32.3371C10.6937 32.3371 6.2424 36.768 6.2424 42.2144C6.2424 45.4118 7.77765 48.2576 10.1515 50.064C4.44782 50.7057 0 55.5357 0 61.3826V63.0177C0 63.7327 0.0677342 64.4485 0.201392 65.1458C0.247448 65.3861 0.376238 65.6029 0.565577 65.7588C0.754915 65.9147 0.992949 66 1.23867 66H31.1439C31.3897 66 31.6277 65.9147 31.817 65.7588C32.0064 65.6029 32.1352 65.3861 32.1812 65.1458C32.3153 64.4443 32.3827 63.7318 32.3826 63.0177V61.3826C32.3826 55.52 27.911 50.6791 22.1852 50.0583ZM8.35437 42.2144C8.35437 37.9272 11.858 34.4394 16.1646 34.4394C20.4712 34.4394 23.9748 37.9273 23.9748 42.2144C23.9748 46.5014 20.4712 49.9892 16.1646 49.9892C11.858 49.9892 8.35437 46.5016 8.35437 42.2144ZM30.2706 63.0177C30.2706 63.3116 30.2566 63.6055 30.2289 63.8974H2.15376C2.12587 63.605 2.11193 63.3114 2.11198 63.0177V61.3826C2.11198 56.2597 6.29852 52.0918 11.4446 52.0918H20.9378C26.084 52.0918 30.2705 56.2597 30.2705 61.3826L30.2706 63.0177ZM69.9966 64.8647C69.9542 59.0398 65.498 54.2425 59.7994 53.6247C62.169 51.8179 63.7011 48.9747 63.7011 45.7806C63.7011 40.3342 59.25 35.9033 53.7789 35.9033C48.3078 35.9033 43.8567 40.3343 43.8567 45.7806C43.8567 48.978 45.3919 51.8239 47.7658 53.6304C42.0621 54.2721 37.6143 59.102 37.6143 64.9488C37.6143 65.2276 37.7255 65.495 37.9236 65.6921C38.1216 65.8893 38.3902 66 38.6703 66H68.9409C69.087 66.0004 69.2315 65.9707 69.3655 65.9127C69.4994 65.8546 69.6197 65.7696 69.719 65.6629C69.8182 65.5562 69.8941 65.4302 69.9419 65.2928C69.9897 65.1554 70.0083 65.0096 69.9966 64.8647ZM45.9688 45.7804C45.9688 41.4932 49.4724 38.0056 53.7791 38.0056C58.0857 38.0056 61.5893 41.4934 61.5893 45.7804C61.5893 50.0675 58.0857 53.5554 53.7791 53.5554C49.4724 53.5554 45.9688 50.0676 45.9688 45.7804ZM39.7857 63.8974C40.312 59.2678 44.2702 55.658 49.0591 55.658H58.5523C63.3412 55.658 67.2993 59.2678 67.8257 63.8974H39.7857ZM15.9254 7.69693H36.426C36.7061 7.69693 36.9747 7.58618 37.1727 7.38904C37.3707 7.19189 37.482 6.92451 37.482 6.64571C37.482 6.36691 37.3707 6.09952 37.1727 5.90238C36.9747 5.70524 36.7061 5.59448 36.426 5.59448H15.9254C15.6453 5.59448 15.3767 5.70524 15.1787 5.90238C14.9806 6.09952 14.8694 6.36691 14.8694 6.64571C14.8694 6.92451 14.9806 7.19189 15.1787 7.38904C15.3767 7.58618 15.6453 7.69693 15.9254 7.69693ZM15.9254 11.7105H36.426C36.7061 11.7105 36.9747 11.5998 37.1727 11.4026C37.3707 11.2055 37.482 10.9381 37.482 10.6593C37.482 10.3805 37.3707 10.1131 37.1727 9.91596C36.9747 9.71882 36.7061 9.60806 36.426 9.60806H15.9254C15.6453 9.60806 15.3767 9.71882 15.1787 9.91596C14.9806 10.1131 14.8694 10.3805 14.8694 10.6593C14.8694 10.9381 14.9806 11.2055 15.1787 11.4026C15.3767 11.5998 15.6453 11.7105 15.9254 11.7105ZM15.9254 15.7244H36.426C36.7061 15.7244 36.9747 15.6136 37.1727 15.4165C37.3707 15.2194 37.482 14.952 37.482 14.6732C37.482 14.3944 37.3707 14.127 37.1727 13.9298C36.9747 13.7327 36.7061 13.6219 36.426 13.6219H15.9254C15.6453 13.6219 15.3767 13.7327 15.1787 13.9298C14.9806 14.127 14.8694 14.3944 14.8694 14.6732C14.8694 14.952 14.9806 15.2194 15.1787 15.4165C15.3767 15.6136 15.6453 15.7244 15.9254 15.7244Z" fill="white"/>
<path d="M15.2765 21.6907L15.2793 27.5591C15.2793 28.1116 15.7081 28.5749 16.2617 28.613C16.2867 28.6148 16.3116 28.6157 16.3362 28.6157C16.8585 28.6157 17.3068 28.2367 17.3797 27.7142C17.4029 27.5696 18.0008 24.1882 23.1793 21.6908H25.1225V23.2207C25.1225 25.6708 27.1249 27.6644 29.5865 27.6644H43.4875C48.666 30.1619 49.2639 33.5431 49.2856 33.6775C49.3223 33.9414 49.4582 34.1815 49.6659 34.3495C49.8736 34.5174 50.1376 34.6006 50.4045 34.5822C50.6715 34.5638 50.9214 34.4453 51.1039 34.2504C51.2864 34.0556 51.3878 33.7991 51.3876 33.5327V27.6642H51.3905C53.8519 27.6642 55.8545 25.6708 55.8545 23.2205V10.4172C55.8545 7.96694 53.852 5.97336 51.3905 5.97336H41.5445V4.44383C41.5445 1.99357 39.542 0 37.0805 0H15.2765C12.8151 0 10.8125 1.99342 10.8125 4.44383V17.247C10.8125 19.6973 12.8151 21.6907 15.2765 21.6907ZM50.7388 19.5953H40.8676C41.2313 19.0171 41.4555 18.3628 41.5226 17.6839H50.7388C51.0189 17.6839 51.2875 17.5731 51.4855 17.376C51.6835 17.1788 51.7948 16.9114 51.7948 16.6326C51.7948 16.3538 51.6835 16.0865 51.4855 15.8893C51.2875 15.6922 51.0189 15.5814 50.7388 15.5814H41.5443V13.6701H50.7388C51.0189 13.6701 51.2875 13.5594 51.4855 13.3622C51.6835 13.1651 51.7948 12.8977 51.7948 12.6189C51.7948 12.3401 51.6835 12.0727 51.4855 11.8756C51.2875 11.6784 51.0189 11.5677 50.7388 11.5677H41.5443V8.07581H51.3903C52.6872 8.07581 53.7423 9.12614 53.7423 10.4172V23.2205C53.7423 24.5116 52.6872 25.5618 51.3903 25.5618H50.3315C50.0514 25.5618 49.7828 25.6725 49.5848 25.8696C49.3868 26.0668 49.2755 26.3342 49.2755 26.613V29.3637C48.2023 28.1231 46.59 26.7882 44.1743 25.661C44.0341 25.5956 43.881 25.5617 43.7261 25.5618H29.5865C28.2896 25.5618 27.2345 24.5116 27.2345 23.2205V21.6907L50.7388 21.6977C51.0189 21.6977 51.2875 21.587 51.4855 21.3898C51.6835 21.1927 51.7948 20.9253 51.7948 20.6465C51.7948 20.3677 51.6835 20.1003 51.4855 19.9032C51.2875 19.706 51.0189 19.5953 50.7388 19.5953ZM12.9245 4.44383C12.9245 3.15278 13.9796 2.10245 15.2765 2.10245H37.0805C38.3774 2.10245 39.4325 3.15278 39.4325 4.44383V17.247C39.4325 18.5381 38.3774 19.5884 37.0805 19.5884H22.9408C22.7859 19.5884 22.6329 19.6223 22.4926 19.6877C20.0768 20.8149 18.4646 22.1499 17.3915 23.3904V20.6396C17.3915 20.3608 17.2802 20.0934 17.0822 19.8963C16.8841 19.6991 16.6155 19.5884 16.3355 19.5884H15.2766C13.9797 19.5884 12.9246 18.5381 12.9246 17.247L12.9245 4.44383Z" fill="white"/>
</g>
<defs>
<clipPath id="clip0_2904_11379">
<rect width="70" height="66" fill="white"/>
</clipPath>
</defs>
</svg>
