<svg width="42" height="42" viewBox="0 0 42 42" fill="none" xmlns="http://www.w3.org/2000/svg">
<rect width="42" height="42" rx="11" fill="#353535"/>
<path fill-rule="evenodd" clip-rule="evenodd" d="M41.6309 9.09929C41.2618 6.3545 40.5238 4.42851 39.0476 2.95236C37.5715 1.47622 35.6455 0.738128 32.9007 0.369075C32.6434 0.334474 32.3789 0.303117 32.1069 0.2747C29.4774 0 26.1468 0 21.84 0H20.16C15.5354 0 12.0364 0 9.32232 0.340118C6.4583 0.698997 4.46817 1.43656 2.95236 2.95236C1.47622 4.42851 0.738129 6.3545 0.369075 9.09929C0.334474 9.35662 0.303117 9.62114 0.2747 9.89313C0 12.5226 0 15.8532 0 20.16V21.84C0 26.4646 0 29.9636 0.340118 32.6777C0.698998 35.5417 1.43656 37.5318 2.95236 39.0476C4.22129 40.3166 5.82263 41.0401 7.99079 41.4526C10.8669 42.0001 14.7406 42.0001 20.16 42.0001H21.84C26.5923 42.0001 30.156 42.0001 32.9007 41.6309C35.6455 41.2619 37.5715 40.5238 39.0476 39.0476C40.3166 37.7787 41.0401 36.1774 41.4527 34.0092C42 31.1331 42 27.2594 42 21.84V20.16C42 15.4077 42 11.844 41.6309 9.09929ZM17.8626 13.2552C17.346 13.9608 17.346 15.1872 17.346 17.64V24.36C17.346 26.8086 17.346 28.035 17.8626 28.7448C18.312 29.3622 19.0008 29.7612 19.761 29.841C20.6311 29.933 21.6844 29.3251 23.7925 28.1087L29.692 24.701C31.7752 23.4965 32.822 22.8912 33.1758 22.0962C33.4866 21.399 33.4866 20.601 33.1758 19.9038C32.8188 19.1058 31.7604 18.4926 29.6352 17.2662L23.8182 13.9062C21.693 12.6798 20.6304 12.0666 19.761 12.159C19.0008 12.2388 18.312 12.6378 17.8626 13.2552ZM11.3965 40.1662C10.6507 40.1169 9.96227 40.0519 9.32337 39.9659C6.76473 39.6219 5.25231 38.9717 4.1403 37.8597C3.02829 36.7477 2.37807 35.2353 2.03406 32.6767C1.68357 30.0697 1.68 26.6392 1.68 21.84V20.16C1.68 15.3607 1.68357 11.9303 2.03406 9.32336C2.37807 6.76472 3.02829 5.2523 4.1403 4.1403C5.25231 3.02829 6.76473 2.37806 9.32337 2.03406C9.95681 1.9489 10.6389 1.88421 11.3775 1.83509C10.8578 2.14867 10.386 2.51643 9.954 2.9484C7.0014 5.90099 7.0014 10.6512 7.0014 20.1558V21.8358C7.0014 31.3404 7.0014 36.0906 9.954 39.0432C10.3904 39.4796 10.8693 39.8505 11.3965 40.1662Z" fill="white"/>
</svg>
