<svg width="30" height="30" viewBox="0 0 30 30" fill="none" xmlns="http://www.w3.org/2000/svg">
<g clip-path="url(#clip0_2905_11583)">
<path d="M15.0199 19.3266C12.6074 19.3266 10.6445 17.403 10.6445 15.0381C10.6445 12.6731 12.6074 10.7493 15.0199 10.7493C15.362 10.7493 15.7789 10.8335 15.7513 11.2714C15.7249 11.6894 15.3461 11.717 15.0199 11.717C13.1408 11.717 11.6123 13.2068 11.6123 15.0381C11.6123 16.8693 13.1408 18.3589 15.0199 18.3589C16.899 18.3589 18.4276 16.869 18.4276 15.0381C18.4291 14.509 18.3001 13.9877 18.0521 13.5204C18.0213 13.4641 18.0019 13.4023 17.9952 13.3384C17.9885 13.2746 17.9946 13.2101 18.013 13.1486C18.0315 13.0871 18.062 13.03 18.1028 12.9804C18.1436 12.9308 18.1938 12.8899 18.2506 12.8599C18.3073 12.83 18.3695 12.8116 18.4334 12.8059C18.4973 12.8002 18.5617 12.8072 18.6229 12.8267C18.6841 12.8461 18.7408 12.8775 18.7897 12.9191C18.8386 12.9606 18.8788 13.0115 18.9078 13.0687C19.2276 13.6759 19.3949 14.3518 19.3953 15.0381C19.3953 17.403 17.4328 19.3266 15.0199 19.3266Z" fill="#004290"/>
<path d="M17.3273 12.4582C17.2293 12.4582 17.1303 12.4285 17.0447 12.3668C16.9159 12.2741 16.7809 12.1903 16.6407 12.1159C16.5831 12.087 16.532 12.0469 16.4901 11.9979C16.4483 11.949 16.4167 11.8922 16.3971 11.8308C16.3775 11.7695 16.3703 11.7049 16.376 11.6407C16.3817 11.5766 16.4002 11.5142 16.4303 11.4573C16.4604 11.4004 16.5016 11.3501 16.5514 11.3093C16.6012 11.2685 16.6586 11.238 16.7204 11.2197C16.7821 11.2014 16.8468 11.1956 16.9108 11.2026C16.9748 11.2096 17.0368 11.2294 17.0931 11.2607C17.2726 11.3557 17.4468 11.4636 17.6108 11.5819C17.9824 11.8498 17.786 12.4582 17.3273 12.4582ZM28.1791 7.40444L28.1619 5.30372C28.1608 5.1761 28.1093 5.05408 28.0187 4.96422C27.9281 4.87437 27.8056 4.82396 27.678 4.82396H27.6739C27.6103 4.82447 27.5475 4.83748 27.489 4.86227C27.4305 4.88706 27.3774 4.92312 27.3329 4.96841C27.2883 5.01371 27.2531 5.06733 27.2292 5.12624C27.2054 5.18514 27.1934 5.24816 27.1939 5.3117L27.199 5.9492C24.2941 2.49001 19.6409 0.241943 15.1777 0.241943C10.5625 0.241943 6.29042 2.30904 3.45857 5.91267C3.41853 5.96257 3.38879 6.01991 3.37106 6.08137C3.35333 6.14284 3.34796 6.20721 3.35527 6.27077C3.36258 6.33432 3.38242 6.39579 3.41364 6.45163C3.44487 6.50747 3.48685 6.55656 3.53717 6.59606C3.58749 6.63557 3.64514 6.66471 3.70679 6.68179C3.76844 6.69886 3.83286 6.70355 3.89634 6.69557C3.95981 6.68759 4.02107 6.6671 4.07657 6.63529C4.13208 6.60348 4.18072 6.56098 4.21969 6.51025C6.86695 3.14154 10.8611 1.20969 15.1777 1.20969C19.5166 1.20969 24.0478 3.47565 26.7453 6.92493H25.4174C25.289 6.92493 25.166 6.97591 25.0752 7.06665C24.9845 7.15739 24.9335 7.28047 24.9335 7.4088C24.9335 7.53713 24.9845 7.6602 25.0752 7.75095C25.166 7.84169 25.289 7.89267 25.4174 7.89267H27.6952C27.8512 7.89243 28.1791 7.71848 28.1791 7.40444ZM29.0169 9.62081C28.9703 9.50124 28.878 9.40509 28.7605 9.3535C28.643 9.30191 28.5098 9.29912 28.3903 9.34573C28.2707 9.39235 28.1745 9.48456 28.1229 9.60207C28.0714 9.71958 28.0686 9.85278 28.1152 9.97235C28.7236 11.5335 29.0346 13.1946 29.0321 14.8701C29.0321 20.176 25.3361 25.2709 20.0696 27.4645L20.4301 26.9129C20.4655 26.8597 20.49 26.8 20.5022 26.7373C20.5145 26.6746 20.5141 26.6101 20.5013 26.5475C20.4884 26.4849 20.4633 26.4255 20.4274 26.3726C20.3914 26.3198 20.3454 26.2746 20.2919 26.2397C20.2384 26.2047 20.1785 26.1807 20.1156 26.1691C20.0528 26.1574 19.9883 26.1583 19.9258 26.1717C19.8633 26.1851 19.8041 26.2107 19.7516 26.2471C19.6991 26.2835 19.6543 26.33 19.6199 26.3838L18.4658 28.1494C18.3052 28.3945 18.4085 28.7388 18.6756 28.8569L20.6198 29.7143C21.1905 29.9647 21.5812 29.0809 21.0103 28.8288L20.1831 28.4642C22.7222 27.4561 25.024 25.7794 26.7562 23.6555C28.8785 21.0532 29.9999 18.0155 29.9999 14.8701C30.0024 13.0743 29.669 11.294 29.0169 9.62081C29.6691 11.2948 28.9199 9.37186 29.0169 9.62081ZM15.7518 28.5189C15.5614 28.5264 15.37 28.5303 15.1777 28.5303C7.53832 28.5303 1.32324 22.4025 1.32324 14.8701C1.32324 13.5375 1.88332 11.8708 2.41703 10.464L2.84381 11.4082C3.10147 11.9777 3.98236 11.5773 3.7259 11.01L2.82373 9.01404C2.71268 8.76872 2.40711 8.66009 2.16615 8.78057L0.267195 9.73162C0.208637 9.759 0.156159 9.79784 0.11286 9.84584C0.0695611 9.89384 0.0363195 9.95003 0.0150979 10.0111C-0.00612364 10.0722 -0.0148949 10.1368 -0.0106978 10.2014C-0.0065007 10.2659 0.0105796 10.3289 0.0395344 10.3867C0.0684893 10.4445 0.108732 10.4959 0.157885 10.5379C0.207039 10.5798 0.264107 10.6116 0.325719 10.6311C0.387332 10.6507 0.45224 10.6577 0.51661 10.6518C0.580981 10.6458 0.643508 10.627 0.700501 10.5965L1.47978 10.2063C0.927679 11.67 0.355743 13.4052 0.355743 14.8698C0.355743 22.9355 7.00486 29.4975 15.1779 29.4975C15.3831 29.4975 15.5873 29.4932 15.7903 29.4852C15.8546 29.4839 15.918 29.4699 15.9769 29.4438C16.0357 29.4177 16.0887 29.3802 16.1328 29.3334C16.177 29.2865 16.2113 29.2314 16.2339 29.1711C16.2564 29.1108 16.2667 29.0467 16.2642 28.9824C16.2616 28.9181 16.2462 28.855 16.219 28.7967C16.1917 28.7384 16.1531 28.6862 16.1054 28.643C16.0576 28.5998 16.0018 28.5666 15.9411 28.5453C15.8804 28.524 15.816 28.515 15.7518 28.5189C16.0182 28.5087 15.5616 28.5264 15.7518 28.5189Z" fill="#004290"/>
<path d="M15.7752 24.675C15.3003 24.675 13.8925 24.6806 13.6733 24.5872C13.2959 24.4266 12.9881 24.017 12.9881 23.597V22.6331C12.2594 22.4421 11.5618 22.1474 10.9169 21.758L10.2395 22.434C9.81417 22.854 9.08909 22.7836 8.68095 22.3931C8.48159 22.2022 7.70546 21.4096 7.52595 21.2011C7.1432 20.7562 7.15167 20.0667 7.56998 19.6491L8.25175 18.969C7.85304 18.2896 7.56224 17.5757 7.39675 16.8695H6.44256C5.84764 16.8695 5.35603 16.3808 5.32337 15.7912C5.30812 15.5156 5.31538 14.4039 5.32337 14.1271C5.33982 13.5569 5.80119 13.0092 6.40288 13.0092H7.37014C7.56134 12.2823 7.85648 11.5868 8.24643 10.9442L7.57022 10.2695C7.14708 9.84633 7.22038 9.1181 7.61111 8.71165C7.80248 8.51278 8.597 7.7381 8.80579 7.55931C9.25095 7.17826 9.94046 7.18673 10.3585 7.60334L11.0413 8.28463C11.7223 7.88641 12.4384 7.59608 13.1468 7.4306V6.44036C13.1468 5.8452 13.6375 5.35528 14.2263 5.32238C14.5024 5.30713 15.6168 5.31367 15.8943 5.32238C16.1844 5.33139 16.4595 5.45326 16.6611 5.66206C16.8627 5.87087 16.9749 6.15011 16.9738 6.44036V7.40423C17.7026 7.59508 18.4001 7.8898 19.045 8.27931L19.7224 7.60334C20.1468 7.18189 20.8738 7.25471 21.2809 7.64447C21.4803 7.83536 22.2564 8.6277 22.4357 8.83625C22.8184 9.28141 22.81 9.97068 22.3914 10.3883L21.7099 11.0683C22.1086 11.7475 22.3992 12.4612 22.5649 13.1676H23.5191C24.1002 13.1676 24.6148 13.5975 24.6743 14.1859C24.7031 14.4707 24.6864 15.6254 24.6782 15.9102C24.6618 16.4807 24.2009 17.0279 23.5987 17.0279H22.6314C22.4401 17.7549 22.145 18.4504 21.7551 19.0931L22.4313 19.7676C22.8547 20.191 22.7812 20.9192 22.3905 21.3257C22.1991 21.5246 21.4048 22.299 21.1958 22.4778C20.7504 22.8591 20.0613 22.8511 19.643 22.434L18.9603 21.7527C18.2793 22.1507 17.5634 22.4412 16.8547 22.6067V23.5573C16.8547 24.1278 16.3646 24.675 15.7752 24.675ZM13.9556 23.5585C13.966 23.6076 14.0006 23.7073 14.1071 23.7073H15.737C15.7866 23.6969 15.887 23.6625 15.887 23.5571V22.21C15.887 22.0954 15.9277 21.9846 16.0018 21.8973C16.0759 21.8099 16.1785 21.7516 16.2915 21.7329C17.1163 21.5957 17.9727 21.2502 18.7684 20.7341C18.8614 20.674 18.9721 20.6475 19.0822 20.659C19.1923 20.6705 19.2951 20.7194 19.3735 20.7975L20.3265 21.7486C20.4032 21.8253 20.506 21.78 20.5544 21.7515L21.7138 20.6333C21.783 20.5643 21.7411 20.4663 21.7126 20.4175L20.7947 19.5015C20.7146 19.4217 20.6651 19.3163 20.6546 19.2037C20.6441 19.0912 20.6734 18.9785 20.7373 18.8853C21.2268 18.1713 21.5952 17.3047 21.7747 16.4446C21.7975 16.3358 21.857 16.2382 21.9432 16.1681C22.0295 16.098 22.1373 16.0597 22.2484 16.0597H23.5607C23.6101 16.0496 23.7105 16.0154 23.7105 15.91V14.2827C23.6906 14.1847 23.6263 14.1351 23.5191 14.1351H22.1688C22.0543 14.1351 21.9435 14.0945 21.8561 14.0205C21.7687 13.9465 21.7104 13.8438 21.6915 13.7308C21.5543 12.9085 21.2081 12.0545 20.6911 11.2607C20.6304 11.1676 20.6037 11.0565 20.6152 10.946C20.6268 10.8355 20.6761 10.7324 20.7547 10.6539L21.7077 9.70286C21.783 9.62786 21.7387 9.52649 21.7106 9.47834L20.59 8.32165C20.5198 8.25197 20.4201 8.29407 20.3705 8.32262L19.4524 9.23883C19.3727 9.31849 19.2676 9.36777 19.1554 9.37816C19.0432 9.38854 18.9309 9.35936 18.8379 9.29568C18.1225 8.8077 17.2534 8.43971 16.3909 8.26044C16.282 8.23781 16.1843 8.17834 16.1141 8.09206C16.0439 8.00579 16.0056 7.89796 16.0055 7.78673V6.43963C16.0055 6.34649 15.9405 6.28939 15.8938 6.28939H14.2638C14.2143 6.29979 14.1138 6.33415 14.1138 6.43963V7.82641C14.1138 7.94094 14.0731 8.05175 13.999 8.13911C13.925 8.22647 13.8223 8.28472 13.7093 8.3035C12.8848 8.44068 12.0284 8.78592 11.2324 9.30197C11.1396 9.36234 11.0289 9.38899 10.9187 9.37745C10.8086 9.36591 10.7058 9.31689 10.6276 9.23859L9.67458 8.28778C9.59812 8.21133 9.49506 8.25633 9.44667 8.28463L8.28732 9.40286C8.21812 9.47181 8.25998 9.5698 8.28853 9.61867L9.20643 10.5349C9.28647 10.6147 9.33602 10.7201 9.34649 10.8326C9.35697 10.9452 9.3277 11.0579 9.26377 11.1511C8.77458 11.8646 8.40611 12.7314 8.22635 13.5915C8.20362 13.7003 8.14411 13.798 8.05785 13.8681C7.97158 13.9382 7.8638 13.9764 7.75264 13.9764H6.44111C6.39151 13.9871 6.29111 14.0212 6.29111 14.1269V15.7527C6.30151 15.8018 6.33611 15.9015 6.44256 15.9015H7.7928C7.90734 15.9015 8.01818 15.9421 8.10558 16.0161C8.19299 16.0901 8.2513 16.1928 8.27014 16.3058C8.40732 17.1279 8.75329 17.9821 9.27054 18.7762C9.33121 18.8692 9.358 18.9804 9.34641 19.0908C9.33482 19.2013 9.28557 19.3045 9.20691 19.3829L8.25393 20.3337C8.17869 20.409 8.22296 20.5104 8.25103 20.5585L9.37167 21.7152C9.44183 21.7851 9.54151 21.743 9.59111 21.714L10.5093 20.7978C10.589 20.7181 10.6941 20.6689 10.8064 20.6585C10.9186 20.6481 11.031 20.6773 11.124 20.7409C11.8392 21.2291 12.708 21.5971 13.5707 21.7764C13.6796 21.799 13.7774 21.8585 13.8476 21.9448C13.9178 22.0311 13.9561 22.1389 13.9561 22.2501V23.5585H13.9556Z" fill="#004290"/>
</g>
<defs>
<clipPath id="clip0_2905_11583">
<rect width="30" height="30" fill="white"/>
</clipPath>
</defs>
</svg>
