<svg width="30" height="30" viewBox="0 0 30 30" fill="none" xmlns="http://www.w3.org/2000/svg">
<path d="M27.6562 24.0398C23.6203 24.0398 23.5688 21.6961 19.2188 21.6961C15.0352 21.6961 14.8242 23.8641 11.25 24.0398V21.1172C15.1734 20.9508 15.307 18.7734 19.2188 18.7734C23.257 18.7734 23.3016 21.1172 27.6562 21.1172C27.7806 21.1172 27.8998 21.0678 27.9877 20.9799C28.0756 20.892 28.125 20.7728 28.125 20.6484C28.125 20.5241 28.0756 20.4049 27.9877 20.317C27.8998 20.2291 27.7806 20.1797 27.6562 20.1797C23.6203 20.1797 23.5688 17.8359 19.2188 17.8359C15 17.8359 14.8523 20.0039 11.25 20.1797V16.875H12.6562C12.7806 16.875 12.8998 16.8256 12.9877 16.7377C13.0756 16.6498 13.125 16.5306 13.125 16.4062C13.125 16.2819 13.0756 16.1627 12.9877 16.0748C12.8998 15.9869 12.7806 15.9375 12.6562 15.9375H11.25V13.125H12.6562C12.7806 13.125 12.8998 13.0756 12.9877 12.9877C13.0756 12.8998 13.125 12.7806 13.125 12.6562C13.125 12.5319 13.0756 12.4127 12.9877 12.3248C12.8998 12.2369 12.7806 12.1875 12.6562 12.1875H11.25V9.375H15.4688C15.5931 9.375 15.7123 9.32561 15.8002 9.23771C15.8881 9.1498 15.9375 9.03057 15.9375 8.90625V2.34375C15.9375 2.21943 15.8881 2.1002 15.8002 2.01229C15.7123 1.92439 15.5931 1.875 15.4688 1.875H6.09375C5.96943 1.875 5.8502 1.92439 5.76229 2.01229C5.67439 2.1002 5.625 2.21943 5.625 2.34375V8.90625C5.625 9.03057 5.67439 9.1498 5.76229 9.23771C5.8502 9.32561 5.96943 9.375 6.09375 9.375H10.3125V20.1773C6.71484 20.0086 6.54844 17.8336 2.34375 17.8336C2.21943 17.8336 2.1002 17.883 2.01229 17.9709C1.92439 18.0588 1.875 18.178 1.875 18.3023C1.875 18.4267 1.92439 18.5459 2.01229 18.6338C2.1002 18.7217 2.21943 18.7711 2.34375 18.7711C6.25078 18.7711 6.39141 20.9437 10.3125 21.1148V24.0258C6.71484 23.857 6.54844 21.682 2.34375 21.682C2.21943 21.682 2.1002 21.7314 2.01229 21.8193C1.92439 21.9072 1.875 22.0265 1.875 22.1508C1.875 22.2751 1.92439 22.3943 2.01229 22.4822C2.1002 22.5701 2.21943 22.6195 2.34375 22.6195C6.25078 22.6195 6.39141 24.7922 10.3125 24.9633V25.7812C10.3125 25.9056 10.3619 26.0248 10.4498 26.1127C10.5377 26.2006 10.6569 26.25 10.7812 26.25C10.9056 26.25 11.0248 26.2006 11.1127 26.1127C11.2006 26.0248 11.25 25.9056 11.25 25.7812V24.968C15.1734 24.8016 15.307 22.6242 19.2188 22.6242C23.2594 22.6242 23.2945 24.968 27.6562 24.968C27.7806 24.968 27.8998 24.9186 27.9877 24.8307C28.0756 24.7428 28.125 24.6235 28.125 24.4992C28.125 24.3749 28.0756 24.2557 27.9877 24.1678C27.8998 24.0799 27.7806 24.0305 27.6562 24.0305V24.0398ZM6.5625 2.8125H15V8.4375H6.5625V2.8125Z" fill="#004290"/>
<path d="M27.6562 27.8907C23.6203 27.8907 23.5688 25.547 19.2188 25.547C14.8688 25.547 14.8148 27.8907 10.7812 27.8907C6.74766 27.8907 6.70547 25.547 2.34375 25.547C2.21943 25.547 2.1002 25.5964 2.01229 25.6843C1.92439 25.7722 1.875 25.8914 1.875 26.0157C1.875 26.1401 1.92439 26.2593 2.01229 26.3472C2.1002 26.4351 2.21943 26.4845 2.34375 26.4845C6.38438 26.4845 6.41953 28.8282 10.7812 28.8282C15.143 28.8282 15.1852 26.4845 19.2188 26.4845C23.2523 26.4845 23.2945 28.8282 27.6562 28.8282C27.7806 28.8282 27.8998 28.7789 27.9877 28.6909C28.0756 28.603 28.125 28.4838 28.125 28.3595C28.125 28.2352 28.0756 28.1159 27.9877 28.028C27.8998 27.9401 27.7806 27.8907 27.6562 27.8907ZM20.6648 5.62511C20.666 6.0562 20.5817 6.48323 20.4168 6.88151C20.2518 7.27979 20.0095 7.64141 19.7039 7.94543C19.6159 8.03338 19.5665 8.15268 19.5665 8.27707C19.5665 8.40146 19.6159 8.52075 19.7039 8.60871C19.7919 8.69666 19.9112 8.74608 20.0355 8.74608C20.1599 8.74608 20.2792 8.69666 20.3672 8.60871C20.7591 8.21694 21.07 7.75181 21.2821 7.23988C21.4942 6.72795 21.6033 6.17924 21.6033 5.62511C21.6033 5.07098 21.4942 4.52228 21.2821 4.01035C21.07 3.49842 20.7591 3.03329 20.3672 2.64152C20.3236 2.59797 20.2719 2.56342 20.215 2.53985C20.1581 2.51628 20.0971 2.50415 20.0355 2.50415C19.974 2.50415 19.913 2.51628 19.8561 2.53985C19.7992 2.56342 19.7475 2.59797 19.7039 2.64152C19.6604 2.68507 19.6258 2.73678 19.6022 2.79368C19.5787 2.85058 19.5665 2.91157 19.5665 2.97316C19.5665 3.03475 19.5787 3.09574 19.6022 3.15264C19.6258 3.20955 19.6604 3.26125 19.7039 3.3048C20.0095 3.60882 20.2518 3.97043 20.4168 4.36871C20.5817 4.76699 20.666 5.19403 20.6648 5.62511Z" fill="#004290"/>
<path d="M18.3776 7.28215C18.4211 7.32573 18.4728 7.3603 18.5297 7.38389C18.5866 7.40748 18.6476 7.41962 18.7092 7.41962C18.7708 7.41962 18.8318 7.40748 18.8887 7.38389C18.9457 7.3603 18.9974 7.32573 19.0409 7.28215C19.4803 6.84263 19.7271 6.24659 19.7271 5.62511C19.7271 5.00364 19.4803 4.4076 19.0409 3.96808C18.9529 3.88013 18.8336 3.83071 18.7092 3.83071C18.5849 3.83071 18.4656 3.88013 18.3776 3.96808C18.2896 4.05604 18.2402 4.17533 18.2402 4.29972C18.2402 4.42411 18.2896 4.54341 18.3776 4.63136C18.5084 4.76197 18.6121 4.91706 18.6828 5.08778C18.7536 5.25849 18.79 5.44148 18.79 5.62629C18.79 5.81109 18.7536 5.99408 18.6828 6.1648C18.6121 6.33551 18.5084 6.49061 18.3776 6.62121C18.2903 6.70903 18.2413 6.82784 18.2413 6.95168C18.2413 7.07551 18.2903 7.19432 18.3776 7.28215ZM21.0307 9.27199C20.9428 9.35995 20.8934 9.47924 20.8934 9.60363C20.8934 9.72802 20.9428 9.84731 21.0307 9.93527C21.1187 10.0232 21.238 10.0726 21.3624 10.0726C21.4868 10.0726 21.6061 10.0232 21.694 9.93527C22.2599 9.36941 22.7088 8.69764 23.015 7.9583C23.3213 7.21896 23.4789 6.42654 23.4789 5.62629C23.4789 4.82603 23.3213 4.03361 23.015 3.29427C22.7088 2.55494 22.2599 1.88316 21.694 1.3173C21.6061 1.22935 21.4868 1.17993 21.3624 1.17993C21.238 1.17993 21.1187 1.22935 21.0307 1.3173C20.9428 1.40526 20.8934 1.52455 20.8934 1.64894C20.8934 1.77333 20.9428 1.89263 21.0307 1.98058C21.9975 2.94754 22.5406 4.25892 22.5406 5.62629C22.5406 6.99365 21.9975 8.30503 21.0307 9.27199Z" fill="#004290"/>
</svg>
