<svg width="30" height="30" viewBox="0 0 30 30" fill="none" xmlns="http://www.w3.org/2000/svg">
<path d="M18.7732 14.59H17.9763C17.8787 13.8698 17.5234 13.2094 16.976 12.7312C16.4287 12.253 15.7265 11.9895 14.9997 11.9895C14.273 11.9895 13.5708 12.253 13.0235 12.7312C12.4761 13.2094 12.1208 13.8698 12.0232 14.59H11.2263C11.1724 14.5899 11.1189 14.6004 11.069 14.6209C11.0191 14.6415 10.9738 14.6717 10.9356 14.7098C10.8974 14.7479 10.8671 14.7931 10.8464 14.843C10.8257 14.8928 10.815 14.9462 10.815 15.0002V28.522C10.815 28.6307 10.8583 28.735 10.9352 28.8119C11.0121 28.8888 11.1164 28.9321 11.2251 28.9321H18.7732C18.882 28.9321 18.9863 28.8889 19.0632 28.812C19.1401 28.7351 19.1833 28.6307 19.1833 28.522V15.0002C19.1833 14.8914 19.1401 14.7871 19.0632 14.7101C18.9863 14.6332 18.882 14.59 18.7732 14.59ZM14.9997 12.813C15.5083 12.8138 16.0008 12.9916 16.3926 13.3158C16.7844 13.6401 17.0511 14.0906 17.1471 14.59H12.8526C12.9485 14.0906 13.2152 13.64 13.607 13.3158C13.9988 12.9915 14.4912 12.8138 14.9997 12.813ZM18.364 28.1118H11.6353V15.4103H18.364V28.1118ZM14.9997 6.53055C13.887 6.52749 12.7848 6.74516 11.7568 7.17096C10.7288 7.59676 9.79542 8.22223 9.01076 9.01117C8.93384 9.0881 8.89062 9.19243 8.89062 9.30121C8.89062 9.41 8.93384 9.51433 9.01076 9.59125C9.08769 9.66818 9.19202 9.71139 9.3008 9.71139C9.40959 9.71139 9.51392 9.66818 9.59084 9.59125C11.0254 8.15677 12.971 7.35089 14.9997 7.35089C17.0285 7.35089 18.9741 8.15677 20.4087 9.59125C20.4856 9.66818 20.5899 9.71139 20.6987 9.71139C20.8075 9.71139 20.9118 9.66818 20.9887 9.59125C21.0657 9.51433 21.1089 9.41 21.1089 9.30121C21.1089 9.19243 21.0657 9.0881 20.9887 9.01117C20.2041 8.22223 19.2707 7.59676 18.2427 7.17096C17.2147 6.74516 16.1124 6.52749 14.9997 6.53055Z" fill="#004290"/>
<path d="M11.2323 11.6425C11.2862 11.6425 11.3396 11.632 11.3894 11.6114C11.4392 11.5908 11.4844 11.5606 11.5225 11.5225C12.4456 10.6015 13.6963 10.0843 15.0003 10.0843C16.3042 10.0843 17.5549 10.6015 18.478 11.5225C18.5554 11.5972 18.659 11.6385 18.7666 11.6375C18.8741 11.6366 18.977 11.5934 19.053 11.5174C19.129 11.4413 19.1722 11.3384 19.1731 11.2309C19.174 11.1233 19.1326 11.0197 19.0579 10.9424C17.9809 9.86782 16.5216 9.26432 15.0002 9.26432C13.4787 9.26432 12.0194 9.86782 10.9424 10.9424C10.8851 10.9998 10.8461 11.0728 10.8303 11.1524C10.8145 11.2319 10.8226 11.3143 10.8536 11.3893C10.8846 11.4642 10.9372 11.5282 11.0046 11.5733C11.072 11.6184 11.1513 11.6424 11.2323 11.6425ZM15.0002 3.79936C13.5286 3.79539 12.0709 4.08336 10.7113 4.64659C9.35183 5.20982 8.11754 6.03712 7.07992 7.08061C7.00522 7.15798 6.9639 7.26159 6.96486 7.36913C6.96582 7.47668 7.00897 7.57954 7.08503 7.65557C7.1611 7.7316 7.26398 7.77472 7.37152 7.77563C7.47906 7.77654 7.58266 7.73518 7.66 7.66045C9.60675 5.71376 12.2471 4.62012 15.0002 4.62012C17.7532 4.62012 20.3936 5.71376 22.3403 7.66045C22.4177 7.73518 22.5213 7.77654 22.6288 7.77563C22.7363 7.77472 22.8392 7.7316 22.9153 7.65557C22.9913 7.57954 23.0345 7.47668 23.0355 7.36913C23.0364 7.26159 22.9951 7.15798 22.9204 7.08061C21.8828 6.03712 20.6485 5.20982 19.289 4.64659C17.9295 4.08336 16.4717 3.79539 15.0002 3.79936Z" fill="#004290"/>
<path d="M24.8519 5.14885C23.5582 3.85511 22.0224 2.82884 20.3321 2.12867C18.6419 1.42849 16.8302 1.06812 15.0006 1.06812C13.1711 1.06812 11.3594 1.42849 9.66914 2.12867C7.97885 2.82884 6.44304 3.85511 5.14939 5.14885C5.07249 5.22574 5.0293 5.33003 5.0293 5.43877C5.0293 5.54752 5.07249 5.6518 5.14939 5.7287C5.22628 5.80559 5.33057 5.84879 5.43931 5.84879C5.54805 5.84879 5.65234 5.80559 5.72923 5.7287C8.18821 3.26985 11.5232 1.8885 15.0006 1.8885C18.4781 1.8885 21.8131 3.26985 24.272 5.7287C24.3489 5.80559 24.4532 5.84879 24.562 5.84879C24.6707 5.84879 24.775 5.80559 24.8519 5.7287C24.9288 5.6518 24.972 5.54752 24.972 5.43877C24.972 5.33003 24.9288 5.22574 24.8519 5.14885Z" fill="#004290"/>
</svg>
