<svg width="30" height="30" viewBox="0 0 30 30" fill="none" xmlns="http://www.w3.org/2000/svg">
<path d="M28.9996 13.9999C28.9982 12.8892 28.5867 11.8182 27.844 10.9923C27.1014 10.1664 26.0799 9.64384 24.9756 9.52492C24.9916 9.34492 24.9996 9.17092 24.9996 8.99992C24.9992 7.59987 24.5468 6.23735 23.7096 5.11514C22.8725 3.99293 21.6954 3.17101 20.3535 2.7717C19.0116 2.37238 17.5766 2.41701 16.2621 2.89894C14.9476 3.38088 13.8239 4.27436 13.0581 5.44642C12.2969 5.10098 11.4612 4.95211 10.6275 5.01346C9.7939 5.0748 8.98899 5.34439 8.28657 5.79753C7.58415 6.25066 7.0067 6.87285 6.60713 7.60706C6.20756 8.34127 5.99866 9.16403 5.99957 9.99992V10.0189C4.48611 10.1351 3.06112 10.7776 1.97192 11.8348C0.882714 12.892 0.19806 14.2972 0.036786 15.8066C-0.124488 17.3159 0.247799 18.834 1.08903 20.0975C1.93026 21.361 3.18734 22.29 4.64207 22.7234C4.83953 23.5943 5.24643 24.4039 5.82751 25.082C6.40859 25.7601 7.14629 26.2863 7.97667 26.6148C8.80705 26.9434 9.70503 27.0644 10.5928 26.9674C11.4805 26.8705 12.3312 26.5585 13.0711 26.0584C13.4504 26.6885 13.9962 27.2018 14.6483 27.5419C15.3004 27.882 16.0336 28.0357 16.7675 27.9862C17.5013 27.9366 18.2072 27.6857 18.8077 27.261C19.4081 26.8363 19.8799 26.2543 20.1711 25.5789C21.1757 26.184 22.3268 26.5025 23.4996 26.4999C24.7253 26.5013 25.9264 26.1557 26.964 25.5031C28.0015 24.8504 28.8332 23.9174 29.3626 22.8119C29.8921 21.7064 30.0978 20.4736 29.956 19.2561C29.8141 18.0386 29.3305 16.8861 28.5611 15.9319C28.8489 15.3285 28.9987 14.6685 28.9996 13.9999ZM28.9996 19.9999C28.9979 21.4581 28.4178 22.856 27.3868 23.8871C26.3557 24.9182 24.9577 25.4982 23.4996 25.4999C22.3105 25.5011 21.1537 25.1134 20.2056 24.3959C20.139 24.3459 20.0611 24.3133 19.9788 24.301C19.8964 24.2888 19.8124 24.2972 19.7342 24.3257C19.6559 24.3542 19.5861 24.4017 19.5309 24.464C19.4757 24.5263 19.4369 24.6014 19.4181 24.6824C19.2804 25.277 18.964 25.8152 18.5116 26.2248C18.0592 26.6344 17.4922 26.8958 16.8869 26.9739C16.2816 27.052 15.6669 26.9431 15.1253 26.6617C14.5837 26.3804 14.1412 25.9401 13.8571 25.3999C14.498 24.7749 14.9761 24.0024 15.2496 23.1499C15.2894 23.0233 15.2772 22.8862 15.2159 22.7685C15.1545 22.6509 15.0489 22.5625 14.9223 22.5227C14.7957 22.4829 14.6586 22.495 14.5409 22.5564C14.4233 22.6178 14.3349 22.7234 14.2951 22.8499C14.0436 23.6488 13.5737 24.3615 12.9386 24.9074C12.9342 24.9096 12.9301 24.9121 12.9261 24.9149C12.3216 25.4343 11.5898 25.7835 10.8058 25.9267C10.0217 26.0698 9.21375 26.0018 8.46471 25.7295C7.71567 25.4573 7.05256 24.9906 6.54343 24.3775C6.03431 23.7643 5.69749 23.0267 5.56757 22.2404C5.56757 22.2279 5.55907 22.2174 5.55607 22.2054C5.46132 21.6084 5.48776 20.9983 5.63379 20.4117C5.77982 19.8251 6.04247 19.2739 6.40607 18.7909C6.47593 18.6847 6.5027 18.5559 6.48094 18.4306C6.45918 18.3053 6.39052 18.1931 6.28892 18.1166C6.18733 18.0402 6.06043 18.0053 5.93404 18.0191C5.80765 18.0329 5.69127 18.0944 5.60857 18.1909C4.86493 19.1764 4.47717 20.3848 4.50857 21.6189C3.31368 21.1567 2.31786 20.2915 1.6933 19.1729C1.06875 18.0543 0.854726 16.7526 1.08824 15.4929C1.32176 14.2332 1.98813 13.0947 2.97214 12.2743C3.95615 11.4539 5.19591 11.0031 6.47707 10.9999C6.55557 11.0054 6.6343 10.9935 6.70767 10.965C6.78104 10.9366 6.84724 10.8923 6.90157 10.8354C6.94846 10.7831 6.98379 10.7214 7.00524 10.6544C7.0267 10.5875 7.03379 10.5168 7.02607 10.4469C7.00913 10.2985 7.00029 10.1493 6.99957 9.99992C6.99722 9.33659 7.16044 8.68316 7.47446 8.09886C7.78847 7.51456 8.24334 7.01787 8.79784 6.6538C9.35233 6.28973 9.98892 6.0698 10.6499 6.01394C11.3109 5.95809 11.9753 6.06807 12.5831 6.33392C12.2024 7.1714 12.0036 8.08002 11.9996 8.99992C11.9996 9.13253 12.0522 9.25971 12.146 9.35348C12.2398 9.44724 12.367 9.49992 12.4996 9.49992C12.6322 9.49992 12.7594 9.44724 12.8531 9.35348C12.9469 9.25971 12.9996 9.13253 12.9996 8.99992C12.9993 8.07359 13.2327 7.16215 13.6781 6.34992L13.6831 6.34392C14.305 5.19827 15.3141 4.31123 16.5301 3.84147C17.7461 3.3717 19.0895 3.34986 20.3201 3.77984C21.5507 4.20983 22.5882 5.06359 23.247 6.18842C23.9059 7.31324 24.143 8.63577 23.9161 9.91942V9.94092C23.777 10.7593 23.452 11.5349 22.9661 12.2079C22.9255 12.2612 22.896 12.3221 22.8794 12.387C22.8629 12.452 22.8595 12.5195 22.8695 12.5858C22.8796 12.652 22.9028 12.7156 22.9379 12.7726C22.973 12.8297 23.0192 12.8792 23.0737 12.918C23.1283 12.9569 23.1901 12.9844 23.2555 12.9989C23.3209 13.0135 23.3886 13.0147 23.4545 13.0026C23.5203 12.9904 23.5831 12.9652 23.639 12.9283C23.695 12.8914 23.7429 12.8437 23.7801 12.7879C24.2686 12.1044 24.6186 11.3319 24.8106 10.5139C25.3968 10.5648 25.9607 10.763 26.4499 11.0901C26.9391 11.4172 27.3378 11.8625 27.6089 12.3848C27.88 12.9071 28.0148 13.4894 28.0007 14.0777C27.9867 14.666 27.8243 15.2412 27.5286 15.7499C27.4757 15.8413 27.453 15.947 27.4639 16.052C27.4748 16.157 27.5186 16.2559 27.5891 16.3344C28.4956 17.3402 28.998 18.6459 28.9996 19.9999Z" fill="#004290"/>
<path d="M1 7C1 7.39556 1.1173 7.78224 1.33706 8.11114C1.55682 8.44004 1.86918 8.69638 2.23463 8.84776C2.60009 8.99914 3.00222 9.03874 3.39018 8.96157C3.77814 8.8844 4.13451 8.69392 4.41421 8.41421C4.69392 8.13451 4.8844 7.77814 4.96157 7.39018C5.03874 7.00222 4.99914 6.60009 4.84776 6.23463C4.69638 5.86918 4.44004 5.55682 4.11114 5.33706C3.78224 5.1173 3.39556 5 3 5C2.46957 5 1.96086 5.21071 1.58579 5.58579C1.21071 5.96086 1 6.46957 1 7ZM3 6C3.19778 6 3.39112 6.05865 3.55557 6.16853C3.72002 6.27841 3.84819 6.43459 3.92388 6.61732C3.99957 6.80004 4.01937 7.00111 3.98079 7.19509C3.9422 7.38907 3.84696 7.56725 3.70711 7.70711C3.56725 7.84696 3.38907 7.9422 3.19509 7.98079C3.00111 8.01937 2.80004 7.99957 2.61732 7.92388C2.43459 7.84819 2.27841 7.72002 2.16853 7.55557C2.05865 7.39112 2 7.19778 2 7C2 6.73478 2.10536 6.48043 2.29289 6.29289C2.48043 6.10536 2.73478 6 3 6ZM5 3.5C5 3.79667 5.08797 4.08668 5.2528 4.33336C5.41762 4.58003 5.65189 4.77229 5.92598 4.88582C6.20006 4.99935 6.50166 5.02906 6.79264 4.97118C7.08361 4.9133 7.35088 4.77044 7.56066 4.56066C7.77044 4.35088 7.9133 4.08361 7.97118 3.79264C8.02906 3.50166 7.99935 3.20006 7.88582 2.92597C7.77229 2.65189 7.58003 2.41762 7.33336 2.2528C7.08668 2.08797 6.79667 2 6.5 2C6.10218 2 5.72064 2.15804 5.43934 2.43934C5.15804 2.72064 5 3.10218 5 3.5ZM6.5 3C6.59889 3 6.69556 3.02932 6.77779 3.08427C6.86001 3.13921 6.9241 3.2173 6.96194 3.30866C6.99978 3.40002 7.00969 3.50055 6.99039 3.59755C6.9711 3.69454 6.92348 3.78363 6.85355 3.85355C6.78363 3.92348 6.69454 3.9711 6.59755 3.99039C6.50056 4.00969 6.40002 3.99978 6.30866 3.96194C6.2173 3.9241 6.13921 3.86001 6.08427 3.77779C6.02933 3.69556 6 3.59889 6 3.5C6 3.36739 6.05268 3.24022 6.14645 3.14645C6.24022 3.05268 6.36739 3 6.5 3ZM29 7.5C29 7.20333 28.912 6.91332 28.7472 6.66665C28.5824 6.41997 28.3481 6.22771 28.074 6.11418C27.7999 6.00065 27.4983 5.97094 27.2074 6.02882C26.9164 6.0867 26.6491 6.22956 26.4393 6.43934C26.2296 6.64912 26.0867 6.91639 26.0288 7.20737C25.9709 7.49834 26.0007 7.79994 26.1142 8.07403C26.2277 8.34811 26.42 8.58238 26.6666 8.74721C26.9133 8.91203 27.2033 9 27.5 9C27.8978 9 28.2794 8.84197 28.5607 8.56066C28.842 8.27936 29 7.89783 29 7.5ZM27 7.5C27 7.40111 27.0293 7.30444 27.0843 7.22222C27.1392 7.13999 27.2173 7.0759 27.3087 7.03806C27.4 7.00022 27.5006 6.99032 27.5975 7.00961C27.6945 7.0289 27.7836 7.07652 27.8536 7.14645C27.9235 7.21637 27.9711 7.30546 27.9904 7.40246C28.0097 7.49945 27.9998 7.59998 27.9619 7.69134C27.9241 7.78271 27.86 7.86079 27.7778 7.91574C27.6956 7.97068 27.5989 8 27.5 8C27.3674 8 27.2402 7.94732 27.1465 7.85355C27.0527 7.75979 27 7.63261 27 7.5ZM20 13.5C20 13.2033 19.912 12.9133 19.7472 12.6666C19.5824 12.42 19.3481 12.2277 19.074 12.1142C18.7999 12.0007 18.4983 11.9709 18.2074 12.0288C17.9164 12.0867 17.6491 12.2296 17.4393 12.4393C17.2296 12.6491 17.0867 12.9164 17.0288 13.2074C16.9709 13.4983 17.0007 13.7999 17.1142 14.074C17.2277 14.3481 17.42 14.5824 17.6666 14.7472C17.9133 14.912 18.2033 15 18.5 15C18.8978 15 19.2794 14.842 19.5607 14.5607C19.842 14.2794 20 13.8978 20 13.5ZM18.5 14C18.4011 14 18.3044 13.9707 18.2222 13.9157C18.14 13.8608 18.0759 13.7827 18.0381 13.6913C18.0002 13.6 17.9903 13.4994 18.0096 13.4025C18.0289 13.3055 18.0765 13.2164 18.1464 13.1464C18.2164 13.0765 18.3055 13.0289 18.4025 13.0096C18.4994 12.9903 18.6 13.0002 18.6913 13.0381C18.7827 13.0759 18.8608 13.14 18.9157 13.2222C18.9707 13.3044 19 13.4011 19 13.5C19 13.6326 18.9473 13.7598 18.8536 13.8536C18.7598 13.9473 18.6326 14 18.5 14ZM10.5 11.5C9.90666 11.5 9.32664 11.6759 8.83329 12.0056C8.33994 12.3352 7.95543 12.8038 7.72836 13.352C7.5013 13.9001 7.44189 14.5033 7.55765 15.0853C7.6734 15.6672 7.95912 16.2018 8.37868 16.6213C8.79824 17.0409 9.33279 17.3266 9.91473 17.4424C10.4967 17.5581 11.0999 17.4987 11.6481 17.2716C12.1962 17.0446 12.6648 16.6601 12.9944 16.1667C13.3241 15.6734 13.5 15.0933 13.5 14.5C13.4992 13.7046 13.1829 12.942 12.6204 12.3796C12.058 11.8171 11.2954 11.5008 10.5 11.5ZM10.5 16.5C10.1044 16.5 9.71776 16.3827 9.38886 16.1629C9.05996 15.9432 8.80362 15.6308 8.65224 15.2654C8.50087 14.8999 8.46126 14.4978 8.53843 14.1098C8.6156 13.7219 8.80608 13.3655 9.08579 13.0858C9.36549 12.8061 9.72186 12.6156 10.1098 12.5384C10.4978 12.4613 10.8999 12.5009 11.2654 12.6522C11.6308 12.8036 11.9432 13.06 12.1629 13.3889C12.3827 13.7178 12.5 14.1044 12.5 14.5C12.5 15.0304 12.2893 15.5391 11.9142 15.9142C11.5391 16.2893 11.0304 16.5 10.5 16.5ZM21 19C20.6044 19 20.2178 19.1173 19.8889 19.3371C19.56 19.5568 19.3036 19.8692 19.1522 20.2346C19.0009 20.6001 18.9613 21.0022 19.0384 21.3902C19.1156 21.7781 19.3061 22.1345 19.5858 22.4142C19.8655 22.6939 20.2219 22.8844 20.6098 22.9616C20.9978 23.0387 21.3999 22.9991 21.7654 22.8478C22.1308 22.6964 22.4432 22.44 22.6629 22.1111C22.8827 21.7822 23 21.3956 23 21C23 20.4696 22.7893 19.9609 22.4142 19.5858C22.0391 19.2107 21.5304 19 21 19ZM21 22C20.8022 22 20.6089 21.9414 20.4444 21.8315C20.28 21.7216 20.1518 21.5654 20.0761 21.3827C20.0004 21.2 19.9806 20.9989 20.0192 20.8049C20.0578 20.6109 20.153 20.4327 20.2929 20.2929C20.4327 20.153 20.6109 20.0578 20.8049 20.0192C20.9989 19.9806 21.2 20.0004 21.3827 20.0761C21.5654 20.1518 21.7216 20.28 21.8315 20.4444C21.9414 20.6089 22 20.8022 22 21C22 21.2652 21.8946 21.5196 21.7071 21.7071C21.5196 21.8946 21.2652 22 21 22Z" fill="#004290"/>
</svg>
