<svg width="30" height="30" viewBox="0 0 30 30" fill="none" xmlns="http://www.w3.org/2000/svg">
<g clip-path="url(#clip0_2905_11502)">
<path fill-rule="evenodd" clip-rule="evenodd" d="M0.585938 29.4141V0.585938C16.5073 0.585938 29.4141 13.4927 29.4141 29.4141H0.585938Z" stroke="#004290" stroke-miterlimit="22.9256" stroke-linecap="round" stroke-linejoin="round"/>
<path d="M0.995684 5.98018C2.02537 5.99825 3.05276 6.08375 4.07127 6.23611M9.15844 7.59613C17.7429 10.9707 23.8504 19.259 24.0206 29.0051M4.31121 1.12305L4.17738 2.13965M7.97209 1.85125L7.44129 3.83219M11.5066 3.05107L11.1142 3.99842M14.8542 4.70195L14.6054 5.13291M17.9578 6.77564L16.7093 8.40262M20.764 9.2367L20.039 9.96174M23.2251 12.043L22.4116 12.6672M25.2988 15.1465L23.5228 16.1719M26.9497 18.4942L26.0023 18.8866M28.1495 22.0287L27.159 22.294M28.8776 25.6895L26.8444 25.9572M12.0246 15.9045H14.0962V17.9761M13.8891 16.1117L0.902344 29.0984M10.6447 19.356C13.2515 21.9628 14.7444 25.4798 14.8087 29.1658M10.4456 22.903H10.446" stroke="#004290" stroke-miterlimit="22.9256" stroke-linecap="round" stroke-linejoin="round"/>
<path d="M6.65234 6.77051H6.65281" stroke="#004290" stroke-miterlimit="2.6131" stroke-linecap="round" stroke-linejoin="round"/>
</g>
<defs>
<clipPath id="clip0_2905_11502">
<rect width="30" height="30" fill="white"/>
</clipPath>
</defs>
</svg>
