<svg width="30" height="30" viewBox="0 0 30 30" fill="none" xmlns="http://www.w3.org/2000/svg">
<path d="M20.8653 21.4226H9.97983M20.8653 21.4226V21.4226C21.8433 21.4226 22.6361 22.2154 22.6361 23.1934V24.0635M20.8653 21.4226V16.7864M9.97983 21.4226V21.4226C9.11688 21.4226 8.41732 22.1222 8.41732 22.9851V24.0635M9.97983 21.4226V16.7864M8.41732 24.0635H22.6361M8.41732 24.0635V24.0635C7.6119 24.0635 6.95898 24.7164 6.95898 25.5218V29.3452H24.0424V25.4697C24.0424 24.6931 23.4128 24.0635 22.6361 24.0635V24.0635M9.97983 5.04931V5.04931C9.97983 2.81294 11.7928 1 14.0291 1H16.816C19.0523 1 20.8653 2.81294 20.8653 5.04931V5.04931M9.97983 5.04931H20.8653M9.97983 5.04931V10.9179M20.8653 5.04931V10.9179M9.97983 10.9179H20.8653M9.97983 10.9179V16.7864M20.8653 10.9179V16.7864M20.8653 16.7864H9.97983" stroke="#004290"/>
<path d="M27.0359 5.98713C27.2622 5.82887 27.3174 5.51713 27.1591 5.29083C27.0008 5.06454 26.6891 5.00939 26.4628 5.16766L27.0359 5.98713ZM26.7494 5.57739L26.4628 5.16766L23.442 7.28034L23.7285 7.69008L24.0151 8.09981L27.0359 5.98713L26.7494 5.57739Z" fill="#004290"/>
<path d="M4.25064 5.57739L7.27148 7.69008" stroke="#004290" stroke-linecap="round"/>
<path d="M27.9994 13.7065C28.2755 13.7065 28.4994 13.4827 28.4994 13.2065C28.4994 12.9304 28.2755 12.7065 27.9994 12.7065V13.7065ZM24.9785 13.2065V13.7065H27.9994V13.2065V12.7065H24.9785V13.2065Z" fill="#004290"/>
<path d="M6.02084 13.7065C6.29699 13.7065 6.52084 13.4827 6.52084 13.2065C6.52084 12.9304 6.29699 12.7065 6.02084 12.7065V13.7065ZM3 13.2065V13.7065H6.02084V13.2065V12.7065H3V13.2065Z" fill="#004290"/>
<path d="M26.4738 21.1354C26.7042 21.2876 27.0144 21.2242 27.1666 20.9938C27.3188 20.7634 27.2553 20.4532 27.0249 20.301L26.4738 21.1354ZM23.7285 18.7229L23.4529 19.1401L26.4738 21.1354L26.7494 20.7182L27.0249 20.301L24.0041 18.3057L23.7285 18.7229Z" fill="#004290"/>
<path d="M6.99591 18.3057C7.22633 18.1535 7.5365 18.2169 7.68869 18.4473C7.84088 18.6777 7.77747 18.9879 7.54706 19.1401L6.99591 18.3057ZM7.27148 18.7229L7.54706 19.1401L4.52621 21.1354L4.25064 20.7182L3.97507 20.301L6.99591 18.3057L7.27148 18.7229Z" fill="#004290"/>
</svg>
