<svg width="30" height="30" viewBox="0 0 30 30" fill="none" xmlns="http://www.w3.org/2000/svg">
<g clip-path="url(#clip0_2905_11589)">
<path d="M12.8652 6.54539C11.9561 5.72721 10.7289 5.36357 9.5016 5.49993C7.45614 5.77266 5.86523 7.40902 5.86523 9.36357V9.45448C5.91069 10.2272 6.31978 12.7272 9.27433 13.2272C9.54705 13.2727 9.77433 13.3181 10.0471 13.3181C11.0471 13.3181 12.0016 12.9545 12.7743 12.3181C13.6834 11.5908 14.1834 10.4999 14.1834 9.40902C14.1834 8.27266 13.7289 7.27266 12.8652 6.54539ZM12.1834 11.5908C11.4107 12.2272 10.4107 12.4999 9.41069 12.3181C7.18342 11.9545 6.81978 10.1363 6.77433 9.36357V9.31811C6.77433 7.81811 8.0016 6.54539 9.59251 6.36357C10.5471 6.22721 11.5471 6.54539 12.2743 7.18175C12.9107 7.77266 13.2743 8.54539 13.2743 9.36357C13.2743 10.2272 12.8652 11.0454 12.1834 11.5908Z" fill="#004290"/>
<path d="M15.8651 16.5L17.6378 14.8182C17.8196 14.6819 17.8196 14.4091 17.6832 14.2273L16.4105 12.4546C16.5923 12.091 16.7741 11.7273 16.8651 11.3637L19.1378 10.9546C19.3651 10.9091 19.5014 10.7273 19.5014 10.5V8.13641C19.5014 7.90914 19.3196 7.72732 19.1378 7.68186L16.8196 7.27277C16.6832 6.90914 16.5469 6.5455 16.3196 6.18186L17.5923 4.40914C17.7287 4.22732 17.6832 3.95459 17.5469 3.81823C17.5014 3.77277 15.8651 2.27277 15.7287 2.18186C15.5923 2.09095 15.456 2.0455 15.2741 2.09095C15.2287 2.09095 15.1378 2.13641 15.0923 2.18186L13.3651 3.27277C13.3196 3.31823 13.2741 3.31823 13.2287 3.36368C12.8651 3.18186 12.5014 3.0455 12.1378 2.95459L11.6832 0.818226C11.6378 0.590953 11.456 0.45459 11.2287 0.45459H8.72869C8.50142 0.45459 8.3196 0.636408 8.27415 0.863681L7.8196 2.95459C7.41051 3.09095 7.00142 3.22732 6.63778 3.40914C5.63778 2.77277 5.09233 2.45459 4.77415 2.27277L4.68324 2.18186V2.22732C4.41051 2.09095 4.36506 2.13641 4.22869 2.18186C4.22869 2.22732 4.13778 2.27277 4.13778 2.31823L2.41051 3.90914C2.22869 4.09095 2.22869 4.36368 2.41051 4.5455C2.54688 4.72732 2.95597 5.27277 3.27415 5.72732L3.63778 6.31823C3.45597 6.68186 3.27415 7.0455 3.18324 7.40914L0.910511 7.81823C0.683239 7.86368 0.546875 8.0455 0.546875 8.27277V10.6364C0.546875 10.8182 0.637784 10.9546 0.774148 11.0455C0.865057 11.091 0.910511 11.1364 1.00142 11.091L3.22869 11.4546C3.3196 11.7273 3.45597 12.091 3.72869 12.5455C3.09233 13.4546 2.72869 13.9546 2.54687 14.2728L2.45597 14.3637C2.3196 14.6364 2.3196 14.6819 2.41051 14.8182C2.45597 14.9091 2.50142 14.9546 2.59233 15C2.91051 15.2728 4.22869 16.5 4.3196 16.591C4.45597 16.6819 4.59233 16.7273 4.77415 16.6819C4.8196 16.6819 4.91051 16.6364 4.95597 16.591L6.8196 15.3637C7.18324 15.5455 7.54687 15.6819 7.91051 15.7728L8.36506 17.9091C8.41051 18.1364 8.59233 18.2728 8.8196 18.2728H11.3196C11.5469 18.2728 11.7287 18.1364 11.7741 17.9091L12.2287 15.7728C12.6378 15.6364 13.0469 15.5 13.4105 15.3182L15.3651 16.5455C15.456 16.6819 15.6832 16.6364 15.8651 16.5ZM13.1832 14.4091C12.7287 14.6819 12.2287 14.8637 11.6832 15C11.5014 15.0455 11.3651 15.1819 11.3651 15.3637L10.9105 17.3637H9.13778L8.72869 15.3182C8.68324 15.1364 8.54688 15 8.41051 14.9546C7.91051 14.8182 7.41051 14.6364 7.00142 14.4091C6.86506 14.3182 6.68324 14.3182 6.54688 14.4091L4.68324 15.591C4.41051 15.4546 4.00142 15.091 3.41051 14.5455C3.8196 13.9546 4.59233 12.8637 4.59233 12.8182C4.68324 12.6819 4.68324 12.4546 4.59233 12.3182C4.27415 11.7728 4.13778 11.4546 4.00142 11.091L3.95597 10.9091C3.91051 10.7728 3.77415 10.6364 3.59233 10.6364L1.41051 10.2728V8.68186L3.59233 8.27277C3.77415 8.22732 3.91051 8.09095 3.95597 7.95459C4.04688 7.63641 4.22869 7.13641 4.50142 6.68186C4.68324 6.5455 4.72869 6.40914 4.50142 6.09095C4.50142 6.0455 4.45597 6.0455 4.45597 6.00004C4.36506 5.81823 4.18324 5.63641 4.00142 5.31823L3.3196 4.31823C3.54688 4.09095 3.91051 3.77277 4.41051 3.27277L4.54688 3.18186C5.13778 3.5455 6.36506 4.31823 6.41051 4.36368C6.54688 4.45459 6.72869 4.45459 6.86506 4.36368C7.3196 4.13641 7.8196 3.90914 8.36506 3.77277C8.54687 3.72732 8.68324 3.59095 8.68324 3.40914L9.13778 1.36368H10.9105L11.3196 3.40914C11.3651 3.59095 11.5014 3.72732 11.6378 3.77277C12.1378 3.90914 12.5469 4.0455 13.0014 4.27277C13.1378 4.36368 13.3651 4.40914 13.5014 4.27277L15.3651 3.09095C15.5923 3.31823 16.0014 3.68186 16.5923 4.22732L15.3651 5.95459C15.2741 6.09095 15.2741 6.31823 15.3651 6.45459C15.6378 6.90914 15.8651 7.36368 16.0014 7.81823C16.0469 8.00004 16.1832 8.09095 16.3651 8.13641L18.5469 8.50004V10.091L16.3651 10.5C16.1832 10.5455 16.0469 10.6364 16.0014 10.8182C15.956 11.3637 15.7287 11.8182 15.456 12.2273C15.3651 12.3637 15.3651 12.591 15.456 12.7273L16.6832 14.4091L15.456 15.5455L13.6378 14.4091C13.5014 14.3637 13.3196 14.3182 13.1832 14.4091ZM25.5923 21.5455C25.2741 19.9546 23.8196 18.7728 22.2287 18.7728C20.3196 18.7728 18.7741 20.3182 18.7741 22.2273V22.2728C18.7741 23.3182 19.2287 24.2273 20.0469 24.9091C20.6832 25.4091 21.456 25.6819 22.2287 25.6819C22.8651 25.6819 23.456 25.5 24.0469 25.1819C25.2741 24.4546 25.8651 23 25.5923 21.5455ZM23.5469 24.4091C22.8196 24.8637 21.6378 25.0455 20.6378 24.2273C20.0469 23.7273 19.7287 23.0455 19.7287 22.2728V22.2273C19.7287 20.8182 20.8651 19.6819 22.2741 19.6819C23.456 19.6819 24.5014 20.5455 24.7741 21.6819C24.956 23.0455 24.2741 23.9546 23.5469 24.4091Z" fill="#004290"/>
<path d="M29.4551 21.2273C29.4551 21 29.3187 20.8182 29.0914 20.7727L27.4096 20.4545C27.3187 20.1818 27.2278 19.9091 27.0914 19.6818L28.0005 18.2727C28.1369 18.0909 28.0914 17.8636 27.9551 17.6818C27.2733 17.0454 26.9096 16.6364 26.6824 16.4545C26.6824 16.4091 26.6369 16.3636 26.5914 16.3636C26.3642 16.1818 26.3187 16.1818 26.1824 16.2273C26.0914 16.2273 26.046 16.2727 26.0005 16.3182C25.7733 16.4545 25.1369 16.9091 24.7278 17.1818L24.6824 17.2273C24.4551 17.0909 24.2278 17 23.9551 16.9545L23.6369 15.2727C23.5914 15.0454 23.4096 14.9091 23.1824 14.9091H21.2733C21.046 14.9091 20.8642 15.0909 20.8187 15.3182L20.5005 16.9545C20.2278 17.0454 19.9551 17.1364 19.7278 17.2727C19.3187 17 18.4096 16.4091 18.3187 16.3182C18.0914 16.1818 17.8187 16.2273 17.6824 16.4091L16.9096 17.2727L16.8187 17.3636L16.7278 17.4545L16.6824 17.5L16.6369 17.5454L16.3642 17.8182C16.2278 17.9545 16.1824 18.2273 16.3187 18.4091C16.3187 18.4545 16.9551 19.3636 17.2733 19.8182C17.1369 20.0909 17.046 20.3636 16.9551 20.6364L15.3187 20.9091C15.0914 20.9545 14.9551 21.1364 14.9551 21.3636V23.2727C15.0005 23.5454 15.046 23.5909 15.1824 23.6818C15.2278 23.7273 15.3187 23.7273 15.4096 23.7273L17.0005 24C17.0914 24.2273 17.1824 24.4545 17.3187 24.7727C17.0914 25.0909 16.7278 25.6364 16.546 25.9545L16.4096 26.1818C16.2733 26.4091 16.3187 26.6818 16.546 26.8182L17.8642 28.0909C18.0005 28.1818 18.1369 28.2273 18.3187 28.2273C18.3642 28.2273 18.4551 28.1818 18.5005 28.1364L19.8642 27.1818C20.0914 27.2727 20.3187 27.4091 20.5914 27.4545L20.9096 29.1364C20.9551 29.3636 21.1369 29.5 21.3642 29.5H23.1824C23.4096 29.5 23.5914 29.3636 23.6369 29.1364L23.9551 27.4545C24.2278 27.3636 24.5005 27.2727 24.7278 27.1364L26.1369 28.0909C26.3187 28.2273 26.546 28.1818 26.7278 28.0454L28.046 26.6818C28.1824 26.5454 28.2278 26.2727 28.0914 26.0909L27.1369 24.6818C27.2733 24.4091 27.3642 24.1818 27.4551 23.8636L29.0914 23.5454C29.3187 23.5 29.4551 23.3182 29.4551 23.0909V21.2273ZM27.0005 23.0909C26.8187 23.1364 26.6824 23.2727 26.6369 23.4091C26.546 23.8182 26.3642 24.1818 26.1824 24.5C26.0914 24.6364 26.0914 24.8182 26.1824 25L27.0914 26.3182L26.2733 27.1364L24.9551 26.2273C24.8187 26.1364 24.6369 26.1364 24.4551 26.2273C24.1369 26.4091 23.7278 26.5909 23.3642 26.6818C23.1824 26.7273 23.0914 26.8636 23.046 27.0454L22.7733 28.6364H21.6369L21.3187 27.0909C21.2733 26.9091 21.1369 26.7727 21.0005 26.7273C20.6369 26.6364 20.2733 26.5 19.9551 26.3182C19.8187 26.2273 19.6369 26.2273 19.4551 26.3636L18.1369 27.2727L17.3187 26.4545C17.6369 26 18.1824 25.1818 18.1824 25.1364C18.2733 25 18.2733 24.8182 18.1824 24.6364C17.9551 24.2273 17.8642 23.9545 17.7733 23.6818L17.7278 23.5454C17.7278 23.3182 17.5914 23.1818 17.4096 23.1818L15.8642 22.9091V21.7727L17.4096 21.4545C17.5914 21.4091 17.7278 21.2727 17.7733 21.0909C17.8187 20.8636 18.0005 20.4091 18.1824 20.0454C18.1824 20 18.2278 20 18.2278 19.9545C18.2733 19.8182 18.3187 19.7727 18.1824 19.5C18.1824 19.4545 18.1369 19.4545 18.0914 19.4091C17.9551 19.1818 17.7278 18.8182 17.2733 18.1818L17.3187 18.1364L17.3642 18.0909L18.1369 17.3182C18.4096 17.5454 18.8642 17.8182 19.4551 18.2273C19.5914 18.3182 19.7733 18.3182 19.9551 18.2273C20.2733 18.0454 20.6369 17.8636 21.046 17.7727C21.2278 17.7273 21.3187 17.5909 21.3642 17.4091L21.6824 15.8636H22.8187L23.1369 17.4091C23.1824 17.5909 23.2733 17.7273 23.4551 17.7727C23.8187 17.8636 24.0914 18 24.4096 18.1364C24.5914 18.3182 24.7733 18.2727 24.9551 18.1364C25.1369 18 25.0005 18.0909 25.0005 18.0909C25.0914 18.0454 25.1369 18 25.2278 17.9545C25.5005 17.7727 25.9551 17.4545 26.2278 17.2273L27.046 18.0454L26.1824 19.3636C26.0914 19.5 26.0914 19.6818 26.1824 19.8636C26.3642 20.2273 26.546 20.5909 26.6369 20.9545C26.6824 21.1364 26.8187 21.2273 27.0005 21.2727L28.546 21.5454V22.6818L27.0005 23.0909ZM12.7278 26.7273C8.6369 26.6364 5.22781 23.5909 4.59144 19.6364L5.31871 20.3636C5.50053 20.5454 5.77326 20.5454 5.95508 20.3636C6.1369 20.1818 6.1369 19.9091 5.95508 19.7273L4.31871 18.1364C4.1369 17.9545 3.86417 17.9545 3.68235 18.1364L2.09144 19.7727C1.90962 19.9545 1.90962 20.2273 2.09144 20.4091C2.27326 20.5909 2.54599 20.5909 2.72781 20.4091L3.6369 19.5C4.22781 24 8.00053 27.5454 12.7278 27.6818C13.0005 27.6818 13.1824 27.4545 13.1824 27.2273C13.1824 26.9091 13.0005 26.7273 12.7278 26.7273ZM29.0914 12.2727C28.9096 12.0909 28.6369 12.0909 28.4551 12.2727L27.5914 13.1364C27.7278 8.5909 24.546 4.54545 20.046 3.63636C19.8187 3.5909 19.546 3.77272 19.546 4.04545C19.5005 4.27272 19.6824 4.49999 19.9096 4.54545C23.9551 5.36363 26.8187 8.99999 26.7278 13.0909L25.8642 12.2727C25.6824 12.0909 25.4096 12.0909 25.2278 12.2727C25.046 12.4545 25.046 12.7273 25.2278 12.9091L26.8187 14.5C26.9096 14.5909 27.0005 14.6364 27.1369 14.6364C27.2733 14.6364 27.3642 14.5909 27.4551 14.5L29.046 12.9091C29.2733 12.7273 29.2733 12.4545 29.0914 12.2727Z" fill="#004290"/>
</g>
<defs>
<clipPath id="clip0_2905_11589">
<rect width="30" height="30" fill="white"/>
</clipPath>
</defs>
</svg>
