<svg width="30" height="30" viewBox="0 0 30 30" fill="none" xmlns="http://www.w3.org/2000/svg">
<g clip-path="url(#clip0_2904_11428)">
<path d="M29.0272 13.2929H27.8277C27.7516 12.7184 27.6371 12.1497 27.4849 11.5905L28.5891 11.1252C28.8286 11.0242 29.0143 10.8362 29.1123 10.5955C29.2103 10.3547 29.2086 10.0904 29.1077 9.85098L28.5372 8.49742C28.3289 8.00313 27.7572 7.77042 27.2631 7.97887L26.1579 8.44469C25.8908 7.99155 25.5966 7.55501 25.2767 7.13748L26.126 6.28826C26.5051 5.90901 26.5051 5.29197 26.1259 4.91266L25.0873 3.87411C24.9036 3.69033 24.6593 3.58914 24.3995 3.58914C24.1396 3.58914 23.8953 3.69033 23.7116 3.87405L22.8624 4.72321C22.4025 4.37101 21.9195 4.04995 21.4168 3.76217L21.869 2.65101C22.0712 2.15421 21.8314 1.58557 21.3347 1.38343L19.9743 0.829756C19.4776 0.627622 18.9088 0.867225 18.7066 1.36403L18.2548 2.47425C17.7455 2.34227 17.2287 2.24147 16.7071 2.17239V0.972735C16.7071 0.43636 16.2708 0 15.7344 0H14.2656C13.7292 0 13.2928 0.43636 13.2928 0.972735V2.17233C12.7183 2.24833 12.1496 2.36284 11.5905 2.51511L11.1251 1.41085C10.9168 0.916619 10.3453 0.683796 9.85092 0.892302L8.49753 1.46276C8.25805 1.56371 8.07228 1.75175 7.97431 1.99247C7.87634 2.23318 7.87804 2.49757 7.97893 2.73694L8.44475 3.84219C7.99161 4.1092 7.55507 4.40343 7.13754 4.72327L6.28844 3.87416C6.19832 3.78353 6.09112 3.71168 5.97304 3.66276C5.85496 3.61385 5.72836 3.58884 5.60055 3.5892C5.47276 3.58885 5.34618 3.61385 5.22812 3.66276C5.11007 3.71166 5.00288 3.7835 4.91278 3.87411L3.87405 4.91272C3.49485 5.29197 3.49485 5.90907 3.87405 6.28832L4.72327 7.13754C4.37107 7.59748 4.04998 8.08043 3.76217 8.58317L2.65113 8.13097C2.15409 7.92866 1.58557 8.1685 1.38349 8.66524L0.829815 10.0256C0.627622 10.5224 0.867284 11.0911 1.36409 11.2933L2.47425 11.7451C2.34226 12.2544 2.24145 12.7713 2.17239 13.2928H0.972735C0.43636 13.2929 0 13.7292 0 14.2656V15.7344C0 16.2708 0.436418 16.7071 0.972793 16.7071H2.17233C2.24837 17.2816 2.36288 17.8503 2.51511 18.4095L1.41091 18.8748C1.17142 18.9758 0.985653 19.1638 0.887684 19.4045C0.789715 19.6453 0.79141 19.9096 0.892302 20.149L1.46276 21.5025C1.67109 21.9968 2.24277 22.2293 2.73694 22.0211L3.84213 21.5553C4.10917 22.0084 4.4034 22.4449 4.72321 22.8625L3.87405 23.7117C3.49485 24.0909 3.49485 24.708 3.87411 25.0873L4.91272 26.1258C5.09644 26.3096 5.34072 26.4108 5.60055 26.4108C5.86038 26.4108 6.10471 26.3096 6.28844 26.1259L7.1376 25.2767C7.59753 25.6289 8.08048 25.95 8.58323 26.2378L8.13097 27.3489C7.92889 27.8457 8.16855 28.4143 8.6653 28.6165L10.0258 29.1702C10.5227 29.3724 11.0913 29.1326 11.2934 28.6359L11.7452 27.5257C12.2545 27.6577 12.7713 27.7585 13.2929 27.8276V29.0272C13.2929 29.5636 13.7292 29.9999 14.2656 29.9999H15.7344C16.2708 29.9999 16.7072 29.5636 16.7072 29.0272V27.8276C17.2817 27.7516 17.8504 27.6371 18.4095 27.4848L18.875 28.589C18.9243 28.7069 18.9965 28.8139 19.0874 28.9037C19.1783 28.9935 19.2862 29.0644 19.4047 29.1122C19.5229 29.1607 19.6496 29.1853 19.7774 29.1845C19.9051 29.1837 20.0315 29.1575 20.1491 29.1076L21.5025 28.5371C21.742 28.4362 21.9278 28.2481 22.0257 28.0074C22.1237 27.7667 22.122 27.5023 22.0211 27.2629L21.5553 26.1577C22.0084 25.8907 22.445 25.5965 22.8625 25.2766L23.7116 26.1257C23.8017 26.2164 23.9089 26.2882 24.027 26.3371C24.1451 26.386 24.2717 26.411 24.3995 26.4107C24.5273 26.411 24.6539 26.386 24.7719 26.3371C24.89 26.2882 24.9972 26.2164 25.0873 26.1258L26.126 25.0872C26.5052 24.7079 26.5052 24.0908 26.126 23.7116L25.2768 22.8623C25.629 22.4024 25.9501 21.9195 26.2379 21.4167L27.349 21.8689C27.4672 21.9174 27.5939 21.942 27.7217 21.9412C27.8495 21.9404 27.9758 21.9143 28.0935 21.8643C28.2113 21.815 28.3183 21.7428 28.4081 21.6518C28.4979 21.5609 28.5687 21.4531 28.6166 21.3346L29.1702 19.9742C29.3724 19.4774 29.1328 18.9087 28.636 18.7065L27.5258 18.2547C27.6578 17.7454 27.7586 17.2286 27.8277 16.707H29.0273C29.5636 16.707 30.0001 16.2706 30.0001 15.7343V14.2654C30 13.7292 29.5636 13.2929 29.0272 13.2929ZM29.1232 15.7344C29.1232 15.7873 29.0802 15.8303 29.0272 15.8303H27.5173C27.3871 15.8302 27.2615 15.8782 27.1647 15.9653C27.0679 16.0523 27.0068 16.1721 26.9932 16.3015C26.9197 16.9834 26.7882 17.6577 26.6 18.3172C26.5642 18.4422 26.5759 18.5759 26.6328 18.6927C26.6897 18.8096 26.7878 18.9012 26.9082 18.9501L28.3052 19.5188C28.3543 19.5387 28.3779 19.5948 28.358 19.6438L27.8043 21.0042C27.7996 21.0159 27.7926 21.0266 27.7838 21.0356C27.7749 21.0445 27.7643 21.0516 27.7527 21.0565C27.7361 21.0635 27.7098 21.0693 27.6793 21.0569L26.2814 20.488C26.1611 20.4388 26.0268 20.4359 25.9044 20.4799C25.7821 20.5238 25.6803 20.6114 25.6187 20.7259C25.2688 21.3729 24.8608 21.9866 24.3996 22.5596C24.3178 22.6608 24.2764 22.7887 24.2834 22.9186C24.2903 23.0485 24.3452 23.1713 24.4373 23.2632L25.5058 24.3316C25.5432 24.369 25.5432 24.4299 25.5058 24.4673L24.4671 25.5059C24.4439 25.5291 24.4174 25.5339 24.3993 25.5339C24.3812 25.5339 24.3547 25.5291 24.3315 25.5059L23.2632 24.4376C23.1713 24.3454 23.0485 24.2905 22.9186 24.2835C22.7886 24.2766 22.6607 24.318 22.5595 24.3998C22.0254 24.8299 21.4558 25.2138 20.8567 25.5475C20.743 25.6105 20.6566 25.7133 20.6142 25.8362C20.5718 25.959 20.5763 26.0933 20.6269 26.213L21.2129 27.6037C21.2257 27.634 21.2202 27.6603 21.2134 27.677C21.2066 27.6938 21.1921 27.7165 21.1618 27.7293L19.8083 28.2997C19.7849 28.3096 19.7585 28.3098 19.7349 28.3002C19.7114 28.2906 19.6926 28.272 19.6827 28.2486L19.097 26.8591C19.0467 26.7392 18.9537 26.6421 18.8361 26.5866C18.7185 26.5312 18.5845 26.5212 18.4599 26.5586C17.7553 26.7691 17.0328 26.9146 16.3016 26.9932C16.1721 27.0068 16.0523 27.0679 15.9652 27.1648C15.8782 27.2616 15.8301 27.3872 15.8303 27.5174V29.0273C15.8303 29.0802 15.7872 29.1232 15.7343 29.1232H14.2654C14.24 29.1232 14.2156 29.113 14.1976 29.0951C14.1797 29.0771 14.1695 29.0527 14.1695 29.0273V27.5173C14.1697 27.3871 14.1216 27.2615 14.0346 27.1647C13.9475 27.0679 13.8277 27.0068 13.6983 26.9932C13.0165 26.9198 12.3422 26.7883 11.6828 26.6001C11.5579 26.5642 11.4241 26.5759 11.3072 26.6328C11.1903 26.6896 11.0986 26.7878 11.0498 26.9082L10.4811 28.3054C10.4764 28.317 10.4694 28.3276 10.4605 28.3366C10.4517 28.3456 10.4411 28.3527 10.4295 28.3576C10.4179 28.3625 10.4054 28.365 10.3928 28.3651C10.3802 28.3652 10.3678 28.3628 10.3561 28.358L8.99562 27.8043C8.97208 27.7947 8.95331 27.7762 8.94344 27.7528C8.93356 27.7293 8.93339 27.7029 8.94295 27.6794L9.512 26.2813C9.56098 26.161 9.56376 26.0268 9.51983 25.9045C9.4759 25.7822 9.38835 25.6805 9.27398 25.6188C8.62701 25.269 8.01324 24.8609 7.44027 24.3997C7.33907 24.318 7.21116 24.2766 7.08123 24.2835C6.9513 24.2905 6.82855 24.3453 6.73666 24.4374L5.66835 25.5059C5.64521 25.5291 5.61867 25.5339 5.60055 25.5339C5.58243 25.5339 5.55595 25.5291 5.53274 25.5059L4.49413 24.4673C4.47616 24.4493 4.46607 24.4249 4.46607 24.3995C4.46607 24.374 4.47616 24.3497 4.49413 24.3316L5.56232 23.2635C5.65456 23.1716 5.70948 23.0488 5.71649 22.9188C5.7235 22.7888 5.68209 22.6609 5.60026 22.5596C5.17015 22.0255 4.78615 21.4558 4.45239 20.8567C4.38938 20.7431 4.28655 20.6567 4.1637 20.6143C4.04085 20.5719 3.90666 20.5765 3.78695 20.6271L2.39633 21.2131C2.37289 21.223 2.34648 21.2231 2.32293 21.2136C2.29937 21.204 2.28059 21.1854 2.27071 21.162L1.70025 19.8085C1.68751 19.7782 1.69295 19.7519 1.69979 19.7351C1.70663 19.7183 1.72106 19.6956 1.7514 19.6828L3.14092 19.0972C3.26087 19.0469 3.35794 18.954 3.41341 18.8363C3.46888 18.7187 3.47882 18.5846 3.44131 18.4601C3.23084 17.7554 3.08537 17.0329 3.0067 16.3017C2.99309 16.1722 2.93196 16.0524 2.83514 15.9653C2.73833 15.8783 2.61268 15.8302 2.48249 15.8304H0.972793C0.947357 15.8303 0.922971 15.8202 0.904979 15.8022C0.886987 15.7843 0.876858 15.7599 0.876812 15.7344V14.2656C0.876812 14.2127 0.919834 14.1697 0.972735 14.1697H2.48272C2.61288 14.1698 2.73848 14.1218 2.83527 14.0347C2.93206 13.9477 2.99318 13.8279 3.00682 13.6985C3.08026 13.0166 3.2118 12.3423 3.39998 11.6828C3.43575 11.5578 3.42407 11.4241 3.36718 11.3073C3.31029 11.1904 3.21221 11.0988 3.09181 11.0499L1.69476 10.4812C1.6712 10.4716 1.65242 10.4531 1.64254 10.4296C1.63265 10.4062 1.63247 10.3798 1.64203 10.3562L2.19571 8.9958C2.20533 8.97225 2.2239 8.95348 2.24734 8.94361C2.27078 8.93373 2.29718 8.93356 2.32075 8.94313L3.71856 9.51201C3.83891 9.56121 3.97321 9.56414 4.09558 9.52021C4.21795 9.47628 4.31974 9.38861 4.38131 9.2741C4.73116 8.62714 5.1392 8.01339 5.60037 7.44045C5.68215 7.33923 5.72354 7.21132 5.71658 7.08138C5.70962 6.95144 5.65479 6.82868 5.56267 6.73678L4.49413 5.66835C4.47617 5.65036 4.46608 5.62598 4.46607 5.60056C4.46606 5.57514 4.47613 5.55075 4.49407 5.53274L5.5328 4.49413C5.55595 4.47092 5.58249 4.46607 5.60055 4.46607C5.61873 4.46607 5.64521 4.47092 5.66835 4.49413L6.73672 5.56244C6.82859 5.65461 6.95135 5.70948 7.0813 5.71646C7.21126 5.72343 7.33919 5.68201 7.44039 5.6002C7.97447 5.17012 8.5441 4.78618 9.14316 4.45251C9.25685 4.3895 9.34321 4.28667 9.38565 4.16382C9.42808 4.04096 9.42357 3.90675 9.373 3.78701L8.78694 2.39639C8.7742 2.36611 8.77963 2.3398 8.78647 2.32303C8.79331 2.30625 8.80775 2.28357 8.83809 2.27077L10.1915 1.70031C10.215 1.69047 10.2414 1.69033 10.2649 1.69992C10.2885 1.70951 10.3072 1.72804 10.3172 1.75146L10.9029 3.14097C10.9532 3.26088 11.0462 3.3579 11.1638 3.41338C11.2814 3.46885 11.4154 3.47884 11.54 3.44143C12.2446 3.23094 12.9671 3.08548 13.6983 3.00688C13.8278 2.99325 13.9476 2.93212 14.0347 2.83531C14.1217 2.73849 14.1698 2.61286 14.1696 2.48266V0.972794C14.1696 0.919893 14.2127 0.87687 14.2656 0.87687H15.7344C15.7873 0.87687 15.8304 0.919893 15.8304 0.972794V2.48278C15.8302 2.61295 15.8783 2.73856 15.9653 2.83536C16.0524 2.93215 16.1722 2.99326 16.3016 3.00688C16.9834 3.08028 17.6577 3.21177 18.3171 3.39993C18.442 3.4358 18.5758 3.42417 18.6927 3.36729C18.8096 3.3104 18.9013 3.21228 18.9501 3.09181L19.5188 1.6947C19.5284 1.67115 19.547 1.65238 19.5704 1.64251C19.5939 1.63264 19.6203 1.63247 19.6439 1.64203L21.0043 2.19571C21.0532 2.21565 21.0769 2.2717 21.0569 2.32069L20.4879 3.71873C20.4389 3.83908 20.4361 3.97328 20.48 4.09556C20.524 4.21784 20.6115 4.31959 20.7259 4.38125C21.3729 4.73111 21.9866 5.13914 22.5596 5.60031C22.6608 5.6821 22.7887 5.7235 22.9187 5.71654C23.0486 5.70957 23.1713 5.65474 23.2632 5.56261L24.3316 4.49419C24.3548 4.47098 24.3813 4.46613 24.3995 4.46613C24.4176 4.46613 24.444 4.47098 24.4673 4.49419L25.5059 5.53268C25.5433 5.57009 25.5433 5.63094 25.5059 5.66835L24.4376 6.73672C24.3454 6.82861 24.2906 6.95137 24.2836 7.08133C24.2766 7.21128 24.318 7.33921 24.3997 7.44045C24.8299 7.97458 25.2139 8.54426 25.5476 9.14334C25.6106 9.25701 25.7134 9.34335 25.8363 9.38575C25.9591 9.42815 26.0933 9.42361 26.213 9.373L27.6036 8.78694C27.6152 8.78203 27.6277 8.77946 27.6403 8.77938C27.6529 8.77929 27.6654 8.78169 27.677 8.78643C27.6887 8.79118 27.6993 8.79818 27.7083 8.80703C27.7173 8.81588 27.7244 8.82642 27.7293 8.83803L28.2997 10.1916C28.3125 10.2219 28.3071 10.2482 28.3002 10.265C28.2934 10.2817 28.2789 10.3044 28.2486 10.3172L26.8591 10.9029C26.7391 10.9532 26.6421 11.0461 26.5866 11.1637C26.5311 11.2814 26.5212 11.4154 26.5587 11.54C26.7692 12.2446 26.9146 12.9671 26.9933 13.6984C27.0069 13.8279 27.068 13.9477 27.1649 14.0347C27.2617 14.1218 27.3873 14.1699 27.5175 14.1697H29.0273C29.0802 14.1697 29.1233 14.2127 29.1233 14.2656V15.7344H29.1232Z" fill="#004290"/>
<path d="M15.0003 3.81421C12.7785 3.81421 10.63 4.46738 8.78685 5.70304C8.6905 5.76788 8.62382 5.86831 8.60144 5.98227C8.57906 6.09623 8.60282 6.21441 8.66749 6.31088C8.73217 6.40734 8.83247 6.4742 8.94639 6.49678C9.06032 6.51936 9.17854 6.49582 9.27512 6.43132C10.4564 5.63932 11.7739 5.10739 13.1557 4.85674V9.3376L12.4162 11.4312C11.3117 12.2332 10.5915 13.5337 10.5915 15C10.5915 15.2409 10.6117 15.4772 10.6491 15.7078L9.65928 17.7788L8.52264 18.9154C8.46133 18.9767 8.41958 19.0548 8.40267 19.1398C8.38576 19.2249 8.39445 19.313 8.42763 19.3931C8.46082 19.4732 8.51701 19.5417 8.58911 19.5899C8.66121 19.6381 8.74597 19.6638 8.83268 19.6638C8.89027 19.6638 8.94731 19.6525 9.00052 19.6305C9.05372 19.6084 9.10205 19.5761 9.14272 19.5353L10.3325 18.3456C10.3677 18.3104 10.3966 18.2695 10.418 18.2246L11.0371 16.9293C11.4826 17.8388 12.2258 18.5685 13.1433 18.9971L11.822 19.6287C11.7772 19.6501 11.7363 19.6791 11.7011 19.7142L8.45589 22.9594C7.95691 22.5482 7.49736 22.0914 7.08321 21.5948L7.81464 20.8634C7.89626 20.7811 7.94194 20.6697 7.94168 20.5538C7.94142 20.4379 7.89525 20.3267 7.81326 20.2448C7.73127 20.1628 7.62015 20.1166 7.50421 20.1164C7.38827 20.1161 7.27696 20.1618 7.19462 20.2434L6.54607 20.892C5.37781 19.2208 4.69138 17.1892 4.69138 14.9999C4.69138 12.1691 5.82036 9.52746 7.87041 7.56159C7.95335 7.48089 8.00102 7.37067 8.00302 7.25496C8.00503 7.13926 7.9612 7.02745 7.8811 6.94393C7.80101 6.8604 7.69113 6.81194 7.57545 6.8091C7.45976 6.80626 7.34764 6.84927 7.26354 6.92876C5.0393 9.06164 3.81445 11.9281 3.81445 15C3.81445 21.168 8.83245 26.1859 15.0003 26.1859C18.6061 26.1859 21.8183 24.4704 23.8652 21.8133C23.8748 21.8021 23.8837 21.7904 23.892 21.7785C25.3303 19.8963 26.1862 17.5464 26.1862 15C26.1862 8.8322 21.1682 3.81421 15.0003 3.81421ZM14.0075 9.55879C14.0241 9.51189 14.0325 9.46251 14.0325 9.41277V4.73626C14.3529 4.70628 14.6758 4.69102 15.0004 4.69102C15.3268 4.69102 15.6494 4.70698 15.9682 4.73679V9.41277C15.9682 9.46251 15.9767 9.51185 15.9932 9.55879L16.4434 10.8334C15.9793 10.6728 15.4916 10.5909 15.0004 10.5913C14.5089 10.5912 14.0209 10.6736 13.5567 10.8353L14.0075 9.55879ZM9.16301 23.4924L12.2679 20.3875L14.3959 19.3703C14.3979 19.3694 14.3998 19.3682 14.4018 19.3672C14.6001 19.3946 14.8001 19.4085 15.0003 19.4089C15.2197 19.4089 15.4352 19.3922 15.6462 19.3611C15.6518 19.3642 15.6573 19.3675 15.6631 19.3703L17.7911 20.3875L20.8721 23.4684C19.2048 24.6281 17.1807 25.3091 15.0003 25.3091C12.8349 25.3091 10.8237 24.6374 9.16301 23.4924ZM21.5767 22.9329L18.3581 19.7143C18.3229 19.6792 18.282 19.6502 18.2371 19.6288L16.8874 18.9837C17.8125 18.5427 18.5563 17.7952 18.9927 16.868L19.6411 18.2248C19.6626 18.2697 19.6915 18.3106 19.7267 18.3457L22.9443 21.5633C22.532 22.0614 22.0741 22.5199 21.5767 22.9329ZM23.4786 20.8576L20.3998 17.7788L19.3827 15.6508C19.3772 15.6396 19.3713 15.6286 19.3649 15.618C19.3934 15.4159 19.4091 15.2098 19.4091 15.0001C19.4092 14.5461 19.3391 14.0948 19.201 13.6623C19.1275 13.4317 18.8808 13.3043 18.6501 13.3778C18.4194 13.4514 18.2921 13.698 18.3657 13.9287C18.4762 14.2751 18.5324 14.6365 18.5323 15C18.5323 16.9476 16.9479 18.532 15.0003 18.532C13.0527 18.532 11.4683 16.9476 11.4683 15C11.4683 13.0525 13.0527 11.4681 15.0003 11.4681C15.7085 11.4681 16.3851 11.676 16.9612 12.0631C16.9645 12.0655 16.9677 12.0679 16.9711 12.0702C17.1613 12.199 17.3388 12.3458 17.5009 12.5086C17.5834 12.5887 17.6941 12.6332 17.8091 12.6325C17.9241 12.6317 18.0343 12.5858 18.1157 12.5046C18.1972 12.4235 18.2436 12.3135 18.2447 12.1985C18.2459 12.0835 18.2019 11.9727 18.1221 11.8898C17.9551 11.7225 17.7751 11.5687 17.5838 11.4297L16.8449 9.33766V4.85662C21.6523 5.72858 25.3094 9.94517 25.3094 15C25.3094 17.1742 24.6322 19.193 23.4786 20.8576Z" fill="#004290"/>
<path d="M15.0009 12.3447C13.5368 12.3447 12.3457 13.5358 12.3457 14.9999C12.3457 16.464 13.5368 17.655 15.0009 17.655C16.4649 17.655 17.656 16.464 17.656 14.9999C17.656 13.5358 16.4649 12.3447 15.0009 12.3447ZM15.0009 16.7782C14.0203 16.7782 13.2225 15.9805 13.2225 14.9999C13.2225 14.0193 14.0202 13.2215 15.0009 13.2215C15.9815 13.2215 16.7792 14.0193 16.7792 14.9999C16.7792 15.9805 15.9815 16.7782 15.0009 16.7782Z" fill="#004290"/>
</g>
<defs>
<clipPath id="clip0_2904_11428">
<rect width="30" height="30" fill="white"/>
</clipPath>
</defs>
</svg>
