<svg width="30" height="30" viewBox="0 0 30 30" fill="none" xmlns="http://www.w3.org/2000/svg">
<g clip-path="url(#clip0_2904_11417)">
<path d="M4.07988 21.3703H3.07617C1.62012 21.3703 0.439453 20.1897 0.439453 18.7336V7.62651C0.439453 6.16987 1.62012 4.98979 3.07617 4.98979H4.07988M4.07988 4.98979V21.3703C4.07988 21.873 4.48711 22.2802 4.98984 22.2802C5.49258 22.2802 5.8998 21.873 5.8998 21.3703V16.8673M4.07988 4.98979C4.07988 4.48706 4.48711 4.07983 4.98984 4.07983C5.24121 4.07983 5.46855 4.18179 5.6332 4.34644C5.79785 4.51108 5.8998 4.73843 5.8998 4.98979M20.4311 4.98979H21.4635C22.9196 4.98979 24.1003 6.16987 24.1003 7.62651V18.7336C24.1003 20.1897 22.9196 21.3703 21.4635 21.3703H20.4311M18.6112 21.3703H5.8998M11.2981 4.98979H5.8998M5.8998 4.98979V14.9525M18.6112 4.98979H13.2129" stroke="#004290" stroke-miterlimit="10" stroke-linecap="round" stroke-linejoin="round"/>
<path d="M20.4313 11.4076V21.3703C20.4313 21.8731 20.024 22.2803 19.5213 22.2803C19.0192 22.2803 18.6113 21.8731 18.6113 21.3703V4.98979C18.6113 4.48706 19.0192 4.07983 19.5213 4.07983C19.7727 4.07983 20 4.18179 20.1647 4.34644C20.3293 4.51108 20.4313 4.73843 20.4313 4.98979V9.49214M7.71994 7.71974H16.8203M7.71994 10.4499H9.52557M15.0002 15.91H16.8203M7.71994 18.64H16.8203M24.1005 10.4498H25.9206V15.91H24.1005V10.4498ZM25.9206 12.2699H29.5607V14.0899H25.9206V12.2699ZM2.25977 24.1003H22.2804V25.9203H2.25977V24.1003Z" stroke="#004290" stroke-miterlimit="10" stroke-linecap="round" stroke-linejoin="round"/>
<path d="M14.091 10.4499H16.821M10.4508 15.91H7.7207M7.7207 21.3702H9.54074V24.1003H7.7207V21.3702ZM15.001 21.3702H16.821V24.1003H15.001V21.3702ZM12.2564 9.53979L9.52633 14.09H12.2564V16.8201L14.9866 12.2699H12.2564V9.53979Z" stroke="#004290" stroke-miterlimit="10" stroke-linecap="round" stroke-linejoin="round"/>
</g>
<defs>
<clipPath id="clip0_2904_11417">
<rect width="30" height="30" fill="white"/>
</clipPath>
</defs>
</svg>
