<svg width="30" height="30" viewBox="0 0 30 30" fill="none" xmlns="http://www.w3.org/2000/svg">
<path d="M3.45703 6.09656H6.26953C6.39385 6.09656 6.51308 6.04718 6.60099 5.95927C6.6889 5.87136 6.73828 5.75213 6.73828 5.62781C6.73828 5.50349 6.6889 5.38426 6.60099 5.29636C6.51308 5.20845 6.39385 5.15906 6.26953 5.15906H3.45703C3.33271 5.15906 3.21348 5.20845 3.12558 5.29636C3.03767 5.38426 2.98828 5.50349 2.98828 5.62781C2.98828 5.75213 3.03767 5.87136 3.12558 5.95927C3.21348 6.04718 3.33271 6.09656 3.45703 6.09656ZM6.26953 7.78406H4.86328C4.73896 7.78406 4.61973 7.83345 4.53183 7.92136C4.44392 8.00926 4.39453 8.12849 4.39453 8.25281C4.39453 8.37713 4.44392 8.49636 4.53183 8.58427C4.61973 8.67218 4.73896 8.72156 4.86328 8.72156H6.26953C6.39385 8.72156 6.51308 8.67218 6.60099 8.58427C6.6889 8.49636 6.73828 8.37713 6.73828 8.25281C6.73828 8.12849 6.6889 8.00926 6.60099 7.92136C6.51308 7.83345 6.39385 7.78406 6.26953 7.78406ZM3.45703 11.347H6.26953C6.39385 11.347 6.51308 11.2976 6.60099 11.2097C6.6889 11.1218 6.73828 11.0026 6.73828 10.8783C6.73828 10.754 6.6889 10.6347 6.60099 10.5468C6.51308 10.4589 6.39385 10.4095 6.26953 10.4095H3.45703C3.33271 10.4095 3.21348 10.4589 3.12558 10.5468C3.03767 10.6347 2.98828 10.754 2.98828 10.8783C2.98828 11.0026 3.03767 11.1218 3.12558 11.2097C3.21348 11.2976 3.33271 11.347 3.45703 11.347ZM6.26953 13.0341H4.86328C4.73896 13.0341 4.61973 13.0834 4.53183 13.1714C4.44392 13.2593 4.39453 13.3785 4.39453 13.5028C4.39453 13.6271 4.44392 13.7464 4.53183 13.8343C4.61973 13.9222 4.73896 13.9716 4.86328 13.9716H6.26953C6.39385 13.9716 6.51308 13.9222 6.60099 13.8343C6.6889 13.7464 6.73828 13.6271 6.73828 13.5028C6.73828 13.3785 6.6889 13.2593 6.60099 13.1714C6.51308 13.0834 6.39385 13.0341 6.26953 13.0341ZM6.73828 16.1278C6.73828 16.0035 6.6889 15.8843 6.60099 15.7964C6.51308 15.7084 6.39385 15.6591 6.26953 15.6591H3.45703C3.33271 15.6591 3.21348 15.7084 3.12558 15.7964C3.03767 15.8843 2.98828 16.0035 2.98828 16.1278C2.98828 16.2521 3.03767 16.3714 3.12558 16.4593C3.21348 16.5472 3.33271 16.5966 3.45703 16.5966H6.26953C6.39385 16.5966 6.51308 16.5472 6.60099 16.4593C6.6889 16.3714 6.73828 16.2521 6.73828 16.1278ZM14.7094 18.9937V5.15625C14.7074 4.28662 14.3611 3.45317 13.7461 2.83824C13.1312 2.22332 12.2978 1.87698 11.4281 1.875C10.5582 1.87599 9.72417 2.22201 9.10903 2.83715C8.49389 3.45229 8.14787 4.28631 8.14687 5.15625V18.9937C7.55819 19.475 7.08438 20.0816 6.75999 20.7693C6.43561 21.457 6.26885 22.2084 6.27188 22.9688C6.27146 23.8377 6.49064 24.6926 6.90905 25.4541C7.32747 26.2157 7.93155 26.8591 8.6652 27.3247C9.39884 27.7903 10.2383 28.063 11.1055 28.1174C11.9727 28.1717 12.8396 28.0061 13.6256 27.6358C14.4117 27.2654 15.0914 26.7025 15.6017 25.9992C16.1119 25.2958 16.4362 24.475 16.5443 23.6128C16.6524 22.7506 16.5409 21.8751 16.2201 21.0676C15.8993 20.2601 15.3796 19.5467 14.7094 18.9937ZM11.4281 27.1875C10.3095 27.1866 9.23696 26.7419 8.44598 25.9509C7.655 25.1599 7.21024 24.0874 7.20937 22.9688C7.20625 22.3144 7.35692 21.6685 7.64922 21.0831C7.94152 20.4977 8.36729 19.9891 8.89219 19.5984C8.95179 19.5558 9.00033 19.4995 9.03376 19.4342C9.06719 19.369 9.08455 19.2967 9.08437 19.2234V5.15625C9.08462 4.53472 9.33163 3.93873 9.77112 3.49924C10.2106 3.05976 10.8066 2.81275 11.4281 2.8125C12.049 2.81485 12.6438 3.06253 13.0828 3.50156C13.5218 3.94059 13.7695 4.53537 13.7719 5.15625V19.2234C13.7708 19.2964 13.7873 19.3685 13.8199 19.4338C13.8526 19.499 13.9004 19.5555 13.9594 19.5984C14.4849 19.9889 14.9114 20.4972 15.2045 21.0826C15.4976 21.668 15.6491 22.3141 15.6469 22.9688C15.6451 24.0871 15.2001 25.1591 14.4093 25.9499C13.6185 26.7407 12.5465 27.1858 11.4281 27.1875Z" fill="#004290"/>
<path d="M11.8965 20.6719V5.625C11.8965 5.50068 11.8471 5.38145 11.7592 5.29354C11.6713 5.20564 11.5521 5.15625 11.4277 5.15625C11.3034 5.15625 11.1842 5.20564 11.0963 5.29354C11.0084 5.38145 10.959 5.50068 10.959 5.625V20.6719C10.3899 20.788 9.88423 21.1114 9.53999 21.5792C9.19575 22.047 9.03748 22.626 9.09586 23.2038C9.15424 23.7817 9.4251 24.3173 9.85595 24.7068C10.2868 25.0964 10.8469 25.312 11.4277 25.312C12.0086 25.312 12.5687 25.0964 12.9995 24.7068C13.4304 24.3173 13.7012 23.7817 13.7596 23.2038C13.818 22.626 13.6597 22.047 13.3155 21.5792C12.9713 21.1114 12.4656 20.788 11.8965 20.6719ZM18.706 9.96094H18.7046C18.5803 9.96069 18.461 10.0098 18.3729 10.0976C18.2848 10.1853 18.2352 10.3044 18.2349 10.4287C18.2347 10.5531 18.2838 10.6724 18.3716 10.7605C18.4593 10.8486 18.5784 10.8982 18.7027 10.8984C19.4293 10.8991 20.1259 11.188 20.6396 11.7018C21.1533 12.2156 21.4421 12.9122 21.4426 13.6388C21.4431 13.7627 21.4927 13.8815 21.5805 13.969C21.6684 14.0565 21.7873 14.1056 21.9113 14.1056H21.9132C22.0374 14.1051 22.1564 14.0553 22.2439 13.9672C22.3315 13.879 22.3805 13.7597 22.3801 13.6355C22.3786 12.6615 21.991 11.7278 21.3024 11.039C20.6137 10.3502 19.68 9.96255 18.706 9.96094Z" fill="#004290"/>
<path d="M18.707 7.5376C18.5827 7.5376 18.4635 7.58698 18.3756 7.67489C18.2877 7.7628 18.2383 7.88203 18.2383 8.00635C18.2383 8.13067 18.2877 8.2499 18.3756 8.3378C18.4635 8.42571 18.5827 8.4751 18.707 8.4751C20.0747 8.47721 21.3858 9.02149 22.3529 9.98865C23.3199 10.9558 23.8641 12.2669 23.8661 13.6346C23.8661 13.7589 23.9155 13.8782 24.0034 13.9661C24.0913 14.054 24.2105 14.1034 24.3348 14.1034C24.4592 14.1034 24.5784 14.054 24.6663 13.9661C24.7542 13.8782 24.8036 13.7589 24.8036 13.6346C24.8016 12.0182 24.1586 10.4686 23.0156 9.32557C21.8726 8.18258 20.3235 7.53958 18.707 7.5376Z" fill="#004290"/>
<path d="M24.6744 7.66821C23.9359 6.92616 23.0579 6.33755 22.091 5.93627C21.1241 5.53499 20.0873 5.32897 19.0405 5.33008H19.0395C18.9152 5.32996 18.7959 5.37922 18.7079 5.46704C18.6199 5.55486 18.5704 5.67404 18.5703 5.79836C18.5702 5.92268 18.6195 6.04196 18.7073 6.12996C18.7951 6.21795 18.9143 6.26746 19.0386 6.26758C20.904 6.26994 22.6923 7.01197 24.0113 8.33094C25.3304 9.64991 26.0725 11.4382 26.075 13.3035C26.0752 13.4277 26.1247 13.5467 26.2126 13.6344C26.3005 13.7221 26.4196 13.7713 26.5437 13.7713C26.6053 13.7713 26.6667 13.7591 26.7236 13.7355C26.7804 13.7119 26.8321 13.6773 26.8755 13.6337C26.919 13.5901 26.9535 13.5384 26.977 13.4815C27.0005 13.4246 27.0126 13.3637 27.0125 13.3021C27.0137 12.2552 26.8077 11.2183 26.4064 10.2513C26.0052 9.28429 25.4165 8.40671 24.6744 7.66821Z" fill="#004290"/>
<path d="M18.707 15.0422C19.4837 15.0422 20.1133 14.4126 20.1133 13.636C20.1133 12.8593 19.4837 12.2297 18.707 12.2297C17.9304 12.2297 17.3008 12.8593 17.3008 13.636C17.3008 14.4126 17.9304 15.0422 18.707 15.0422Z" fill="#004290"/>
</svg>
