<svg width="71" height="70" viewBox="0 0 71 70" fill="none" xmlns="http://www.w3.org/2000/svg">
<path d="M61.9683 28.6231C61.4441 28.0859 61.0508 27.4351 60.819 26.7213C60.5871 26.0074 60.5229 25.2498 60.6313 24.5071L60.8273 23.1211C61.4152 18.9701 58.6433 15.1481 54.5133 14.4271L53.1343 14.1821C52.3952 14.0549 51.6953 13.7596 51.0884 13.319C50.4816 12.8785 49.9841 12.3044 49.6343 11.6411L48.9762 10.4091C47.0092 6.70609 42.5222 5.24309 38.7562 7.09109L37.4963 7.70009C36.8234 8.03168 36.0834 8.20414 35.3333 8.20414C34.5831 8.20414 33.8431 8.03168 33.1702 7.70009L31.9172 7.08409C30.1175 6.19501 28.0416 6.04433 26.1323 6.66419C24.223 7.28405 22.6315 8.62539 21.6973 10.4021L21.0393 11.6341C20.6897 12.2976 20.1923 12.8719 19.5854 13.3125C18.9785 13.7531 18.2784 14.0482 17.5393 14.1751L16.1603 14.4201C12.0303 15.1411 9.25825 18.9631 9.84625 23.1141L10.0423 24.5001C10.2593 26.0191 9.76925 27.5171 8.70525 28.6161L7.73225 29.6171C6.32876 31.0532 5.54297 32.9815 5.54297 34.9896C5.54297 36.9976 6.32876 38.926 7.73225 40.3621L8.70525 41.3701C9.22939 41.9073 9.62267 42.5581 9.85454 43.2719C10.0864 43.9857 10.1506 44.7434 10.0423 45.4861L9.84625 46.8721C9.55587 48.8586 10.0537 50.88 11.2335 52.5044C12.4132 54.1288 14.1813 55.2276 16.1603 55.5661L17.5393 55.8111C19.0443 56.0771 20.3253 57.0011 21.0393 58.3521L21.6973 59.5841C23.0903 62.2021 25.7362 63.7001 28.5082 63.7001C29.6493 63.7001 30.8182 63.4411 31.9172 62.9021L33.1702 62.3001C33.8431 61.9685 34.5831 61.796 35.3333 61.796C36.0834 61.796 36.8234 61.9685 37.4963 62.3001L38.7492 62.9161C42.5153 64.7571 47.0023 63.3011 48.9693 59.5981L49.6272 58.3661C49.9768 57.7026 50.4742 57.1283 51.0811 56.6877C51.688 56.2471 52.3881 55.9519 53.1273 55.8251L54.5063 55.5801C58.6363 54.8591 61.4083 51.0371 60.8203 46.8861L60.6242 45.5001C60.4072 43.9811 60.8973 42.4831 61.9613 41.3841L62.9343 40.3831C65.8533 37.3731 65.8533 32.6481 62.9343 29.6381L61.9683 28.6231ZM60.9253 38.4301L59.9523 39.4311C59.1317 40.2745 58.5157 41.2949 58.1516 42.4138C57.7875 43.5328 57.6851 44.7204 57.8522 45.8851L58.0482 47.2711C58.2336 48.5377 57.9164 49.8266 57.1643 50.8624C56.4123 51.8983 55.285 52.5991 54.0233 52.8151L52.6443 53.0601C50.2783 53.4731 48.2762 54.9291 47.1562 57.0501L46.4982 58.2821C45.9031 59.4156 44.8886 60.2718 43.6711 60.668C42.4537 61.0643 41.1296 60.9692 39.9813 60.4031L38.7282 59.7871C37.6725 59.2656 36.5108 58.9943 35.3333 58.9943C34.1557 58.9943 32.994 59.2656 31.9383 59.7871L30.6852 60.4031C29.5372 60.9708 28.2125 61.0668 26.9946 60.6704C25.7767 60.274 24.7622 59.4168 24.1683 58.2821L23.5103 57.0501C22.9621 56.0092 22.1822 55.1081 21.2307 54.4163C20.2791 53.7245 19.1815 53.2605 18.0223 53.0601L16.6433 52.8151C15.3815 52.5991 14.2542 51.8983 13.5022 50.8624C12.7501 49.8266 12.4329 48.5377 12.6183 47.2711L12.8143 45.8851C13.1503 43.5051 12.3873 41.1531 10.7143 39.4311L9.74125 38.4231C8.84604 37.5072 8.34482 36.2773 8.34482 34.9966C8.34482 33.7159 8.84604 32.486 9.74125 31.5701L10.7143 30.5691C12.3803 28.8471 13.1503 26.4881 12.8143 24.1151L12.6183 22.7291C12.4329 21.4625 12.7501 20.1736 13.5022 19.1377C14.2542 18.1019 15.3815 17.4011 16.6433 17.1851L18.0223 16.9401C20.3883 16.5271 22.3903 15.0711 23.5103 12.9501L24.1683 11.7181C24.5836 10.9264 25.2075 10.2634 25.9724 9.80076C26.7374 9.33809 27.6143 9.09338 28.5082 9.09309C29.2362 9.09309 29.9783 9.25409 30.6852 9.59709L31.9383 10.2131C34.0942 11.2701 36.5722 11.2701 38.7282 10.2131L39.9813 9.59709C41.1293 9.02934 42.454 8.93339 43.6719 9.32977C44.8898 9.72614 45.9043 10.5834 46.4982 11.7181L47.1562 12.9501C48.2832 15.0711 50.2853 16.5271 52.6443 16.9401L54.0233 17.1851C56.6553 17.6471 58.4263 20.0831 58.0482 22.7291L57.8522 24.1151C57.5163 26.4951 58.2793 28.8471 59.9523 30.5691L60.9253 31.5771C61.8205 32.493 62.3217 33.7229 62.3217 35.0036C62.3217 36.2843 61.8205 37.5142 60.9253 38.4301Z" fill="white"/>
<path d="M46.4694 23.8631C45.9234 23.3171 45.0344 23.3171 44.4884 23.8631L24.1954 44.1561C23.9998 44.352 23.8665 44.6015 23.8123 44.873C23.7582 45.1445 23.7856 45.426 23.8912 45.682C23.9967 45.938 24.1756 46.157 24.4054 46.3115C24.6352 46.4659 24.9055 46.549 25.1824 46.5501C25.5394 46.5501 25.8964 46.4101 26.1694 46.1371L46.4624 25.8441C47.0154 25.2981 47.0154 24.4091 46.4694 23.8631ZM29.6414 31.2971C31.1674 31.2971 32.6864 30.7161 33.8484 29.5541C36.1654 27.2371 36.1654 23.4571 33.8484 21.1401C31.5314 18.8231 27.7514 18.8231 25.4344 21.1401C24.3074 22.2601 23.6914 23.7581 23.6914 25.3471C23.6914 26.9361 24.3074 28.4341 25.4344 29.5541C25.986 30.1077 26.6417 30.5468 27.3638 30.8459C28.0858 31.1451 28.8599 31.2984 29.6414 31.2971ZM27.4154 23.1211C28.0314 22.5051 28.8364 22.1971 29.6414 22.1971C30.4464 22.1971 31.2514 22.5051 31.8674 23.1211C32.4558 23.7125 32.786 24.5128 32.786 25.3471C32.786 26.1813 32.4558 26.9817 31.8674 27.5731C30.6354 28.7981 28.6404 28.7981 27.4154 27.5731C26.8204 26.9781 26.4914 26.1871 26.4914 25.3471C26.4914 24.5071 26.8204 23.7161 27.4154 23.1211ZM36.8164 40.4461C34.4994 42.7631 34.4994 46.5431 36.8164 48.8601C37.9784 50.0221 39.4974 50.6031 41.0234 50.6031C42.5494 50.6031 44.0684 50.0221 45.2304 48.8601C46.3574 47.7331 46.9734 46.2421 46.9734 44.6531C46.9734 43.0641 46.3574 41.5661 45.2304 40.4461C42.9134 38.1221 39.1404 38.1221 36.8164 40.4461ZM43.2494 46.8791C42.0244 48.1041 40.0224 48.1041 38.7974 46.8791C37.5724 45.6541 37.5724 43.6521 38.7974 42.4271C39.4134 41.8111 40.2184 41.5031 41.0234 41.5031C41.8284 41.5031 42.6334 41.8111 43.2494 42.4271C43.8444 43.0221 44.1734 43.8131 44.1734 44.6531C44.1734 45.4931 43.8444 46.2841 43.2494 46.8791Z" fill="white"/>
</svg>
