<svg width="70" height="70" viewBox="0 0 70 70" fill="none" xmlns="http://www.w3.org/2000/svg">
<g clip-path="url(#clip0_1905_21623)">
<path d="M63.7616 12.0875C54.1304 9.44851 44.4427 5.33944 35.7456 0.204566C35.5189 0.0706442 35.2604 0 34.9971 0C34.7338 0 34.4753 0.0706442 34.2486 0.204566C25.3006 5.48696 16.1364 9.37373 6.23179 12.0875C5.92052 12.1727 5.64588 12.3579 5.45014 12.6145C5.25439 12.8711 5.14839 13.1849 5.14844 13.5077V28.553C5.14844 44.0464 12.2959 54.3019 18.2921 60.1768C24.7474 66.5021 32.267 70 34.9971 70C37.7269 70 45.2465 66.5021 51.7018 60.1768C57.6978 54.302 64.8449 44.0465 64.8449 28.553V13.5075C64.8449 12.8442 64.4014 12.2626 63.7616 12.0875ZM61.9 28.5529C61.9 43.0236 55.2335 52.5932 49.6406 58.0731C43.2926 64.2931 36.5055 67.0548 34.9971 67.0548C33.4887 67.0548 26.7011 64.2931 20.353 58.0731C14.7603 52.593 8.09349 43.0236 8.09349 28.5529V14.6254C17.5651 11.9361 26.3859 8.18305 34.9974 3.17874C43.3938 8.05029 52.6547 11.99 61.9 14.6248V28.5529Z" fill="white"/>
<path d="M21.9429 14.4607C21.6449 13.7039 20.79 13.3322 20.0331 13.6304C17.3926 14.6704 14.716 15.6162 12.0084 16.4661C11.7092 16.5599 11.4479 16.7468 11.2623 16.9995C11.0767 17.2521 10.9766 17.5575 10.9766 17.871V23.5573C10.9766 24.3705 11.636 25.0297 12.449 25.0297C13.2621 25.0297 13.9215 24.3705 13.9215 23.5573V18.9471C16.3447 18.163 18.7429 17.3036 21.1126 16.3702C21.8694 16.0723 22.2411 15.2174 21.9429 14.4607ZM24.74 14.74C24.9376 14.74 25.1382 14.7002 25.3305 14.6163L25.3576 14.6045C26.1026 14.278 26.4381 13.4108 26.1116 12.6661C25.7848 11.9211 24.9127 11.5841 24.1686 11.9103L24.1448 11.9206C23.3994 12.2461 23.0628 13.1126 23.3883 13.8577C23.6299 14.4109 24.172 14.74 24.74 14.74ZM52.5384 47.4802C51.8579 47.0354 50.9455 47.2267 50.5002 47.9074C49.2868 49.7646 47.8633 51.543 46.2686 53.1928C44.957 54.5496 43.5451 55.8057 42.0449 56.9505C41.3984 57.4435 41.274 58.3675 41.7669 59.0143C41.9043 59.1948 42.0816 59.341 42.2849 59.4416C42.4882 59.5422 42.712 59.5944 42.9388 59.5941C43.2503 59.5941 43.564 59.4958 43.8306 59.2924C45.4484 58.0576 46.9711 56.7029 48.3857 55.2398C50.1098 53.4564 51.6507 51.5314 52.9656 49.5182C53.4106 48.8374 53.2191 47.9249 52.5384 47.4802ZM38.6253 59.2599L38.5408 59.3096C37.8372 59.7172 37.5967 60.6179 38.0041 61.3216C38.1009 61.489 38.2297 61.6357 38.3833 61.7533C38.5368 61.8709 38.712 61.957 38.8989 62.0069C39.0857 62.0567 39.2806 62.0692 39.4723 62.0436C39.664 62.0181 39.8487 61.9551 40.016 61.8581L40.1135 61.8008C40.8153 61.3898 41.051 60.4879 40.64 59.7861C40.2288 59.0846 39.3267 58.8493 38.6253 59.2599ZM24.9577 31.9949C24.0536 31.0906 22.8511 30.5929 21.5723 30.5929C20.2934 30.5929 19.0908 31.0907 18.1863 31.9949C16.3197 33.8619 16.3197 36.8998 18.1863 38.7667L26.8811 47.4612C27.7853 48.3651 28.9878 48.8629 30.2668 48.8629C31.5458 48.8629 32.7482 48.3651 33.6526 47.4609L51.8035 29.3098C53.67 27.4424 53.67 24.4049 51.8032 22.5386C50.899 21.6343 49.6965 21.1366 48.4174 21.1366C47.1384 21.1366 45.936 21.6344 45.0316 22.5386L30.2666 37.3035L24.9577 31.9949ZM47.1141 24.6211C47.2849 24.4494 47.488 24.3134 47.7118 24.2208C47.9355 24.1282 48.1754 24.0809 48.4175 24.0816C48.9103 24.0816 49.3729 24.2731 49.7212 24.6211C50.4396 25.3395 50.4396 26.509 49.7209 27.2277L31.5702 45.3785C31.2223 45.7265 30.7592 45.918 30.2668 45.918C29.7743 45.918 29.3112 45.7265 28.9631 45.3785L20.2687 36.6843C19.5499 35.9656 19.5499 34.7961 20.2684 34.0776C20.6165 33.7297 21.0795 33.5379 21.5721 33.5379C22.0647 33.5379 22.5275 33.7294 22.8755 34.0774L29.2254 40.4274C29.5017 40.7034 29.876 40.8586 30.2666 40.8586C30.6572 40.8586 31.0316 40.7036 31.3076 40.4274L47.1141 24.6211Z" fill="white"/>
</g>
<defs>
<clipPath id="clip0_1905_21623">
<rect width="70" height="70" fill="white"/>
</clipPath>
</defs>
</svg>
