<svg width="71" height="70" viewBox="0 0 71 70" fill="none" xmlns="http://www.w3.org/2000/svg">
<path d="M69.2627 28.4386L51.742 10.9167C51.5431 10.7183 51.2736 10.6069 50.9927 10.6069C50.7118 10.6069 50.4424 10.7183 50.2435 10.9167L45.0066 16.1536C44.8087 16.3521 44.6973 16.6209 44.6969 16.9012C44.6965 17.1816 44.807 17.4507 45.0045 17.6498L46.2743 18.9197L44.7398 20.5165H27.2201L25.3421 18.6386L26.3287 17.652C26.527 17.4531 26.6384 17.1837 26.6384 16.9028C26.6384 16.6219 26.527 16.3525 26.3287 16.1536L21.0918 10.9167C20.8929 10.7183 20.6235 10.6069 20.3426 10.6069C20.0617 10.6069 19.7922 10.7183 19.5934 10.9167L2.07148 28.4386C1.87312 28.6375 1.76172 28.9069 1.76172 29.1878C1.76172 29.4687 1.87312 29.7381 2.07148 29.937L7.30836 35.1739C7.40655 35.2726 7.52329 35.351 7.65186 35.4045C7.78044 35.4579 7.91832 35.4855 8.05758 35.4855C8.19683 35.4855 8.33471 35.4579 8.46329 35.4045C8.59187 35.351 8.70861 35.2726 8.8068 35.1739L10.723 33.2576L17.4299 40.1614L16.031 41.5636C15.6785 41.9104 15.3985 42.324 15.2074 42.7801C15.0162 43.2362 14.9177 43.7257 14.9176 44.2203C14.9156 44.7189 15.0128 45.2128 15.2036 45.6735C15.3944 46.1341 15.6749 46.5521 16.0288 46.9033L16.2585 47.1319C16.6086 47.4823 17.0245 47.7601 17.4823 47.9494C17.9401 48.1386 18.4308 48.2354 18.9262 48.2344C18.9513 48.2344 18.9754 48.2278 19.0005 48.2278C19.0005 48.253 18.9929 48.2759 18.9929 48.3011C18.9929 49.3095 19.3845 50.2578 20.079 50.9523L20.3284 51.2115C20.7725 51.6521 21.3192 51.9754 21.9192 52.1524C22.5193 52.3294 23.1539 52.3545 23.766 52.2255C23.8754 53.0414 24.2298 53.7983 24.8193 54.3878L25.049 54.6175C25.4935 55.0617 26.0421 55.3876 26.6448 55.5657C27.2475 55.7437 27.8852 55.7682 28.4998 55.6369C28.6168 56.4079 28.957 57.144 29.529 57.7172L29.7784 57.9764C30.5134 58.7037 31.478 59.0679 32.4438 59.0679C33.4096 59.0679 34.382 58.7015 35.1224 57.9687L36.2162 56.8651C36.2785 56.8028 36.3179 56.7262 36.3759 56.6595L38.3041 58.5889C38.3555 58.6403 38.419 58.6906 38.4846 58.7333C39.0897 59.1619 39.8125 59.393 40.554 59.395C41.2955 59.395 42.0448 59.162 42.7196 58.695C43.1591 58.3975 43.5335 58.0139 43.8202 57.5674C44.1069 57.1208 44.3 56.6207 44.3876 56.0973C45.0515 56.2221 45.7361 56.1788 46.3791 55.9716C47.0221 55.7643 47.603 55.3996 48.0691 54.9106C48.628 54.3254 48.9759 53.609 49.1126 52.8609C50.5323 53.4231 52.2998 53.0775 53.3705 51.9837C53.7514 51.61 54.0517 51.1623 54.2532 50.6681C54.4546 50.174 54.5529 49.6439 54.542 49.1105C54.5322 48.4629 54.3611 47.8279 54.0443 47.2631C54.6699 47.0221 55.2261 46.6297 55.663 46.1212C56.9088 44.6348 56.8684 42.4167 55.5646 40.9565L54.7848 40.0947L61.1176 33.7619L62.5285 35.1728C62.6268 35.2712 62.7436 35.3493 62.8722 35.4025C63.0007 35.4557 63.1385 35.4829 63.2776 35.4827C63.4168 35.4825 63.5545 35.4548 63.6829 35.4013C63.8113 35.3477 63.9278 35.2693 64.0259 35.1706L69.2627 29.9337C69.4611 29.7348 69.5725 29.4654 69.5725 29.1845C69.5725 28.9036 69.4611 28.6342 69.2627 28.4353V28.4386ZM8.05758 32.9262L4.31805 29.1867L20.3415 13.1633L24.081 16.9028L10.0176 30.9662C9.99917 30.9835 9.9813 31.0014 9.96398 31.0198L8.05867 32.9251L8.05758 32.9262ZM17.7548 45.6334L17.5251 45.4048C17.3693 45.2509 17.2457 45.0674 17.1616 44.8651C17.0774 44.6629 17.0344 44.4459 17.0351 44.2269C17.0362 43.7894 17.209 43.3781 17.524 43.0664L19.6535 40.9314C19.6535 40.9314 19.6655 40.9259 19.6699 40.9215L21.619 38.9615C21.8121 38.7699 22.0494 38.6286 22.3099 38.55C22.5704 38.4715 22.8461 38.458 23.113 38.5109C23.1185 38.5109 23.1229 38.5142 23.1284 38.5153C23.2279 38.5361 23.3263 38.5645 23.4215 38.6028C23.4893 38.6301 23.5527 38.6695 23.6173 38.7067C23.649 38.7242 23.6818 38.7373 23.7124 38.757C23.8054 38.8183 23.894 38.8904 23.976 38.9725L24.197 39.1847C24.506 39.4956 24.6797 39.9159 24.6803 40.3543C24.6809 40.7927 24.5084 41.2135 24.2002 41.5253L23.2279 42.4976L20.0921 45.6334C19.7814 45.9427 19.3608 46.1164 18.9223 46.1164C18.4839 46.1164 18.0633 45.9427 17.7526 45.6334H17.7548ZM21.8388 49.7273L21.5927 49.4703C21.2821 49.1597 21.1104 48.744 21.1104 48.3011C21.1104 47.8581 21.2821 47.4425 21.5916 47.1319L24.7285 43.995C24.8095 43.914 24.8959 43.844 24.9877 43.7839C25.0249 43.7598 25.0643 43.7445 25.1026 43.7237C25.1595 43.692 25.2152 43.657 25.2754 43.6329C25.3355 43.6089 25.399 43.5947 25.4613 43.5772C25.5018 43.5662 25.5412 43.5498 25.5816 43.5411C25.6451 43.529 25.7107 43.5269 25.7752 43.5214C25.8157 43.5181 25.8562 43.5094 25.8977 43.5094L25.913 43.5104C26.1187 43.5115 26.3232 43.5487 26.5157 43.6264C26.5179 43.6264 26.519 43.6286 26.5212 43.6297C26.7148 43.7084 26.8963 43.8244 27.0516 43.9797L27.301 44.2389C27.6127 44.5495 27.7855 44.9597 27.7866 45.3983C27.7866 45.8401 27.6138 46.2579 27.2977 46.5751L24.1609 49.7109C23.8536 50.0178 23.438 50.1916 23.0038 50.1947C22.5695 50.1977 22.1504 50.0299 21.8388 49.7273ZM26.5474 53.119L26.3177 52.8894C26.0071 52.5787 25.8354 52.1631 25.8354 51.7201C25.8354 51.2772 26.0071 50.8615 26.3166 50.5509L28.794 48.0725C28.9473 47.9174 29.1299 47.7944 29.3312 47.7104C29.5325 47.6265 29.7484 47.5834 29.9665 47.5836H29.9709C30.4084 47.5836 30.8196 47.7564 31.1477 48.0878L31.373 48.3033C31.5266 48.4566 31.6482 48.639 31.7308 48.8397C31.8134 49.0404 31.8554 49.2554 31.8543 49.4725C31.8551 49.6896 31.8129 49.9047 31.7302 50.1054C31.6474 50.3061 31.5256 50.4883 31.372 50.6417L31.069 50.9447L31.0624 50.9512C30.9202 51.0584 30.7802 51.1612 30.6402 51.3001L29.5443 52.3961C29.4349 52.5055 29.2884 52.6739 29.1538 52.8609L28.8946 53.1201C28.5828 53.4311 28.1603 53.6057 27.7199 53.6057C27.2795 53.6057 26.8571 53.4311 26.5452 53.1201L26.5474 53.119ZM33.6251 56.4703C32.9754 57.1123 31.9177 57.1123 31.2888 56.49L31.0438 56.234C30.5079 55.6981 30.4204 54.8559 30.8152 54.1964L32.4548 52.5569C32.5926 52.4737 32.738 52.4103 32.889 52.3709C32.9437 52.3567 32.9995 52.3556 33.0552 52.3469C33.181 52.3272 33.3079 52.314 33.4337 52.3228C33.4643 52.325 33.4949 52.3272 33.5255 52.3315C33.6863 52.3523 33.8427 52.395 33.9915 52.4606C34.0155 52.4715 34.0385 52.4858 34.0615 52.4978C34.2157 52.5755 34.3623 52.6706 34.488 52.7975L34.7177 53.0272C34.9002 53.2122 35.036 53.4378 35.1142 53.6856C35.1923 53.9334 35.2105 54.1961 35.1673 54.4523C35.1174 54.5607 35.0867 54.6769 35.0765 54.7958C34.9972 55.0099 34.8735 55.2049 34.7134 55.3678L33.6229 56.4692L33.6251 56.4703ZM54.0476 44.7497C53.6877 45.1675 53.1726 45.407 52.6345 45.407C52.4977 45.407 52.384 45.3764 52.2691 45.349L45.7788 39.2842C45.6772 39.1892 45.5579 39.1151 45.4276 39.0662C45.2974 39.0173 45.1588 38.9946 45.0197 38.9992C44.8807 39.0039 44.7439 39.0359 44.6173 39.0935C44.4906 39.151 44.3765 39.2329 44.2815 39.3345C44.1865 39.4361 44.1124 39.5555 44.0635 39.6857C44.0146 39.816 43.9919 39.9546 43.9965 40.0936C44.0012 40.2326 44.0332 40.3694 44.0907 40.4961C44.1483 40.6227 44.2302 40.7368 44.3318 40.8319L51.0266 47.087L51.8426 47.8614C52.2079 48.1972 52.4135 48.6554 52.4223 49.1498C52.4321 49.6508 52.2374 50.1222 51.8666 50.4908C51.6974 50.6607 51.4958 50.7951 51.2737 50.8858C51.0517 50.9765 50.8137 51.0218 50.5738 51.019C50.238 51.019 49.7513 50.9337 49.3259 50.5247L48.0276 49.2975C47.998 49.2603 47.9707 49.2209 47.9368 49.1881L41.6018 43.1769C41.5008 43.0811 41.382 43.0061 41.252 42.9562C41.1221 42.9063 40.9836 42.8825 40.8444 42.8862C40.7053 42.8899 40.5682 42.9209 40.4411 42.9775C40.3139 43.0341 40.1992 43.1153 40.1034 43.2162C40.0076 43.3172 39.9326 43.4361 39.8827 43.566C39.8328 43.696 39.8091 43.8345 39.8127 43.9736C39.8164 44.1127 39.8474 44.2498 39.904 44.377C39.9606 44.5041 40.0418 44.6189 40.1427 44.7147L46.3946 50.6461C46.4034 50.6581 46.4187 50.6625 46.4274 50.6745C46.4515 50.704 46.4712 50.7379 46.4985 50.7642L46.504 50.7719C47.2368 51.4981 47.2521 52.699 46.5335 53.4504C45.7985 54.2237 44.4554 54.2183 43.7335 53.4329L43.727 53.4286L43.7215 53.4198L37.742 47.1154C37.6461 47.0145 37.5314 46.9335 37.4043 46.8769C37.2772 46.8204 37.1401 46.7894 37.001 46.7858C36.862 46.7822 36.7235 46.806 36.5936 46.8559C36.4637 46.9058 36.345 46.9808 36.2441 47.0766C36.1432 47.1724 36.0621 47.2872 36.0056 47.4143C35.949 47.5414 35.918 47.6784 35.9144 47.8175C35.9108 47.9566 35.9346 48.0951 35.9845 48.2249C36.0344 48.3548 36.1094 48.4736 36.2052 48.5745L42.129 54.8209C42.1907 54.898 42.2358 54.987 42.2613 55.0823C42.4801 55.9322 41.9945 56.6212 41.5132 56.9537C41.2955 57.1036 40.5299 57.5509 39.7315 57.0194L37.3023 54.5901C37.3055 54.5606 37.299 54.5322 37.3023 54.5026C37.322 54.2587 37.3241 54.0148 37.2968 53.7742L37.2957 53.7479C37.2636 53.502 37.2072 53.2598 37.1273 53.025C37.113 52.9801 37.0999 52.9364 37.0835 52.8915C37.0002 52.6655 36.8955 52.4479 36.7707 52.2419C36.7466 52.2025 36.7193 52.1653 36.6941 52.1259C36.556 51.9108 36.3962 51.7103 36.2173 51.5276L35.9876 51.298C35.838 51.1491 35.6759 51.0133 35.503 50.8922C35.4385 50.8462 35.3685 50.8123 35.3018 50.7708C35.1924 50.7029 35.0841 50.634 34.9693 50.5783C34.8884 50.5389 34.803 50.5105 34.7199 50.4765C34.6127 50.4339 34.5066 50.3901 34.3962 50.3573C34.3076 50.3311 34.2179 50.3136 34.1271 50.2939C34.0505 50.2775 33.9751 50.2523 33.8974 50.2392L33.8985 50.225C33.9466 49.9887 33.9696 49.7448 33.9718 49.4987C33.9718 49.4889 33.9751 49.4801 33.9751 49.4714C33.9771 48.9724 33.8793 48.478 33.6873 48.0174C33.4953 47.5569 33.2131 47.1393 32.8573 46.7895L32.6363 46.5773C32.2893 46.2248 31.8755 45.945 31.4192 45.754C30.9629 45.563 30.4732 45.4648 29.9785 45.465C29.9501 45.4628 29.9293 45.465 29.9063 45.465V45.3939C29.9073 44.9033 29.8111 44.4174 29.6231 43.9642C29.4352 43.511 29.1593 43.0995 28.8115 42.7536L28.5654 42.4976C28.4017 42.3367 28.2234 42.1913 28.0327 42.0634C27.977 42.0251 27.9201 41.9923 27.8632 41.9573C27.7234 41.8715 27.5779 41.7951 27.4279 41.7287C27.3677 41.7025 27.3098 41.674 27.2485 41.65C27.0495 41.5719 26.8442 41.5108 26.6349 41.4673C26.6645 41.3711 26.682 41.2715 26.7027 41.1742C26.7126 41.1294 26.7257 41.0856 26.7334 41.0408C26.7716 40.8308 26.7913 40.6186 26.7924 40.4053C26.7924 40.3583 26.788 40.3112 26.787 40.2642C26.7824 40.0882 26.7652 39.9127 26.7355 39.7392C26.7268 39.6856 26.7191 39.6331 26.7082 39.5806C26.6645 39.3683 26.6026 39.16 26.5234 38.9583C26.5113 38.9287 26.496 38.9014 26.4829 38.8729C26.384 38.6408 26.2616 38.4195 26.1176 38.2123C25.9888 38.0213 25.8435 37.842 25.6834 37.6764L25.458 37.4609C24.7481 36.757 23.7886 36.3622 22.7888 36.3626C21.789 36.363 20.8299 36.7586 20.1205 37.4631L18.924 38.6629L12.2193 31.7614L23.8415 20.1392L26.0301 22.3278C26.1284 22.4263 26.2452 22.5044 26.3738 22.5577C26.5023 22.611 26.6401 22.6384 26.7793 22.6384H29.797L23.9465 28.642C23.5578 29.0435 23.287 29.5443 23.1638 30.0894C23.0406 30.6345 23.0698 31.203 23.2481 31.7327C23.4264 32.2624 23.747 32.7327 24.1748 33.0924C24.6026 33.452 25.1211 33.687 25.6735 33.7717C26.1066 33.8351 26.5091 33.8669 26.904 33.8669C28.9895 33.8607 30.9875 33.028 32.4602 31.5514L34.8129 29.2075L40.6612 28.9625L52.5546 40.7958L53.9841 42.3795C54.5879 43.0555 54.6098 44.0814 54.0454 44.7551L54.0476 44.7497ZM53.3224 38.5612L41.8304 27.1272C41.7293 27.0273 41.6092 26.9488 41.4771 26.8964C41.4454 26.8833 41.4082 26.8854 41.3743 26.8756C41.2791 26.8483 41.184 26.8176 41.0834 26.8176H41.0385L34.3163 27.0998C34.0518 27.1109 33.8009 27.2205 33.613 27.4072L30.964 30.0464C30.3228 30.6901 29.5382 31.1727 28.6745 31.4549C27.8109 31.737 26.8926 31.8105 25.9951 31.6695C25.8266 31.6464 25.6681 31.5762 25.5378 31.4671C25.4074 31.358 25.3104 31.2143 25.2579 31.0526C25.2012 30.8914 25.191 30.7175 25.2285 30.5507C25.266 30.384 25.3497 30.2312 25.4701 30.1098L32.7577 22.6319H45.1904C45.3332 22.6319 45.4746 22.6031 45.606 22.547C45.7374 22.491 45.8561 22.409 45.9549 22.3059L47.7673 20.4192L59.6148 32.2656L53.3224 38.5579V38.5612ZM63.2745 32.9262L47.251 16.9039L50.9916 13.1633L67.0151 29.1867L63.2745 32.9262Z" fill="white"/>
</svg>
