<svg width="71" height="70" viewBox="0 0 71 70" fill="none" xmlns="http://www.w3.org/2000/svg">
<path d="M62.3598 6.19751H8.31211C5.04453 6.19751 2.38672 8.85669 2.38672 12.1243V57.8758C2.38672 61.1434 5.04453 63.8012 8.31211 63.8012H62.3584C65.626 63.8012 68.2838 61.1434 68.2838 57.8758V12.1243C68.2851 8.85669 65.6273 6.19751 62.3598 6.19751ZM8.31211 7.83813H62.3584C64.7209 7.83813 66.6432 9.7604 66.6432 12.1229V16.0522H4.02734V12.1243C4.02734 9.76177 5.94961 7.83813 8.31211 7.83813ZM62.3598 62.162H8.31211C5.94961 62.162 4.02734 60.2383 4.02734 57.8758V17.6928H66.6445V57.8758C66.6445 60.2383 64.7223 62.162 62.3598 62.162ZM10.6814 11.9452C10.6814 11.4926 11.0492 11.1249 11.5018 11.1249H12.6229C13.0754 11.1249 13.4432 11.4926 13.4432 11.9452C13.4432 12.3977 13.0754 12.7655 12.6229 12.7655H11.5018C11.0479 12.7655 10.6814 12.3991 10.6814 11.9452ZM15.3381 11.9452C15.3381 11.4926 15.7059 11.1249 16.1584 11.1249H17.2795C17.732 11.1249 18.0998 11.4926 18.0998 11.9452C18.0998 12.3977 17.732 12.7655 17.2795 12.7655H16.1584C15.7045 12.7655 15.3381 12.3991 15.3381 11.9452ZM19.9934 11.9452C19.9934 11.4926 20.3611 11.1249 20.8137 11.1249H21.9348C22.3873 11.1249 22.7551 11.4926 22.7551 11.9452C22.7551 12.3977 22.3873 12.7655 21.9348 12.7655H20.8137C20.3611 12.7655 19.9934 12.3991 19.9934 11.9452ZM11.6234 30.6415C6.50332 35.7616 6.50332 44.0932 11.6234 49.2133C14.1842 51.7727 17.5461 53.0538 20.9094 53.0538C24.2727 53.0538 27.6346 51.7741 30.1953 49.2133C35.3154 44.0932 35.3154 35.7616 30.1953 30.6415C25.0752 25.5213 16.7436 25.5213 11.6234 30.6415ZM13.9066 49.0342C14.4863 46.2411 16.9705 44.1862 19.8635 44.1862H21.958C24.851 44.1862 27.3352 46.2411 27.9148 49.0342C23.7996 52.202 18.0191 52.202 13.9066 49.0342ZM20.9094 42.1163C18.9187 42.1163 17.2986 40.4961 17.2986 38.5055C17.2986 36.5149 18.9187 34.8948 20.9094 34.8948C22.9 34.8948 24.5201 36.5149 24.5201 38.5055C24.5201 40.4961 22.9 42.1163 20.9094 42.1163ZM29.2752 47.801C28.4439 45.3428 26.4137 43.4629 23.9227 42.8026C25.2748 41.851 26.1621 40.2801 26.1621 38.5055C26.1621 35.6098 23.8064 33.2542 20.9107 33.2542C18.015 33.2542 15.6594 35.6098 15.6594 38.5055C15.6594 40.2815 16.5453 41.8524 17.8988 42.8026C15.4078 43.4616 13.3775 45.3428 12.5463 47.801C8.31074 43.303 8.38867 36.2004 12.7855 31.8022C17.2658 27.3233 24.557 27.3219 29.0359 31.8022C33.4328 36.2004 33.5107 43.303 29.2752 47.801ZM62.8943 31.6559C62.8943 32.1084 62.5266 32.4762 62.074 32.4762H42.0488C41.5963 32.4762 41.2285 32.1084 41.2285 31.6559C41.2285 31.2034 41.5963 30.8356 42.0488 30.8356H62.074C62.5266 30.8356 62.8943 31.202 62.8943 31.6559ZM62.8943 39.9274C62.8943 40.3799 62.5266 40.7477 62.074 40.7477H42.0488C41.5963 40.7477 41.2285 40.3799 41.2285 39.9274C41.2285 39.4749 41.5963 39.1071 42.0488 39.1071H62.074C62.5266 39.1071 62.8943 39.4749 62.8943 39.9274ZM57.6512 48.1989C57.6512 48.6514 57.2834 49.0192 56.8309 49.0192H42.0488C41.5963 49.0192 41.2285 48.6514 41.2285 48.1989C41.2285 47.7463 41.5963 47.3786 42.0488 47.3786H56.8309C57.2834 47.3786 57.6512 47.7463 57.6512 48.1989Z" fill="white"/>
</svg>
