<svg width="63" height="23" viewBox="0 0 63 23" fill="none" xmlns="http://www.w3.org/2000/svg">
<path fill-rule="evenodd" clip-rule="evenodd" d="M62.2378 0.488281V19.2154L61.1878 20.9278L33.1003 20.9351L31.6201 22.2978L30.2638 20.9351H0.433594V2.28813L1.49818 0.488281H62.2378ZM32.9471 18.4867H61.2753V1.45014H2.47526V18.4867H30.9492L31.6419 19.23L31.9628 19.5506L32.9471 18.4867Z" fill="white"/>
<path d="M10.9634 6.12877C10.803 5.97331 10.6183 5.84944 10.4092 5.75714C10.2002 5.6697 9.97661 5.62598 9.73841 5.62598H8.003C7.7648 5.62598 7.53876 5.6697 7.32487 5.75714C7.11584 5.84944 6.93355 5.97331 6.77799 6.12877C6.61758 6.28422 6.49362 6.46882 6.40612 6.68257C6.31376 6.89146 6.26758 7.11492 6.26758 7.35295V12.6505C6.26758 12.8885 6.31376 13.112 6.40612 13.3209C6.49362 13.5346 6.61758 13.7192 6.77799 13.8747C6.93355 14.0301 7.11584 14.154 7.32487 14.2463C7.53876 14.3386 7.7648 14.3823 8.003 14.3775H9.73841C9.97661 14.3823 10.2002 14.3386 10.4092 14.2463C10.6183 14.154 10.803 14.0301 10.9634 13.8747C11.119 13.7192 11.2429 13.5346 11.3353 13.3209C11.4325 13.112 11.4811 12.8885 11.4811 12.6505V11.7833H9.73841V12.6505H8.003V7.35295H9.73841V8.22009H11.4811V7.35295C11.4811 7.11492 11.4325 6.89146 11.3353 6.68257C11.2429 6.46882 11.119 6.28422 10.9634 6.12877Z" fill="white"/>
<path fill-rule="evenodd" clip-rule="evenodd" d="M17.9994 6.68257C18.0966 6.89146 18.1452 7.11492 18.1452 7.35295V12.6505C18.1452 12.8885 18.0966 13.1144 17.9994 13.3282C17.907 13.537 17.783 13.7192 17.6275 13.8747C17.4671 14.0301 17.2823 14.154 17.0733 14.2463C16.8643 14.3386 16.6407 14.3847 16.4025 14.3847H14.6671C14.4289 14.3847 14.2028 14.3386 13.9889 14.2463C13.7799 14.154 13.5976 14.0301 13.4421 13.8747C13.2816 13.7192 13.1577 13.537 13.0702 13.3282C12.9778 13.1144 12.9316 12.8885 12.9316 12.6505V7.35295C12.9316 7.11492 12.9778 6.89146 13.0702 6.68257C13.1577 6.46882 13.2816 6.28422 13.4421 6.12877C13.5976 5.97331 13.7799 5.84944 13.9889 5.75714C14.2028 5.6697 14.4289 5.62598 14.6671 5.62598H16.4025C16.6407 5.62598 16.8643 5.6697 17.0733 5.75714C17.2823 5.84944 17.4671 5.97331 17.6275 6.12877C17.783 6.28422 17.907 6.46882 17.9994 6.68257ZM16.4025 7.35295H14.6671V12.6505H16.4025V7.35295Z" fill="white"/>
<path d="M23.0605 9.99725L21.6168 5.6543H19.8887V14.3183H21.6168V9.8588L21.6751 10.3252L22.5428 12.5695H23.5855L24.4533 10.3252L24.5116 9.8588V14.3183H26.2397V5.6543H24.5116L23.0605 9.99725Z" fill="white"/>
<path fill-rule="evenodd" clip-rule="evenodd" d="M33.1068 6.71089C33.1991 6.91978 33.2453 7.14567 33.2453 7.38856V9.99725C33.2453 10.2353 33.1991 10.4587 33.1068 10.6676C33.0144 10.8765 32.888 11.0611 32.7276 11.2214C32.5721 11.3769 32.3898 11.5008 32.1807 11.5931C31.9717 11.6805 31.7457 11.7242 31.5026 11.7242H29.7745V14.3183H28.0391V5.6543H31.5026C31.7457 5.6543 31.9717 5.70045 32.1807 5.79275C32.3898 5.88019 32.5721 6.00406 32.7276 6.16437C32.888 6.31983 33.0144 6.502 33.1068 6.71089ZM31.5026 7.38856H29.7745V9.99725H31.5026V7.38856Z" fill="white"/>
<path d="M36.4547 5.6543H34.7266V14.3183H39.0578V12.5914H36.4547V5.6543Z" fill="white"/>
<path d="M40.1289 14.3183H44.4602V12.5914H41.8643V10.8571H44.0299V9.11554H41.8643V7.38856H44.4602V5.6543H40.1289V14.3183Z" fill="white"/>
<path d="M45.8965 7.38856H47.6319V14.3183H49.3673V7.38856H51.11V5.6543H45.8965V7.38856Z" fill="white"/>
<path fill-rule="evenodd" clip-rule="evenodd" d="M57.4621 7.35295V12.6505C57.4621 12.8885 57.4159 13.112 57.3236 13.3209C57.2312 13.5346 57.1048 13.7192 56.9444 13.8747C56.7888 14.0301 56.6066 14.154 56.3975 14.2463C56.1836 14.3386 55.9576 14.3823 55.7194 14.3775H53.9913C53.7482 14.3823 53.5222 14.3386 53.3132 14.2463C53.1041 14.154 52.9194 14.0301 52.759 13.8747C52.6034 13.7192 52.4819 13.5346 52.3944 13.3209C52.302 13.112 52.2559 12.8885 52.2559 12.6505V7.35295C52.2559 7.11492 52.302 6.89146 52.3944 6.68257C52.4819 6.46882 52.6034 6.28422 52.759 6.12877C52.9194 5.97331 53.1041 5.84944 53.3132 5.75714C53.5222 5.6697 53.7482 5.62598 53.9913 5.62598H55.7194C55.9576 5.62598 56.1836 5.6697 56.3975 5.75714C56.6066 5.84944 56.7888 5.97331 56.9444 6.12877C57.1048 6.28422 57.2312 6.46882 57.3236 6.68257C57.4159 6.89146 57.4621 7.11492 57.4621 7.35295ZM55.7194 7.35295H53.9913V12.6505H55.7194V7.35295Z" fill="white"/>
</svg>
