<svg width="26" height="23" viewBox="0 0 26 23" fill="none" xmlns="http://www.w3.org/2000/svg">
<path d="M12.6594 19.4905L12.5341 19.6158L12.3962 19.4905C6.44251 14.0883 2.50681 10.5161 2.50681 6.89373C2.50681 4.38692 4.38692 2.50681 6.89373 2.50681C8.82398 2.50681 10.7041 3.76022 11.3684 5.46485H13.6997C14.364 3.76022 16.2441 2.50681 18.1744 2.50681C20.6812 2.50681 22.5613 4.38692 22.5613 6.89373C22.5613 10.5161 18.6256 14.0883 12.6594 19.4905ZM18.1744 0C15.9935 0 13.9003 1.01526 12.5341 2.60708C11.1678 1.01526 9.07466 0 6.89373 0C3.03324 0 0 3.02071 0 6.89373C0 11.6191 4.26158 15.4921 10.7166 21.3455L12.5341 23L14.3515 21.3455C20.8065 15.4921 25.0681 11.6191 25.0681 6.89373C25.0681 3.02071 22.0349 0 18.1744 0Z" fill="#004290"/>
<path d="M12.6594 19.4905L12.5341 19.6158L12.3962 19.4905C6.44251 14.0883 2.50681 10.5161 2.50681 6.89373C2.50681 4.38692 4.38692 2.50681 6.89373 2.50681C8.82398 2.50681 10.7041 3.76022 11.3684 5.46485H13.6997C14.364 3.76022 16.2441 2.50681 18.1744 2.50681C20.6812 2.50681 22.5613 4.38692 22.5613 6.89373C22.5613 10.5161 18.6256 14.0883 12.6594 19.4905Z" fill="#004290"/>
</svg>
