<svg width="55" height="54" viewBox="0 0 55 54" fill="none" xmlns="http://www.w3.org/2000/svg">
<rect x="0.924805" width="54" height="54" rx="10" fill="white"/>
<path d="M36.5615 39.2812C38.6153 39.2812 40.2803 37.6163 40.2803 35.5625C40.2803 33.5087 38.6153 31.8438 36.5615 31.8438C34.5077 31.8438 32.8428 33.5087 32.8428 35.5625C32.8428 37.6163 34.5077 39.2812 36.5615 39.2812Z" stroke="#004290" stroke-width="2" stroke-linecap="round" stroke-linejoin="round"/>
<path d="M17.4365 39.2812C19.4903 39.2812 21.1553 37.6163 21.1553 35.5625C21.1553 33.5087 19.4903 31.8438 17.4365 31.8438C15.3827 31.8438 13.7178 33.5087 13.7178 35.5625C13.7178 37.6163 15.3827 39.2812 17.4365 39.2812Z" stroke="#004290" stroke-width="2" stroke-linecap="round" stroke-linejoin="round"/>
<path d="M17.4365 20.1562C19.4903 20.1562 21.1553 18.4913 21.1553 16.4375C21.1553 14.3837 19.4903 12.7188 17.4365 12.7188C15.3827 12.7188 13.7178 14.3837 13.7178 16.4375C13.7178 18.4913 15.3827 20.1562 17.4365 20.1562Z" stroke="#004290" stroke-width="2" stroke-linecap="round" stroke-linejoin="round"/>
<path d="M26.4678 14.8438H27.5303M32.8428 14.8438H33.9053M37.0928 20.1562V19.0938M37.0928 25.4688V26.5312M17.9678 21.2188V30.7812" stroke="#004290" stroke-width="2" stroke-linecap="round" stroke-linejoin="round"/>
</svg>
