<svg width="40" height="40" viewBox="0 0 40 40" fill="none" xmlns="http://www.w3.org/2000/svg">
<path d="M20.3767 20.832L24.1684 18.5404L27.9601 20.832L26.9601 16.4987L30.2934 13.6237L25.9184 13.2487L24.1684 9.16536L22.4184 13.2487L18.0434 13.6237L21.3767 16.4987L20.3767 20.832ZM21.1684 31.6654H30.5017C30.3073 32.3876 29.974 32.9709 29.5017 33.4154C29.0295 33.8598 28.4184 34.1376 27.6684 34.2487L9.50174 36.457C8.58507 36.5959 7.7584 36.3809 7.02174 35.812C6.28507 35.2431 5.86174 34.4998 5.75174 33.582L3.5434 15.3737C3.43229 14.457 3.65451 13.6376 4.21007 12.9154C4.76563 12.1931 5.50174 11.7765 6.4184 11.6654L8.33507 11.4154V14.7487L6.83507 14.957L9.08507 33.1654L21.1684 31.6654ZM15.0017 28.332C14.0851 28.332 13.3006 28.0059 12.6484 27.3537C11.9962 26.7015 11.6695 25.9165 11.6684 24.9987V6.66536C11.6684 5.7487 11.9951 4.96425 12.6484 4.31203C13.3017 3.65981 14.0862 3.33314 15.0017 3.33203H33.3351C34.2517 3.33203 35.0367 3.6587 35.6901 4.31203C36.3434 4.96536 36.6695 5.74981 36.6684 6.66536V24.9987C36.6684 25.9154 36.3423 26.7004 35.6901 27.3537C35.0378 28.007 34.2528 28.3331 33.3351 28.332H15.0017ZM15.0017 24.9987H33.3351V6.66536H15.0017V24.9987Z" fill="#004290"/>
</svg>
