<svg width="42" height="42" viewBox="0 0 42 42" fill="none" xmlns="http://www.w3.org/2000/svg">
<rect width="42" height="42" rx="9" fill="white"/>
<path fill-rule="evenodd" clip-rule="evenodd" d="M9.5092 20.776C15.6311 18.1088 19.7134 16.3504 21.7559 15.5008C27.5878 13.0751 28.7997 12.6537 29.5895 12.6398C29.7632 12.6367 30.1517 12.6798 30.4033 12.884C30.6157 13.0563 30.6742 13.2892 30.7021 13.4527C30.7301 13.6161 30.7649 13.9884 30.7373 14.2794C30.4212 17.6 29.0538 25.6582 28.3581 29.3773C28.0637 30.951 27.4841 31.4786 26.9229 31.5303C25.7034 31.6425 24.7774 30.7244 23.5962 29.9501C21.7479 28.7385 20.7038 27.9843 18.9097 26.8021C16.8363 25.4357 18.1804 24.6848 19.362 23.4575C19.6712 23.1363 25.0444 18.249 25.1484 17.8057C25.1614 17.7502 25.1735 17.5435 25.0507 17.4344C24.9279 17.3252 24.7467 17.3626 24.6159 17.3923C24.4305 17.4343 21.4779 19.3859 15.758 23.247C14.9199 23.8225 14.1608 24.1029 13.4806 24.0882C12.7308 24.072 11.2885 23.6643 10.2163 23.3157C8.90115 22.8882 7.85591 22.6622 7.94693 21.9362C7.99434 21.558 8.51509 21.1713 9.5092 20.776Z" fill="#353535"/>
</svg>
