<svg width="71" height="70" viewBox="0 0 71 70" fill="none" xmlns="http://www.w3.org/2000/svg">
<path d="M57.99 31.4702C59.4837 30.4408 61.0289 29.3774 61.0289 27.7581C61.0289 26.1388 59.4837 25.0744 57.99 24.045C57.183 23.4891 56.0784 22.7284 55.9456 22.2332C55.8015 21.6887 56.3687 20.4894 56.8247 19.5259C57.5855 17.92 58.3719 16.2585 57.5886 14.9038C56.7939 13.5306 54.945 13.3824 53.158 13.2393C52.108 13.1559 50.8006 13.0509 50.4187 12.669C50.0368 12.2871 49.9318 10.9797 49.8484 9.92869C49.7043 8.14163 49.5571 6.29384 48.1839 5.49913C46.8292 4.71575 45.1687 5.50222 43.5628 6.26193C42.5993 6.71796 41.4 7.28619 40.8555 7.14104C40.3593 7.00928 39.5996 5.90369 39.0437 5.09766C38.0143 3.60399 36.9489 2.05884 35.3296 2.05884C33.7103 2.05884 32.6459 3.60296 31.6175 5.09766C31.0617 5.90472 30.3009 7.00928 29.8058 7.14104C29.2612 7.28722 28.064 6.71899 27.0994 6.26296C25.4925 5.50325 23.8321 4.71678 22.4774 5.50119C21.1062 6.2959 20.959 8.14472 20.8159 9.93075C20.7336 10.9808 20.6286 12.2881 20.2467 12.671C19.8658 13.0519 18.5584 13.158 17.5084 13.2413C15.7214 13.3855 13.8736 13.5337 13.0799 14.9059C12.2965 16.2616 13.083 17.9221 13.8437 19.528C14.2997 20.4905 14.868 21.6897 14.7228 22.2332C14.5911 22.7294 13.4855 23.4891 12.6794 24.045C11.1858 25.0744 9.64062 26.1388 9.64062 27.7581C9.64062 29.3763 11.1858 30.4408 12.6794 31.4702C13.4865 32.026 14.5911 32.7868 14.7228 33.2819C14.868 33.8244 14.3008 35.0237 13.8437 35.9883C13.0819 37.5941 12.2965 39.2535 13.0789 40.6083C13.8725 41.9815 15.7214 42.1297 17.5084 42.2728C17.7997 42.2965 18.1096 42.3222 18.4153 42.3541L10.3921 61.4209C10.2394 61.779 10.1911 62.173 10.2529 62.5573C10.3146 62.9417 10.4839 63.3007 10.7411 63.593C10.9959 63.8876 11.329 64.104 11.7017 64.2173C12.0744 64.3306 12.4715 64.3362 12.8472 64.2332L17.2593 63.0566L19.8668 67.0075C20.3012 67.6663 21.0527 68.0019 21.7887 67.9319C22.1629 67.8983 22.5209 67.7637 22.8246 67.5425C23.1282 67.3213 23.3662 67.0219 23.513 66.676L30.8661 49.3675C32.1456 51.031 33.3027 53.4574 35.3306 53.4574C37.3617 53.4574 38.5187 51.0238 39.8024 49.3603L47.1586 66.676C47.3052 67.0221 47.543 67.3218 47.8465 67.5433C48.1501 67.7648 48.5081 67.8998 48.8824 67.9338C49.2566 67.9678 49.6331 67.8996 49.9717 67.7365C50.3102 67.5734 50.5981 67.3214 50.8047 67.0075L53.4318 63.0484L57.8243 64.2322C58.1998 64.3354 58.5969 64.3302 58.9696 64.2172C59.3422 64.1043 59.6754 63.8882 59.9305 63.594C60.1878 63.3019 60.3573 62.9429 60.4192 62.5585C60.4811 62.1741 60.433 61.7801 60.2805 61.4219L52.2562 42.3572C52.5599 42.3263 52.8687 42.2996 53.159 42.2759C54.9461 42.1338 56.7949 41.9856 57.5886 40.6124C58.3719 39.2577 57.5865 37.5962 56.8258 35.9903C56.3697 35.0258 55.8015 33.8265 55.9467 33.284C56.0794 32.7878 57.183 32.026 57.99 31.4702ZM21.5839 65.8731L18.9774 61.9222C18.7372 61.5573 18.388 61.2776 17.9795 61.1229C17.5709 60.9682 17.124 60.9464 16.7024 61.0606L12.2883 62.2197L20.3692 43.0191C20.5297 43.3135 20.6224 43.82 20.6697 44.1494C20.6852 44.2905 20.7212 44.4068 20.8149 45.5875C20.9569 47.3725 21.1031 49.2193 22.4764 50.0191C23.8331 50.7984 25.4925 50.015 27.0964 49.2563C27.7161 48.963 28.4336 48.6233 29.0121 48.4575L21.5839 65.8731ZM53.9671 61.0606C53.5455 60.9467 53.0986 60.9687 52.6902 61.1233C52.2818 61.278 51.9325 61.5576 51.6921 61.9222L49.0527 65.87L41.6564 48.4596C42.3214 48.6531 43.1418 49.0587 43.9705 49.4447C45.7761 50.2888 47.7217 50.9847 48.9271 49.3315C48.9508 49.2996 48.9806 49.2728 49.0033 49.2388L49.0177 49.2121C49.6302 48.2733 49.7414 46.9144 49.8474 45.5865C49.8772 45.2169 49.9092 44.8175 49.9555 44.4366L49.9658 44.345C49.9802 44.2359 49.9967 44.1288 50.0131 44.0249C50.0378 43.8705 50.0646 43.7212 50.0975 43.5853C50.1109 43.5256 50.1284 43.4731 50.1428 43.4196C50.184 43.2765 50.2293 43.1447 50.2828 43.0418L50.2983 43.0171L58.3709 62.2465L53.9671 61.0606ZM54.9636 36.8705C55.3959 37.7835 56.0486 39.1619 55.8056 39.5809C55.5524 40.0194 54.0124 40.143 52.9933 40.2243C52.1677 40.2902 51.3308 40.3622 50.5875 40.5537C48.1767 41.054 47.9697 43.1941 47.7917 45.4249C47.7299 46.1887 47.6465 47.2449 47.4252 47.8327C47.1184 48.6397 46.4019 48.3062 44.8208 47.5702C44.8168 47.5682 44.8126 47.5665 44.8084 47.565L44.444 47.3931C43.6308 47.0081 42.8011 46.621 41.9992 46.4255C41.9405 46.4121 41.8797 46.3925 41.8211 46.3802C41.7984 46.376 41.7768 46.375 41.7542 46.3699C40.9728 46.2196 40.2471 46.2813 39.58 46.726C38.7184 47.2716 38.0225 48.2702 37.3472 49.2502C36.7574 50.1046 35.8669 51.3985 35.3296 51.3985C34.7922 51.3985 33.9018 50.1056 33.313 49.2502C31.18 46.1516 30.1815 45.5597 26.7453 47.1471L26.2183 47.391C25.3062 47.8234 23.9278 48.474 23.5089 48.2321C23.0714 47.9788 22.9499 46.4388 22.8686 45.4208C22.534 41.2166 21.7661 40.5506 17.6731 40.2212C16.654 40.1388 15.115 40.0153 14.8618 39.5778C14.6189 39.1588 15.2715 37.7815 15.7039 36.8705C16.3668 35.4705 17.0524 34.0241 16.7127 32.7497C16.3833 31.5216 15.0944 30.6332 13.8478 29.7747C12.9924 29.1859 11.6994 28.2944 11.6994 27.7571C11.6994 27.2208 12.9924 26.3303 13.8468 25.7415C15.0944 24.8819 16.3833 23.9946 16.7127 22.7644C17.0524 21.4921 16.3668 20.0457 15.7039 18.6468C15.2715 17.7347 14.6189 16.3563 14.8618 15.9374C15.115 15.4999 16.655 15.3753 17.6731 15.294C19.2039 15.1705 20.7861 15.0438 21.7033 14.1266C22.6215 13.2074 22.7471 11.6252 22.8686 10.0944C22.9509 9.07531 23.0724 7.53634 23.5099 7.28413C23.9278 7.04222 25.3062 7.69281 26.2193 8.12413C27.6183 8.78604 29.0646 9.4706 30.3369 9.1309C31.5661 8.80149 32.4544 7.51266 33.313 6.26604C33.9018 5.4106 34.7922 4.11766 35.3296 4.11766C35.8669 4.11766 36.7584 5.4106 37.3472 6.26604C38.2068 7.51163 39.0942 8.80149 40.3233 9.12987C41.5967 9.46957 43.045 8.78501 44.444 8.1231C45.355 7.69075 46.7344 7.03913 47.1524 7.28104C47.5909 7.53428 47.7144 9.07428 47.7958 10.0944C47.9193 11.6241 48.0449 13.2063 48.9631 14.1246C49.8814 15.0428 51.4636 15.1694 52.9933 15.2919C54.0124 15.3743 55.5524 15.4978 55.8056 15.9343C56.0486 16.3543 55.3959 17.7327 54.9646 18.6447C54.3017 20.0437 53.6161 21.49 53.9568 22.7634C54.2862 23.9935 55.575 24.8809 56.8217 25.7405C57.6771 26.3293 58.97 27.2197 58.97 27.7581C58.97 28.2955 57.6771 29.1859 56.8217 29.7757C55.575 30.6343 54.2852 31.5227 53.9568 32.7518C53.6171 34.0252 54.3017 35.4715 54.9636 36.8705Z" fill="white"/>
<path d="M35.3311 12.5208C26.929 12.5208 20.0938 19.356 20.0938 27.7581C20.0938 36.1581 26.929 42.9944 35.3311 42.9944C43.7332 42.9944 50.5685 36.1591 50.5685 27.7581C50.5685 19.356 43.7332 12.5208 35.3311 12.5208ZM35.3311 40.9356C28.0635 40.9356 22.1526 35.0237 22.1526 27.7581C22.1526 20.4905 28.0645 14.5796 35.3311 14.5796C42.5977 14.5796 48.5096 20.4915 48.5096 27.7581C48.5096 35.0237 42.5977 40.9356 35.3311 40.9356Z" fill="white"/>
<path d="M42.3372 24.4095H38.2792L37.0161 20.542C36.9003 20.186 36.6746 19.8758 36.3715 19.6561C36.0683 19.4363 35.7033 19.3184 35.3289 19.3191C34.5569 19.3191 33.8795 19.8132 33.6407 20.5451L32.3869 24.4095H28.331C27.9561 24.4087 27.5907 24.5269 27.2873 24.747C26.9839 24.9672 26.7582 25.2779 26.6427 25.6345C26.5259 25.9911 26.5253 26.3756 26.6411 26.7325C26.757 27.0894 26.9832 27.4003 27.2872 27.6203L30.5689 30.0064L29.3161 33.8667C29.1999 34.2231 29.1997 34.6072 29.3157 34.9637C29.4317 35.3202 29.6578 35.6307 29.9616 35.8504C30.5854 36.3034 31.4244 36.3034 32.0482 35.8504L35.3279 33.4653L38.623 35.8556C38.9261 36.0764 39.2915 36.1953 39.6665 36.1951C40.0415 36.1949 40.4068 36.0757 40.7097 35.8545C41.0132 35.6347 41.2391 35.3241 41.3549 34.9677C41.4707 34.6112 41.4704 34.2271 41.3541 33.8709L40.0992 30.0064L43.381 27.6192C43.6843 27.3992 43.9101 27.0886 44.0257 26.7322C44.1413 26.3757 44.1408 25.9917 44.0244 25.6356C43.9091 25.2789 43.6836 24.9681 43.3804 24.7478C43.0772 24.5274 42.7119 24.409 42.3372 24.4095ZM38.7208 28.4634C38.4177 28.6833 38.1921 28.9937 38.0765 29.35C37.9609 29.7062 37.9612 30.09 38.0774 30.446L39.1274 33.6773L36.3686 31.6772C36.0656 31.4568 35.7004 31.3381 35.3257 31.3383C34.9509 31.3385 34.5859 31.4575 34.283 31.6782L31.5448 33.6701L32.5907 30.446C32.7069 30.0897 32.7071 29.7057 32.5913 29.3493C32.4755 28.9928 32.2497 28.6823 31.9463 28.4623L29.2039 26.4684H32.5927C33.3648 26.4684 34.0442 25.9742 34.281 25.2413L35.331 22.0089L36.3861 25.2444C36.5018 25.6008 36.7276 25.9113 37.0309 26.1313C37.3343 26.3512 37.6996 26.4692 38.0744 26.4684H41.4642L38.7208 28.4634Z" fill="white"/>
</svg>
