<svg width="71" height="70" viewBox="0 0 71 70" fill="none" xmlns="http://www.w3.org/2000/svg">
<path d="M69.2588 28.4386L51.738 10.9167C51.5392 10.7183 51.2697 10.6069 50.9888 10.6069C50.7079 10.6069 50.4385 10.7183 50.2396 10.9167L45.0027 16.1536C44.8047 16.3521 44.6934 16.6209 44.693 16.9012C44.6926 17.1816 44.8031 17.4507 45.0005 17.6498L46.2704 18.9197L44.7359 20.5165H27.2162L25.3382 18.6386L26.3248 17.652C26.5231 17.4531 26.6345 17.1837 26.6345 16.9028C26.6345 16.6219 26.5231 16.3525 26.3248 16.1536L21.0879 10.9167C20.889 10.7183 20.6196 10.6069 20.3387 10.6069C20.0578 10.6069 19.7883 10.7183 19.5895 10.9167L2.06758 28.4386C1.86921 28.6375 1.75781 28.9069 1.75781 29.1878C1.75781 29.4687 1.86921 29.7381 2.06758 29.937L7.30445 35.1739C7.40264 35.2726 7.51938 35.351 7.64796 35.4045C7.77654 35.4579 7.91442 35.4855 8.05367 35.4855C8.19293 35.4855 8.33081 35.4579 8.45938 35.4045C8.58796 35.351 8.7047 35.2726 8.80289 35.1739L10.7191 33.2576L17.426 40.1614L16.0271 41.5636C15.6746 41.9104 15.3946 42.324 15.2035 42.7801C15.0123 43.2362 14.9138 43.7257 14.9137 44.2203C14.9117 44.7189 15.0089 45.2128 15.1997 45.6735C15.3905 46.1341 15.671 46.5521 16.0249 46.9033L16.2546 47.1319C16.6047 47.4823 17.0206 47.7601 17.4784 47.9494C17.9362 48.1386 18.4269 48.2354 18.9223 48.2344C18.9474 48.2344 18.9715 48.2278 18.9966 48.2278C18.9966 48.253 18.989 48.2759 18.989 48.3011C18.989 49.3095 19.3805 50.2578 20.0751 50.9523L20.3245 51.2115C20.7686 51.6521 21.3153 51.9754 21.9153 52.1524C22.5153 52.3294 23.15 52.3545 23.7621 52.2255C23.8715 53.0414 24.2259 53.7983 24.8154 54.3878L25.0451 54.6175C25.4896 55.0617 26.0382 55.3876 26.6409 55.5657C27.2436 55.7437 27.8813 55.7682 28.4959 55.6369C28.6129 56.4079 28.953 57.144 29.5251 57.7172L29.7745 57.9764C30.5095 58.7037 31.4741 59.0679 32.4399 59.0679C33.4057 59.0679 34.378 58.7015 35.1185 57.9687L36.2123 56.8651C36.2746 56.8028 36.314 56.7262 36.372 56.6595L38.3002 58.5889C38.3516 58.6403 38.4151 58.6906 38.4807 58.7333C39.0858 59.1619 39.8086 59.393 40.5501 59.395C41.2916 59.395 42.0409 59.162 42.7157 58.695C43.1552 58.3975 43.5296 58.0139 43.8163 57.5674C44.103 57.1208 44.2961 56.6207 44.3837 56.0973C45.0476 56.2221 45.7322 56.1788 46.3752 55.9716C47.0182 55.7643 47.5991 55.3996 48.0652 54.9106C48.6241 54.3254 48.972 53.609 49.1087 52.8609C50.5284 53.4231 52.2959 53.0775 53.3666 51.9837C53.7475 51.61 54.0478 51.1623 54.2493 50.6681C54.4507 50.174 54.549 49.6439 54.538 49.1105C54.5283 48.4629 54.3572 47.8279 54.0404 47.2631C54.666 47.0221 55.2222 46.6297 55.6591 46.1212C56.9049 44.6348 56.8645 42.4167 55.5607 40.9565L54.7809 40.0947L61.1137 33.7619L62.5246 35.1728C62.6229 35.2712 62.7397 35.3493 62.8683 35.4025C62.9968 35.4557 63.1346 35.4829 63.2737 35.4827C63.4129 35.4825 63.5506 35.4548 63.679 35.4013C63.8074 35.3477 63.9239 35.2693 64.022 35.1706L69.2588 29.9337C69.4572 29.7348 69.5686 29.4654 69.5686 29.1845C69.5686 28.9036 69.4572 28.6342 69.2588 28.4353V28.4386ZM8.05367 32.9262L4.31414 29.1867L20.3376 13.1633L24.0771 16.9028L10.0137 30.9662C9.99526 30.9835 9.97739 31.0014 9.96008 31.0198L8.05477 32.9251L8.05367 32.9262ZM17.7509 45.6334L17.5212 45.4048C17.3654 45.2509 17.2418 45.0674 17.1577 44.8651C17.0735 44.6629 17.0305 44.4459 17.0312 44.2269C17.0323 43.7894 17.2051 43.3781 17.5201 43.0664L19.6496 40.9314C19.6496 40.9314 19.6616 40.9259 19.666 40.9215L21.6151 38.9615C21.8082 38.7699 22.0455 38.6286 22.306 38.55C22.5664 38.4715 22.8422 38.458 23.1091 38.5109C23.1146 38.5109 23.119 38.5142 23.1245 38.5153C23.224 38.5361 23.3224 38.5645 23.4176 38.6028C23.4854 38.6301 23.5488 38.6695 23.6134 38.7067C23.6451 38.7242 23.6779 38.7373 23.7085 38.757C23.8015 38.8183 23.8901 38.8904 23.9721 38.9725L24.193 39.1847C24.5021 39.4956 24.6758 39.9159 24.6764 40.3543C24.677 40.7927 24.5045 41.2135 24.1963 41.5253L23.224 42.4976L20.0882 45.6334C19.7775 45.9427 19.3569 46.1164 18.9184 46.1164C18.48 46.1164 18.0594 45.9427 17.7487 45.6334H17.7509ZM21.8349 49.7273L21.5888 49.4703C21.2782 49.1597 21.1065 48.744 21.1065 48.3011C21.1065 47.8581 21.2782 47.4425 21.5877 47.1319L24.7246 43.995C24.8055 43.914 24.892 43.844 24.9838 43.7839C25.021 43.7598 25.0604 43.7445 25.0987 43.7237C25.1555 43.692 25.2113 43.657 25.2715 43.6329C25.3316 43.6089 25.3951 43.5947 25.4574 43.5772C25.4979 43.5662 25.5373 43.5498 25.5777 43.5411C25.6412 43.529 25.7068 43.5269 25.7713 43.5214C25.8118 43.5181 25.8523 43.5094 25.8938 43.5094L25.9091 43.5104C26.1148 43.5115 26.3193 43.5487 26.5118 43.6264C26.514 43.6264 26.5151 43.6286 26.5173 43.6297C26.7109 43.7084 26.8924 43.8244 27.0477 43.9797L27.2971 44.2389C27.6088 44.5495 27.7816 44.9597 27.7827 45.3983C27.7827 45.8401 27.6099 46.2579 27.2938 46.5751L24.157 49.7109C23.8497 50.0178 23.4341 50.1916 22.9998 50.1947C22.5656 50.1977 22.1465 50.0299 21.8349 49.7273ZM26.5435 53.119L26.3138 52.8894C26.0032 52.5787 25.8315 52.1631 25.8315 51.7201C25.8315 51.2772 26.0032 50.8615 26.3127 50.5509L28.7901 48.0725C28.9434 47.9174 29.126 47.7944 29.3273 47.7104C29.5286 47.6265 29.7445 47.5834 29.9626 47.5836H29.967C30.4045 47.5836 30.8157 47.7564 31.1438 48.0878L31.3691 48.3033C31.5227 48.4566 31.6443 48.639 31.7269 48.8397C31.8095 49.0404 31.8515 49.2554 31.8504 49.4725C31.8512 49.6896 31.809 49.9047 31.7263 50.1054C31.6435 50.3061 31.5217 50.4883 31.368 50.6417L31.0651 50.9447L31.0585 50.9512C30.9163 51.0584 30.7763 51.1612 30.6363 51.3001L29.5404 52.3961C29.431 52.5055 29.2845 52.6739 29.1499 52.8609L28.8907 53.1201C28.5789 53.4311 28.1564 53.6057 27.716 53.6057C27.2756 53.6057 26.8532 53.4311 26.5413 53.1201L26.5435 53.119ZM33.6212 56.4703C32.9715 57.1123 31.9138 57.1123 31.2849 56.49L31.0399 56.234C30.504 55.6981 30.4165 54.8559 30.8113 54.1964L32.4509 52.5569C32.5887 52.4737 32.7341 52.4103 32.8851 52.3709C32.9398 52.3567 32.9955 52.3556 33.0513 52.3469C33.1771 52.3272 33.304 52.314 33.4298 52.3228C33.4604 52.325 33.491 52.3272 33.5216 52.3315C33.6824 52.3523 33.8388 52.395 33.9876 52.4606C34.0116 52.4715 34.0346 52.4858 34.0576 52.4978C34.2118 52.5755 34.3584 52.6706 34.4841 52.7975L34.7138 53.0272C34.8962 53.2122 35.0321 53.4378 35.1103 53.6856C35.1884 53.9334 35.2066 54.1961 35.1634 54.4523C35.1135 54.5607 35.0827 54.6769 35.0726 54.7958C34.9933 55.0099 34.8695 55.2049 34.7095 55.3678L33.619 56.4692L33.6212 56.4703ZM54.0437 44.7497C53.6838 45.1675 53.1687 45.407 52.6305 45.407C52.4938 45.407 52.3801 45.3764 52.2652 45.349L45.7749 39.2842C45.6733 39.1892 45.554 39.1151 45.4237 39.0662C45.2935 39.0173 45.1549 38.9946 45.0158 38.9992C44.8768 39.0039 44.74 39.0359 44.6134 39.0935C44.4867 39.151 44.3726 39.2329 44.2776 39.3345C44.1826 39.4361 44.1085 39.5555 44.0596 39.6857C44.0107 39.816 43.988 39.9546 43.9926 40.0936C43.9973 40.2326 44.0293 40.3694 44.0868 40.4961C44.1444 40.6227 44.2263 40.7368 44.3279 40.8319L51.0227 47.087L51.8387 47.8614C52.204 48.1972 52.4096 48.6554 52.4184 49.1498C52.4282 49.6508 52.2335 50.1222 51.8627 50.4908C51.6935 50.6607 51.4919 50.7951 51.2698 50.8858C51.0478 50.9765 50.8098 51.0218 50.5699 51.019C50.2341 51.019 49.7474 50.9337 49.322 50.5247L48.0237 49.2975C47.9941 49.2603 47.9668 49.2209 47.9329 49.1881L41.5979 43.1769C41.4969 43.0811 41.3781 43.0061 41.2481 42.9562C41.1182 42.9063 40.9797 42.8825 40.8405 42.8862C40.7014 42.8899 40.5643 42.9209 40.4372 42.9775C40.31 43.0341 40.1953 43.1153 40.0995 43.2162C40.0037 43.3172 39.9287 43.4361 39.8788 43.566C39.8289 43.696 39.8051 43.8345 39.8088 43.9736C39.8125 44.1127 39.8435 44.2498 39.9001 44.377C39.9567 44.5041 40.0379 44.6189 40.1388 44.7147L46.3907 50.6461C46.3995 50.6581 46.4148 50.6625 46.4235 50.6745C46.4476 50.704 46.4673 50.7379 46.4946 50.7642L46.5001 50.7719C47.2329 51.4981 47.2482 52.699 46.5296 53.4504C45.7946 54.2237 44.4515 54.2183 43.7296 53.4329L43.723 53.4286L43.7176 53.4198L37.738 47.1154C37.6422 47.0145 37.5275 46.9335 37.4004 46.8769C37.2733 46.8204 37.1362 46.7894 36.9971 46.7858C36.858 46.7822 36.7196 46.806 36.5897 46.8559C36.4598 46.9058 36.3411 46.9808 36.2402 47.0766C36.1393 47.1724 36.0582 47.2872 36.0016 47.4143C35.9451 47.5414 35.9141 47.6784 35.9105 47.8175C35.9069 47.9566 35.9307 48.0951 35.9806 48.2249C36.0305 48.3548 36.1055 48.4736 36.2013 48.5745L42.1251 54.8209C42.1868 54.898 42.2319 54.987 42.2574 55.0823C42.4762 55.9322 41.9905 56.6212 41.5093 56.9537C41.2916 57.1036 40.526 57.5509 39.7276 57.0194L37.2984 54.5901C37.3016 54.5606 37.2951 54.5322 37.2984 54.5026C37.318 54.2587 37.3202 54.0148 37.2929 53.7742L37.2918 53.7479C37.2597 53.502 37.2033 53.2598 37.1234 53.025C37.1091 52.9801 37.096 52.9364 37.0796 52.8915C36.9963 52.6655 36.8916 52.4479 36.7668 52.2419C36.7427 52.2025 36.7154 52.1653 36.6902 52.1259C36.5521 51.9108 36.3923 51.7103 36.2134 51.5276L35.9837 51.298C35.8341 51.1491 35.672 51.0133 35.4991 50.8922C35.4346 50.8462 35.3646 50.8123 35.2979 50.7708C35.1885 50.7029 35.0802 50.634 34.9654 50.5783C34.8845 50.5389 34.7991 50.5105 34.716 50.4765C34.6088 50.4339 34.5027 50.3901 34.3923 50.3573C34.3037 50.3311 34.214 50.3136 34.1232 50.2939C34.0466 50.2775 33.9712 50.2523 33.8935 50.2392L33.8946 50.225C33.9427 49.9887 33.9657 49.7448 33.9679 49.4987C33.9679 49.4889 33.9712 49.4801 33.9712 49.4714C33.9732 48.9724 33.8754 48.478 33.6834 48.0174C33.4914 47.5569 33.2092 47.1393 32.8534 46.7895L32.6324 46.5773C32.2854 46.2248 31.8716 45.945 31.4153 45.754C30.959 45.563 30.4693 45.4648 29.9746 45.465C29.9462 45.4628 29.9254 45.465 29.9024 45.465V45.3939C29.9034 44.9033 29.8071 44.4174 29.6192 43.9642C29.4313 43.511 29.1554 43.0995 28.8076 42.7536L28.5615 42.4976C28.3978 42.3367 28.2195 42.1913 28.0288 42.0634C27.973 42.0251 27.9162 41.9923 27.8593 41.9573C27.7195 41.8715 27.574 41.7951 27.424 41.7287C27.3638 41.7025 27.3059 41.674 27.2446 41.65C27.0456 41.5719 26.8403 41.5108 26.631 41.4673C26.6605 41.3711 26.678 41.2715 26.6988 41.1742C26.7087 41.1294 26.7218 41.0856 26.7295 41.0408C26.7677 40.8308 26.7874 40.6186 26.7885 40.4053C26.7885 40.3583 26.7841 40.3112 26.783 40.2642C26.7785 40.0882 26.7613 39.9127 26.7316 39.7392C26.7229 39.6856 26.7152 39.6331 26.7043 39.5806C26.6606 39.3683 26.5987 39.16 26.5195 38.9583C26.5074 38.9287 26.4921 38.9014 26.479 38.8729C26.3801 38.6408 26.2577 38.4195 26.1137 38.2123C25.9849 38.0213 25.8396 37.842 25.6795 37.6764L25.4541 37.4609C24.7442 36.757 23.7847 36.3622 22.7849 36.3626C21.7851 36.363 20.826 36.7586 20.1166 37.4631L18.9201 38.6629L12.2154 31.7614L23.8376 20.1392L26.0262 22.3278C26.1245 22.4263 26.2413 22.5044 26.3699 22.5577C26.4984 22.611 26.6362 22.6384 26.7754 22.6384H29.793L23.9426 28.642C23.5538 29.0435 23.2831 29.5443 23.1599 30.0894C23.0367 30.6345 23.0659 31.203 23.2442 31.7327C23.4225 32.2624 23.7431 32.7327 24.1709 33.0924C24.5987 33.452 25.1172 33.687 25.6696 33.7717C26.1027 33.8351 26.5052 33.8669 26.9001 33.8669C28.9856 33.8607 30.9836 33.028 32.4563 31.5514L34.809 29.2075L40.6573 28.9625L52.5507 40.7958L53.9802 42.3795C54.584 43.0555 54.6059 44.0814 54.0415 44.7551L54.0437 44.7497ZM53.3185 38.5612L41.8265 27.1272C41.7254 27.0273 41.6053 26.9488 41.4732 26.8964C41.4415 26.8833 41.4043 26.8854 41.3704 26.8756C41.2752 26.8483 41.1801 26.8176 41.0795 26.8176H41.0346L34.3124 27.0998C34.0479 27.1109 33.797 27.2205 33.6091 27.4072L30.9601 30.0464C30.3188 30.6901 29.5343 31.1727 28.6706 31.4549C27.8069 31.737 26.8887 31.8105 25.9912 31.6695C25.8227 31.6464 25.6642 31.5762 25.5339 31.4671C25.4035 31.358 25.3065 31.2143 25.254 31.0526C25.1972 30.8914 25.1871 30.7175 25.2246 30.5507C25.2621 30.384 25.3458 30.2312 25.4662 30.1098L32.7538 22.6319H45.1865C45.3293 22.6319 45.4707 22.6031 45.6021 22.547C45.7335 22.491 45.8522 22.409 45.951 22.3059L47.7634 20.4192L59.6109 32.2656L53.3185 38.5579V38.5612ZM63.2705 32.9262L47.2471 16.9039L50.9877 13.1633L67.0112 29.1867L63.2705 32.9262Z" fill="white"/>
</svg>
