<svg width="42" height="42" viewBox="0 0 42 42" fill="none" xmlns="http://www.w3.org/2000/svg">
<g clip-path="url(#clip0_3201_4755)">
<g clip-path="url(#clip1_3201_4755)">
<rect width="42" height="42" rx="11" fill="#353535"/>
<path fill-rule="evenodd" clip-rule="evenodd" d="M2.95236 2.95236C0 5.90474 0 10.6565 0 20.16V21.84C0 31.3435 0 36.0953 2.95236 39.0476C5.90474 42 10.6565 42 20.16 42H21.84C31.3435 42 36.0953 42 39.0476 39.0476C42 36.0953 42 31.3435 42 21.84V20.16C42 10.6565 42 5.90474 39.0476 2.95236C36.0953 0 31.3435 0 21.84 0H20.16C10.6565 0 5.90474 0 2.95236 2.95236ZM7.08758 12.7751C7.31506 23.6951 12.775 30.2576 22.3475 30.2576H22.8901V24.0101C26.4076 24.36 29.0674 26.9326 30.1349 30.2576H35.1051C33.7401 25.2876 30.1524 22.5401 27.9124 21.4901C30.1524 20.1951 33.3024 17.0451 34.0549 12.7751H29.5398C28.5598 16.2401 25.6551 19.3901 22.8901 19.6875V12.7751H18.375V24.885C15.575 24.1851 12.0401 20.7901 11.8826 12.7751H7.08758Z" fill="white"/>
</g>
</g>
<defs>
<clipPath id="clip0_3201_4755">
<rect width="42" height="42" rx="9" fill="white"/>
</clipPath>
<clipPath id="clip1_3201_4755">
<rect width="42" height="42" fill="white"/>
</clipPath>
</defs>
</svg>
