<svg width="70" height="70" viewBox="0 0 70 70" fill="none" xmlns="http://www.w3.org/2000/svg">
<path d="M16.4062 60.4224H18.5938V62.5803H16.4062V60.4224Z" fill="white"/>
<path d="M41.5625 47.4747H22.9688V31.2902C22.9688 31.004 22.8535 30.7295 22.6484 30.5272C22.4433 30.3249 22.1651 30.2112 21.875 30.2112H2.1875C1.89742 30.2112 1.61922 30.3249 1.4141 30.5272C1.20898 30.7295 1.09375 31.004 1.09375 31.2902V65.8172C1.09375 66.1033 1.20898 66.3778 1.4141 66.5801C1.61922 66.7825 1.89742 66.8961 2.1875 66.8961H41.5625C41.8526 66.8961 42.1308 66.7825 42.3359 66.5801C42.541 66.3778 42.6562 66.1033 42.6562 65.8172V48.5537C42.6562 48.2675 42.541 47.9931 42.3359 47.7907C42.1308 47.5884 41.8526 47.4747 41.5625 47.4747ZM29.5312 49.6326H33.9062V53.9485H29.5312V49.6326ZM9.84375 32.3691H14.2188V36.685H9.84375V32.3691ZM3.28125 32.3691H7.65625V37.764C7.65625 38.0501 7.77148 38.3246 7.9766 38.5269C8.18172 38.7293 8.45992 38.8429 8.75 38.8429H15.3125C15.6026 38.8429 15.8808 38.7293 16.0859 38.5269C16.291 38.3246 16.4062 38.0501 16.4062 37.764V32.3691H20.7812V47.4747H3.28125V32.3691ZM9.84375 49.6326H14.2188V53.9485H9.84375V49.6326ZM3.28125 49.6326H7.65625V55.0275C7.65625 55.3136 7.77148 55.5881 7.9766 55.7904C8.18172 55.9928 8.45992 56.1065 8.75 56.1065H15.3125C15.6026 56.1065 15.8808 55.9928 16.0859 55.7904C16.291 55.5881 16.4062 55.3136 16.4062 55.0275V49.6326H20.7812V64.7382H3.28125V49.6326ZM40.4688 64.7382H22.9688V49.6326H27.3438V55.0275C27.3438 55.3136 27.459 55.5881 27.6641 55.7904C27.8692 55.9928 28.1474 56.1065 28.4375 56.1065H35C35.2901 56.1065 35.5683 55.9928 35.7734 55.7904C35.9785 55.5881 36.0938 55.3136 36.0938 55.0275V49.6326H40.4688V64.7382Z" fill="white"/>
<path d="M36.0938 60.4223H38.2812V62.5803H36.0938V60.4223ZM16.4062 43.1588H18.5938V45.3168H16.4062V43.1588Z" fill="white"/>
<path d="M65.3685 15.0754C65.4525 15.0955 65.5387 15.1057 65.6252 15.1056C65.8168 15.1055 66.0051 15.0558 66.1712 14.9615C66.3374 14.8672 66.4756 14.7317 66.5721 14.5683C66.6714 14.3958 66.7221 14.2002 66.7189 14.0018V9.71077C66.7189 9.46866 66.6363 9.23358 66.4845 9.04336C66.3326 8.85314 66.1204 8.71882 65.8818 8.66201L34.163 1.10923C33.9944 1.0689 33.8184 1.0689 33.6498 1.10923L1.93103 8.66201C1.69245 8.71882 1.48017 8.85314 1.32833 9.04336C1.17649 9.23358 1.09392 9.46866 1.0939 9.71077V13.996C1.09016 14.222 1.15564 14.4437 1.28175 14.6324C1.40691 14.8139 1.58515 14.9536 1.79275 15.0327C2.00035 15.1119 2.22747 15.1268 2.44386 15.0754L4.37515 14.6156V28.0533H6.56265V14.0948L33.9064 7.58372L61.2501 14.0948V64.7382H54.6876V22.6584C54.6876 22.3722 54.5724 22.0978 54.3673 21.8955C54.1622 21.6931 53.884 21.5794 53.5939 21.5794H14.2189C13.9288 21.5794 13.6506 21.6931 13.4455 21.8955C13.2404 22.0978 13.1252 22.3722 13.1252 22.6584V26.9743C13.1252 27.2604 13.2404 27.5349 13.4455 27.7372C13.6506 27.9396 13.9288 28.0533 14.2189 28.0533H52.5001V30.2112H25.1564V32.3691H52.5001V34.5271H25.1564V36.685H52.5001V38.843H25.1564V41.0009H52.5001V64.7382H44.8439V66.8962H66.7189V64.7382H63.4376V14.6156L65.3685 15.0754ZM15.3127 25.8953V23.7374H52.5001V25.8953H15.3127ZM33.9064 5.39489C33.8199 5.39485 33.7338 5.40499 33.6498 5.4251L3.2814 12.6562V10.5605L33.9064 3.26797L64.5314 10.5605V12.6564L34.163 5.4251C34.079 5.40499 33.9929 5.39485 33.9064 5.39489Z" fill="white"/>
<path d="M36.0938 18.3425C36.964 18.3425 37.7986 18.0014 38.4139 17.3944C39.0293 16.7874 39.375 15.964 39.375 15.1056C39.375 14.2471 39.0293 13.4238 38.4139 12.8167C37.7986 12.2097 36.964 11.8687 36.0938 11.8687H31.7188C30.8485 11.8687 30.0139 12.2097 29.3986 12.8167C28.7832 13.4238 28.4375 14.2471 28.4375 15.1056C28.4375 15.964 28.7832 16.7874 29.3986 17.3944C30.0139 18.0014 30.8485 18.3425 31.7188 18.3425H36.0938ZM30.625 15.1056C30.6253 14.8195 30.7407 14.5452 30.9457 14.343C31.1508 14.1407 31.4288 14.0269 31.7188 14.0266H36.0938C36.3838 14.0266 36.662 14.1403 36.8671 14.3426C37.0723 14.545 37.1875 14.8194 37.1875 15.1056C37.1875 15.3917 37.0723 15.6662 36.8671 15.8685C36.662 16.0709 36.3838 16.1845 36.0938 16.1845H31.7188C31.4288 16.1842 31.1508 16.0704 30.9457 15.8682C30.7407 15.6659 30.6253 15.3916 30.625 15.1056Z" fill="white"/>
</svg>
