<svg width="24" height="24" viewBox="0 0 24 24" fill="none" xmlns="http://www.w3.org/2000/svg">
<path d="M12.226 12.5L14.501 11.125L16.776 12.5L16.176 9.9L18.176 8.175L15.551 7.95L14.501 5.5L13.451 7.95L10.826 8.175L12.826 9.9L12.226 12.5ZM12.701 19H18.301C18.1844 19.4333 17.9844 19.7833 17.701 20.05C17.4177 20.3167 17.051 20.4833 16.601 20.55L5.70104 21.875C5.15104 21.9583 4.65504 21.8293 4.21304 21.488C3.77104 21.1467 3.51704 20.7007 3.45104 20.15L2.12604 9.225C2.05937 8.675 2.19271 8.18333 2.52604 7.75C2.85938 7.31667 3.30104 7.06667 3.85104 7L5.00104 6.85V8.85L4.10104 8.975L5.45104 19.9L12.701 19ZM9.00104 17C8.45104 17 7.98038 16.8043 7.58904 16.413C7.19771 16.0217 7.00171 15.5507 7.00104 15V4C7.00104 3.45 7.19704 2.97933 7.58904 2.588C7.98104 2.19667 8.45171 2.00067 9.00104 2H20.001C20.551 2 21.022 2.196 21.414 2.588C21.806 2.98 22.0017 3.45067 22.001 4V15C22.001 15.55 21.8054 16.021 21.414 16.413C21.0227 16.805 20.5517 17.0007 20.001 17H9.00104ZM9.00104 15H20.001V4H9.00104V15Z" fill="#004290"/>
</svg>
