<svg width="30" height="30" viewBox="0 0 30 30" fill="none" xmlns="http://www.w3.org/2000/svg">
<g clip-path="url(#clip0_2905_11599)">
<path d="M0.975 20.4413C0.983013 20.5417 1.02318 20.6369 1.08954 20.7127C1.15591 20.7885 1.24494 20.841 1.34344 20.8622L2.97703 21.2147C3.03469 21.4931 3.10781 21.7678 3.19641 22.0359L1.95984 23.1563C1.88519 23.224 1.83434 23.3139 1.81483 23.4128C1.79533 23.5117 1.80821 23.6142 1.85156 23.7052C2.06555 24.1597 2.31573 24.5962 2.59969 25.0106C2.65694 25.0934 2.73931 25.1556 2.83462 25.1879C2.92993 25.2202 3.03311 25.221 3.12891 25.1902L4.71656 24.6788C4.90641 24.8916 5.10844 25.0936 5.32125 25.2834L4.80984 26.8711C4.77899 26.9669 4.77979 27.0701 4.81212 27.1654C4.84445 27.2607 4.9066 27.3431 4.98938 27.4003C5.40378 27.6843 5.84034 27.9345 6.29484 28.1484C6.38582 28.1918 6.48835 28.2047 6.58722 28.1852C6.6861 28.1657 6.77605 28.1148 6.84375 28.0402L7.96406 26.8036C8.23266 26.8917 8.50734 26.9653 8.78578 27.023L9.13828 28.6566C9.18188 28.8586 9.35297 29.0081 9.55875 29.025C9.80813 29.0447 10.058 29.0625 10.3125 29.0625C10.567 29.0625 10.8169 29.0447 11.0662 29.025C11.1667 29.017 11.2619 28.9768 11.3377 28.9105C11.4135 28.8441 11.4659 28.7551 11.4872 28.6566L11.8397 27.023C12.1176 26.9656 12.3919 26.8924 12.6614 26.8036L13.7817 28.0402C13.8494 28.1149 13.9393 28.1658 14.0382 28.1853C14.1371 28.2048 14.2397 28.1919 14.3306 28.1484C14.785 27.9343 15.2216 27.6841 15.6361 27.4003C15.7189 27.3431 15.781 27.2607 15.8133 27.1654C15.8457 27.0701 15.8465 26.9669 15.8156 26.8711L15.3042 25.2834C15.517 25.0936 15.7191 24.8916 15.9089 24.6792L17.4966 25.1906C17.5924 25.2216 17.6956 25.2208 17.7909 25.1885C17.8862 25.1561 17.9686 25.0939 18.0258 25.0111C18.3097 24.5967 18.5599 24.1601 18.7739 23.7056C18.8173 23.6147 18.8301 23.5121 18.8106 23.4133C18.7911 23.3144 18.7403 23.2244 18.6656 23.1567L17.4291 22.0364C17.5172 21.7678 17.5908 21.4931 17.6484 21.2147L19.282 20.8622C19.4841 20.8186 19.6336 20.6475 19.6505 20.4417C19.6697 20.1919 19.6875 19.942 19.6875 19.6875C19.6875 19.433 19.6697 19.1831 19.65 18.9338C19.642 18.8333 19.6018 18.7381 19.5355 18.6623C19.4691 18.5865 19.3801 18.5341 19.2816 18.5128L17.648 18.1603C17.5906 17.8824 17.5174 17.6081 17.4286 17.3386L18.6652 16.2183C18.7398 16.1506 18.7907 16.0606 18.8102 15.9618C18.8297 15.8629 18.8168 15.7604 18.7734 15.6694C18.5593 15.215 18.3091 14.7784 18.0253 14.3639C17.9681 14.2811 17.8857 14.2189 17.7904 14.1866C17.6951 14.1542 17.5919 14.1535 17.4961 14.1844L15.9084 14.6958C15.7185 14.4829 15.5166 14.281 15.3037 14.0911L15.8152 12.5034C15.846 12.4077 15.8452 12.3045 15.8129 12.2092C15.7805 12.1139 15.7184 12.0315 15.6356 11.9742C15.2212 11.6903 14.7847 11.4401 14.3302 11.2261C14.2392 11.1826 14.1366 11.1696 14.0377 11.1891C13.9388 11.2087 13.8489 11.2596 13.7812 11.3344L12.6609 12.5709C12.3914 12.4824 12.117 12.4092 11.8392 12.3516L11.4867 10.718C11.4654 10.6196 11.4131 10.5307 11.3373 10.4643C11.2616 10.398 11.1666 10.3577 11.0662 10.3495C10.5644 10.3097 10.0601 10.3097 9.55828 10.3495C9.45784 10.3576 9.36265 10.3977 9.28683 10.4641C9.21101 10.5305 9.15859 10.6195 9.13734 10.718L8.78484 12.3516C8.50641 12.4092 8.23172 12.4824 7.96359 12.5709L6.84328 11.3344C6.77558 11.2597 6.68563 11.2089 6.58675 11.1894C6.48788 11.1699 6.38535 11.1827 6.29438 11.2261C5.83987 11.4401 5.40331 11.6903 4.98891 11.9742C4.90613 12.0315 4.84398 12.1139 4.81165 12.2092C4.77932 12.3045 4.77852 12.4077 4.80938 12.5034L5.32078 14.0911C5.10797 14.2809 4.90594 14.483 4.71609 14.6958L3.12891 14.1844C3.03312 14.1534 2.92989 14.1541 2.83454 14.1864C2.7392 14.2188 2.65684 14.281 2.59969 14.3639C2.31573 14.7783 2.06555 15.2149 1.85156 15.6694C1.80821 15.7604 1.79533 15.8629 1.81483 15.9618C1.83434 16.0606 1.88519 16.1506 1.95984 16.2183L3.19641 17.3386C3.10789 17.6082 3.03465 17.8825 2.97703 18.1603L1.34344 18.5128C1.14141 18.5564 0.991875 18.7275 0.975 18.9333C0.955312 19.1831 0.9375 19.433 0.9375 19.6875C0.9375 19.942 0.955312 20.1919 0.975 20.4413ZM1.88484 19.3552L3.47953 19.0106C3.57163 18.9908 3.65559 18.9436 3.72048 18.8753C3.78537 18.8069 3.82816 18.7207 3.84328 18.6277C3.91359 18.1955 4.02703 17.7713 4.18031 17.3663C4.2137 17.2782 4.21975 17.1821 4.19767 17.0905C4.1756 16.9989 4.12642 16.9162 4.05656 16.853L2.85234 15.7617C2.95734 15.5606 3.06703 15.368 3.18047 15.1856L4.72547 15.6834C4.90828 15.742 5.10984 15.6834 5.23219 15.5344C5.50966 15.1953 5.82026 14.8847 6.15938 14.6072C6.30844 14.4853 6.36797 14.2842 6.30844 14.1005L5.81063 12.5555C5.99297 12.4416 6.18516 12.3319 6.38672 12.2274L7.47797 13.432C7.60781 13.575 7.81219 13.6242 7.99172 13.5558C8.39967 13.4015 8.82211 13.2885 9.25266 13.2188C9.34565 13.2036 9.43194 13.1608 9.50025 13.096C9.56857 13.0311 9.61574 12.9471 9.63562 12.855L9.97969 11.2603C10.2005 11.2486 10.425 11.2481 10.6448 11.2603L10.9894 12.855C11.0093 12.9471 11.0564 13.0311 11.1247 13.096C11.1931 13.1608 11.2793 13.2036 11.3723 13.2188C11.8045 13.2891 12.2288 13.4025 12.6337 13.5558C12.7218 13.5892 12.8179 13.5953 12.9095 13.5733C13.0011 13.5512 13.0839 13.502 13.147 13.432L14.2383 12.2278C14.4394 12.3328 14.632 12.4425 14.8144 12.5559L14.3166 14.1009C14.2575 14.2847 14.3166 14.4853 14.4656 14.6077C14.8047 14.8851 15.1153 15.1957 15.3928 15.5349C15.4523 15.608 15.5326 15.6613 15.6231 15.6879C15.7135 15.7145 15.8099 15.7131 15.8995 15.6839L17.4445 15.1861C17.5584 15.3684 17.6681 15.5606 17.7727 15.7617L16.568 16.853C16.4981 16.9162 16.4489 16.9991 16.4268 17.0908C16.4047 17.1824 16.4108 17.2786 16.4442 17.3667C16.5975 17.7708 16.7109 18.195 16.7812 18.6277C16.7964 18.7207 16.8392 18.8069 16.904 18.8753C16.9689 18.9436 17.0529 18.9908 17.145 19.0106L18.7397 19.3547C18.7458 19.4649 18.75 19.5759 18.75 19.6875C18.75 19.7991 18.7463 19.9102 18.7402 20.0199L17.1455 20.3644C17.0534 20.3843 16.9694 20.4314 16.9045 20.4998C16.8396 20.5681 16.7968 20.6544 16.7817 20.7474C16.7118 21.178 16.5989 21.6006 16.4447 22.0088C16.4113 22.0968 16.4052 22.1929 16.4273 22.2845C16.4494 22.3761 16.4986 22.4589 16.5684 22.522L17.7727 23.6133C17.6677 23.8144 17.558 24.007 17.4445 24.1894L15.8995 23.6916C15.8099 23.6623 15.7135 23.6609 15.623 23.6875C15.5326 23.7141 15.4523 23.7675 15.3928 23.8406C15.1152 24.1796 14.8046 24.4902 14.4656 24.7678C14.3166 24.8897 14.2575 25.0908 14.3166 25.2741L14.8144 26.8191C14.632 26.933 14.4398 27.0427 14.2387 27.1472L13.1475 25.9425C13.0841 25.8728 13.0012 25.8238 12.9096 25.8017C12.818 25.7797 12.7219 25.7856 12.6337 25.8188C12.2297 25.972 11.8055 26.0855 11.3728 26.1558C11.2798 26.1709 11.1935 26.2137 11.1252 26.2786C11.0569 26.3435 11.0097 26.4274 10.9898 26.5195L10.6458 28.1142C10.425 28.1259 10.2005 28.1264 9.98063 28.1142L9.63609 26.5195C9.61621 26.4274 9.56903 26.3435 9.50072 26.2786C9.4324 26.2137 9.34612 26.1709 9.25313 26.1558C8.82246 26.0858 8.39988 25.9729 7.99172 25.8188C7.90365 25.7853 7.80753 25.7792 7.71595 25.8013C7.62437 25.8234 7.54158 25.8726 7.47844 25.9425L6.38719 27.1467C6.19111 27.0446 5.99895 26.9352 5.81109 26.8186L6.30891 25.2736C6.36797 25.0899 6.30891 24.8892 6.15984 24.7669C5.82073 24.4894 5.51013 24.1788 5.23266 23.8397C5.173 23.7668 5.09272 23.7135 5.00232 23.6869C4.91191 23.6603 4.81559 23.6616 4.72594 23.6906L3.18094 24.1884C3.06393 24.0009 2.95447 23.8087 2.85281 23.6124L4.0575 22.5211C4.1274 22.4578 4.17659 22.375 4.19867 22.2833C4.22075 22.1917 4.21468 22.0955 4.18125 22.0074C4.02691 21.5994 3.91399 21.177 3.84422 20.7464C3.8291 20.6534 3.7863 20.5671 3.72142 20.4988C3.65653 20.4305 3.57257 20.3833 3.48047 20.3634L1.88484 20.0203C1.87922 19.9102 1.875 19.7991 1.875 19.6875C1.875 19.5759 1.87875 19.4649 1.88484 19.3552ZM25.4152 7.61017C25.5015 7.58298 25.5781 7.53137 25.6358 7.46158C25.6934 7.39179 25.7296 7.30681 25.74 7.21689C25.7681 6.98017 25.7812 6.76595 25.7812 6.56251C25.7812 6.35907 25.7681 6.14486 25.7405 5.90814C25.7301 5.81822 25.6939 5.73323 25.6362 5.66344C25.5786 5.59365 25.502 5.54205 25.4156 5.51486L24.1158 5.10657C24.077 5.00045 24.0339 4.89598 23.9864 4.79345L24.6164 3.58642C24.6582 3.50618 24.6759 3.41559 24.6674 3.32554C24.6589 3.23548 24.6246 3.14979 24.5686 3.07876C24.2963 2.73472 23.985 2.42342 23.6409 2.15111C23.57 2.09502 23.4843 2.06063 23.3942 2.05207C23.3042 2.0435 23.2136 2.06113 23.1333 2.10282L21.9253 2.73282C21.8227 2.68572 21.7182 2.64272 21.6122 2.60392L21.2039 1.30407C21.1767 1.21774 21.1251 1.14112 21.0553 1.08347C20.9855 1.02583 20.9005 0.989623 20.8106 0.97923C20.376 0.923916 19.9361 0.923916 19.5014 0.97923C19.4115 0.989623 19.3265 1.02583 19.2567 1.08347C19.1869 1.14112 19.1353 1.21774 19.1081 1.30407L18.6998 2.60392C18.5934 2.64282 18.4889 2.68595 18.3867 2.73329L17.1797 2.10329C17.0994 2.06165 17.0089 2.04401 16.9188 2.05249C16.8288 2.06097 16.7431 2.09521 16.672 2.15111C16.328 2.42342 16.0167 2.73472 15.7444 3.07876C15.6882 3.14969 15.6537 3.23537 15.6452 3.32545C15.6366 3.41553 15.6543 3.50617 15.6961 3.58642L16.3256 4.79345C16.2787 4.89564 16.2356 5.00017 16.1967 5.10657L14.8969 5.51486C14.8105 5.54205 14.7339 5.59365 14.6763 5.66344C14.6186 5.73323 14.5824 5.81822 14.572 5.90814C14.5444 6.14486 14.5312 6.35907 14.5312 6.56251C14.5312 6.76595 14.5444 6.98017 14.572 7.21689C14.5824 7.30681 14.6186 7.39179 14.6763 7.46158C14.7339 7.53137 14.8105 7.58298 14.8969 7.61017L16.1967 8.01845C16.2356 8.12486 16.2787 8.22939 16.3261 8.33157L15.6961 9.53861C15.6108 9.7022 15.6295 9.90095 15.7439 10.0463C16.0162 10.3903 16.3275 10.7016 16.6716 10.9739C16.8164 11.0888 17.0156 11.107 17.1792 11.0222L18.3862 10.3927C18.4884 10.4395 18.593 10.4827 18.6994 10.5216L19.1077 11.8214C19.1348 11.9078 19.1865 11.9844 19.2562 12.042C19.326 12.0997 19.411 12.1359 19.5009 12.1463C19.7386 12.1744 19.9528 12.1875 20.1562 12.1875C20.3597 12.1875 20.5739 12.1744 20.8106 12.1467C20.9005 12.1363 20.9855 12.1001 21.0553 12.0425C21.1251 11.9848 21.1767 11.9082 21.2039 11.8219L21.6122 10.522C21.7186 10.4831 21.8231 10.44 21.9253 10.3927L23.1323 11.0227C23.2125 11.0645 23.3032 11.0823 23.3932 11.0738C23.4833 11.0653 23.569 11.031 23.64 10.9749C23.984 10.7025 24.2953 10.3912 24.5677 10.0472C24.6238 9.97627 24.6583 9.89059 24.6669 9.80051C24.6754 9.71043 24.6577 9.61979 24.6159 9.53954L23.9859 8.33251C24.0333 8.23032 24.0764 8.12579 24.1153 8.01939L25.4152 7.61017ZM23.6058 7.19579C23.4577 7.24267 23.3423 7.35939 23.2973 7.50845C23.2343 7.71845 23.1504 7.92164 23.047 8.11501C23.0107 8.18233 22.9914 8.25754 22.9909 8.33404C22.9904 8.41053 23.0087 8.48598 23.0442 8.55376L23.6391 9.69376C23.528 9.81704 23.4103 9.9347 23.2875 10.0453L22.1475 9.45048C22.0797 9.41512 22.0043 9.39689 21.9278 9.39738C21.8513 9.39787 21.7761 9.41707 21.7087 9.45329C21.5154 9.55667 21.3122 9.64052 21.1022 9.70361C21.0289 9.72569 20.9621 9.76532 20.9076 9.81907C20.8531 9.87282 20.8126 9.93906 20.7895 10.012L20.4033 11.242C20.2388 11.2524 20.0737 11.2524 19.9092 11.242L19.523 10.012C19.4999 9.93906 19.4594 9.87282 19.4049 9.81907C19.3504 9.76532 19.2836 9.72569 19.2103 9.70361C19.0004 9.64077 18.7973 9.55691 18.6042 9.45329C18.5368 9.41699 18.4615 9.39775 18.385 9.39726C18.3084 9.39677 18.2329 9.41504 18.165 9.45048L17.025 10.0453C16.9018 9.93431 16.7845 9.81696 16.6734 9.69376L17.2683 8.55376C17.3036 8.48595 17.3219 8.41051 17.3214 8.33404C17.3209 8.25756 17.3017 8.18237 17.2655 8.11501C17.1621 7.92164 17.0782 7.71845 17.0152 7.50845C16.9931 7.43516 16.9534 7.36838 16.8997 7.31389C16.8459 7.25941 16.7797 7.21886 16.7067 7.19579L15.4767 6.80954C15.4659 6.64503 15.4659 6.47999 15.4767 6.31548L16.7067 5.92923C16.8548 5.88236 16.9702 5.76564 17.0152 5.61657C17.0789 5.40423 17.1633 5.20032 17.2655 5.01048C17.3018 4.94307 17.321 4.86779 17.3215 4.79122C17.322 4.71465 17.3037 4.63913 17.2683 4.57126L16.6734 3.43126C16.7845 3.30798 16.9022 3.19032 17.025 3.0797L18.165 3.67454C18.3023 3.74626 18.4673 3.74486 18.6038 3.67173C18.7971 3.56836 19.0003 3.4845 19.2103 3.42142C19.3589 3.37689 19.4761 3.2611 19.523 3.11298L19.9092 1.88298C20.0737 1.87267 20.2388 1.87267 20.4033 1.88298L20.7895 3.11298C20.8364 3.2611 20.9531 3.37642 21.1022 3.42142C21.3145 3.48517 21.5184 3.56954 21.7083 3.67173C21.7757 3.70804 21.851 3.72727 21.9275 3.72776C22.0041 3.72825 22.0796 3.70998 22.1475 3.67454L23.2875 3.0797C23.4108 3.19079 23.5284 3.30845 23.6391 3.43126L23.0442 4.57126C23.0089 4.63907 22.9906 4.71451 22.9911 4.79099C22.9916 4.86746 23.0108 4.94266 23.047 5.01001C23.1492 5.20079 23.2336 5.4047 23.2973 5.61657C23.3419 5.76517 23.4577 5.88236 23.6058 5.92923L24.8358 6.31548C24.8466 6.47999 24.8466 6.64503 24.8358 6.80954L23.6058 7.19579ZM28.7166 16.3894L27.9112 16.1034C27.8656 15.973 27.8129 15.8452 27.7533 15.7205L28.1194 14.9494C28.1568 14.8709 28.1716 14.7834 28.1619 14.6969C28.1523 14.6105 28.1188 14.5284 28.065 14.46C27.83 14.1597 27.5594 13.889 27.2592 13.6538C27.1907 13.6001 27.1085 13.5666 27.022 13.557C26.9355 13.5474 26.848 13.5621 26.7694 13.5994L25.9978 13.9655C25.8733 13.906 25.7456 13.8534 25.6153 13.808L25.3289 13.0027C25.2996 12.9206 25.2481 12.8482 25.18 12.7938C25.112 12.7393 25.0301 12.7048 24.9436 12.6942C24.566 12.6441 24.1835 12.6441 23.8059 12.6942C23.7194 12.7047 23.6374 12.7391 23.5693 12.7936C23.5013 12.8481 23.4498 12.9205 23.4206 13.0027L23.1347 13.808C23.0039 13.8539 22.8759 13.9064 22.7517 13.9659L21.9806 13.5999C21.902 13.5626 21.8146 13.548 21.7282 13.5576C21.6418 13.5672 21.5597 13.6007 21.4912 13.6542C21.1917 13.8886 20.9203 14.1595 20.685 14.46C20.6314 14.5286 20.598 14.6107 20.5884 14.6972C20.5788 14.7837 20.5934 14.8712 20.6306 14.9499L20.9967 15.7214C20.9372 15.8459 20.8846 15.9736 20.8392 16.1039L20.0339 16.3903C19.9518 16.4196 19.8795 16.4712 19.825 16.5392C19.7705 16.6073 19.7361 16.6891 19.7255 16.7756C19.6997 16.9833 19.6875 17.1694 19.6875 17.3438C19.6875 17.5181 19.6997 17.7038 19.725 17.9124C19.7461 18.0886 19.8656 18.2381 20.0334 18.2977L20.8388 18.5836C20.8847 18.7144 20.9372 18.8424 20.9967 18.9666L20.6306 19.7377C20.5932 19.8162 20.5784 19.9036 20.5881 19.9901C20.5977 20.0766 20.6312 20.1586 20.685 20.227C20.9194 20.5266 21.1903 20.798 21.4908 21.0333C21.6305 21.1425 21.8208 21.1636 21.9806 21.0877L22.7522 20.7216C22.8759 20.7806 23.0039 20.8336 23.1347 20.8791L23.4211 21.6844C23.4806 21.8517 23.6302 21.9713 23.8064 21.9928C24.015 22.0191 24.2006 22.0313 24.375 22.0313C24.5494 22.0313 24.735 22.0191 24.9436 21.9938C25.0302 21.9833 25.1121 21.9489 25.1802 21.8944C25.2483 21.8399 25.2998 21.7675 25.3289 21.6853L25.6148 20.88C25.7456 20.8341 25.8736 20.7816 25.9978 20.722L26.7689 21.0881C26.8474 21.1257 26.9349 21.1405 27.0214 21.1309C27.1079 21.1213 27.1899 21.0876 27.2583 21.0338C27.5578 20.7994 27.8292 20.5285 28.0645 20.228C28.1737 20.0883 28.1948 19.8985 28.1189 19.7381L27.7528 18.9666C27.8119 18.8428 27.8648 18.7149 27.9103 18.5841L28.7156 18.2977C28.883 18.2381 29.0025 18.0886 29.0241 17.9124C29.0503 17.7038 29.0625 17.5181 29.0625 17.3438C29.0625 17.1694 29.0503 16.9838 29.025 16.7752C29.0146 16.6885 28.9802 16.6065 28.9257 16.5384C28.8712 16.4702 28.7988 16.4186 28.7166 16.3894ZM28.1203 17.5149L27.3773 17.7788C27.3064 17.804 27.2426 17.8459 27.1912 17.9009C27.1399 17.956 27.1026 18.0226 27.0825 18.0952C27.022 18.3155 26.9346 18.5276 26.8223 18.7266C26.7473 18.8592 26.7417 19.0205 26.8069 19.1583L27.1434 19.8675C27.0656 19.9528 26.9841 20.0344 26.8992 20.1117L26.19 19.7752C26.122 19.743 26.0474 19.7277 25.9723 19.7304C25.8971 19.7331 25.8238 19.7537 25.7583 19.7906C25.5614 19.9022 25.3491 19.9894 25.1273 20.0508C25.0548 20.071 24.9881 20.1083 24.933 20.1596C24.8779 20.2109 24.8358 20.2747 24.8105 20.3456L24.5466 21.0886C24.4326 21.0947 24.3184 21.0947 24.2044 21.0886L23.9405 20.3456C23.9153 20.2747 23.8734 20.2109 23.8183 20.1595C23.7632 20.1082 23.6966 20.0709 23.6241 20.0508C23.4037 19.9903 23.1917 19.9029 22.9927 19.7906C22.9271 19.7539 22.8538 19.7334 22.7787 19.7307C22.7036 19.728 22.6289 19.7432 22.5609 19.7752L21.8517 20.1117C21.7666 20.0341 21.6851 19.9526 21.6075 19.8675L21.9441 19.1583C21.9763 19.0904 21.9917 19.0157 21.989 18.9405C21.9863 18.8654 21.9656 18.792 21.9286 18.7266C21.8164 18.5277 21.729 18.3158 21.6684 18.0956C21.6482 18.0231 21.6109 17.9564 21.5596 17.9013C21.5083 17.8462 21.4445 17.8041 21.3736 17.7788L20.6306 17.5149C20.6228 17.4009 20.6224 17.2866 20.6297 17.1727L21.3727 16.9083C21.4436 16.8832 21.5074 16.8413 21.5587 16.7862C21.6099 16.7311 21.6471 16.6644 21.667 16.5919C21.7278 16.3716 21.8154 16.1595 21.9277 15.9605C22.0027 15.8278 22.0083 15.6666 21.9431 15.5288L21.6066 14.8195C21.6844 14.7342 21.7659 14.6527 21.8508 14.5753L22.56 14.9119C22.6978 14.9775 22.8591 14.9719 22.9917 14.8964C23.1886 14.7849 23.4009 14.6977 23.6227 14.6363C23.7698 14.5955 23.888 14.4853 23.9395 14.3414L24.2034 13.5984C24.3169 13.5924 24.4322 13.5924 24.5456 13.5984L24.8095 14.3414C24.8347 14.4124 24.8766 14.4762 24.9317 14.5275C24.9868 14.5788 25.0534 14.6161 25.1259 14.6363C25.3463 14.6968 25.5583 14.7842 25.7573 14.8964C25.8228 14.9335 25.8961 14.9543 25.9713 14.957C26.0465 14.9597 26.1212 14.9442 26.1891 14.9119L26.8983 14.5753C26.9836 14.6531 27.0652 14.7347 27.1425 14.8195L26.8059 15.5288C26.7737 15.5967 26.7583 15.6714 26.761 15.7465C26.7637 15.8216 26.7844 15.895 26.8214 15.9605C26.933 16.1574 27.0202 16.3697 27.0816 16.5914C27.1223 16.7386 27.2325 16.8567 27.3764 16.9083L28.1194 17.1722C28.1272 17.2863 28.1275 17.4007 28.1203 17.5149Z" fill="#004290"/>
<path d="M10.3139 24.8437C13.1569 24.8437 15.4702 22.5304 15.4702 19.6874C15.4702 16.8445 13.1569 14.5312 10.3139 14.5312C7.47094 14.5312 5.15766 16.8445 5.15766 19.6874C5.15766 22.5304 7.47094 24.8437 10.3139 24.8437ZM10.3139 15.4687C12.6398 15.4687 14.5327 17.3615 14.5327 19.6874C14.5327 22.0134 12.6398 23.9062 10.3139 23.9062C7.98797 23.9062 6.09516 22.0134 6.09516 19.6874C6.09516 17.3615 7.98797 15.4687 10.3139 15.4687ZM0.949219 11.887L1.66922 12.4874C2.72401 11.2186 4.0455 10.1979 5.53966 9.49785C7.03382 8.79784 8.6639 8.43578 10.3139 8.43743C10.5525 8.43743 10.7906 8.45102 11.0288 8.46602L10.4513 9.04352L11.1141 9.70634L12.5203 8.30009C12.5639 8.25659 12.5984 8.20493 12.622 8.14807C12.6456 8.0912 12.6578 8.03024 12.6578 7.96868C12.6578 7.90712 12.6456 7.84616 12.622 7.78929C12.5984 7.73243 12.5639 7.68077 12.5203 7.63727L11.1141 6.23102L10.4513 6.89384L11.0883 7.53087C10.8305 7.51236 10.5723 7.50204 10.3139 7.49993C8.52651 7.49814 6.76068 7.89033 5.14208 8.64859C3.52349 9.40685 2.09191 10.5125 0.949219 11.887ZM20.1577 4.21868C18.8653 4.21868 17.8139 5.27009 17.8139 6.56243C17.8139 7.85477 18.8653 8.90618 20.1577 8.90618C21.45 8.90618 22.5014 7.85477 22.5014 6.56243C22.5014 5.27009 21.45 4.21868 20.1577 4.21868ZM20.1577 7.96868C19.3823 7.96868 18.7514 7.33774 18.7514 6.56243C18.7514 5.78712 19.3823 5.15618 20.1577 5.15618C20.933 5.15618 21.5639 5.78712 21.5639 6.56243C21.5639 7.33774 20.933 7.96868 20.1577 7.96868ZM24.3764 15.4687C23.3423 15.4687 22.5014 16.3096 22.5014 17.3437C22.5014 18.3777 23.3423 19.2187 24.3764 19.2187C25.4105 19.2187 26.2514 18.3777 26.2514 17.3437C26.2514 16.3096 25.4105 15.4687 24.3764 15.4687ZM24.3764 18.2812C23.8594 18.2812 23.4389 17.8607 23.4389 17.3437C23.4389 16.8266 23.8594 16.4062 24.3764 16.4062C24.8934 16.4062 25.3139 16.8266 25.3139 17.3437C25.3139 17.8607 24.8934 18.2812 24.3764 18.2812ZM28.687 2.35306L26.3433 1.88431C26.2829 1.87208 26.2207 1.8719 26.1603 1.88377C26.0999 1.89564 26.0424 1.91932 25.9911 1.95347C25.9398 1.98761 25.8958 2.03154 25.8616 2.08274C25.8273 2.13394 25.8035 2.19139 25.7916 2.25181L25.3228 4.59556L26.242 4.77977L26.4947 3.5179C26.9513 4.46791 27.1885 5.50839 27.1889 6.56243C27.195 8.16096 26.6504 9.71283 25.6467 10.957L26.3784 11.5434C27.5084 10.129 28.1247 8.3728 28.1264 6.56243C28.1264 5.33477 27.8428 4.12446 27.3033 3.03227L28.5033 3.27227L28.687 2.35306Z" fill="#004290"/>
</g>
<defs>
<clipPath id="clip0_2905_11599">
<rect width="30" height="30" fill="white"/>
</clipPath>
</defs>
</svg>
