<svg width="30" height="30" viewBox="0 0 30 30" fill="none" xmlns="http://www.w3.org/2000/svg">
<path d="M21.6853 9.14307L20.925 10.547C20.6269 11.0959 21.4557 11.5365 21.7491 10.9932L22.5094 9.58932C22.8047 9.0451 21.9802 8.59745 21.6853 9.14307Z" fill="#004290"/>
<path d="M27.4542 12.855L22.9125 4.46442C22.8723 4.39012 22.8128 4.32807 22.7402 4.28482C22.6676 4.24158 22.5847 4.21875 22.5002 4.21875C22.4158 4.21875 22.3328 4.24158 22.2603 4.28482C22.1877 4.32807 22.1282 4.39012 22.088 4.46442L18.7219 10.6791L15.4139 4.46723C15.3739 4.39225 15.3142 4.32955 15.2413 4.28584C15.1684 4.24212 15.085 4.21903 15 4.21903C14.915 4.21903 14.8316 4.24212 14.7587 4.28584C14.6858 4.32955 14.6261 4.39225 14.5861 4.46723L11.2758 10.6824L7.91203 4.46442C7.87183 4.39012 7.81229 4.32807 7.73972 4.28482C7.66715 4.24158 7.58424 4.21875 7.49977 4.21875C7.41529 4.21875 7.33238 4.24158 7.25981 4.28482C7.18724 4.32807 7.1277 4.39012 7.0875 4.46442L2.54531 12.8555C2.1071 13.6688 1.87682 14.5778 1.875 15.5016C1.875 18.585 4.39828 21.0938 7.5 21.0938C7.79297 21.0938 8.08219 21.0633 8.36812 21.0193C9.32812 23.7872 11.9344 25.7813 15 25.7813C18.0656 25.7813 20.6719 23.7872 21.6319 21.0193C21.9178 21.0633 22.207 21.0938 22.5 21.0938C25.6017 21.0938 28.125 18.585 28.125 15.5016C28.125 14.5843 27.8934 13.6697 27.4542 12.855ZM7.5 20.1563C4.91531 20.1563 2.8125 18.068 2.8125 15.5016C2.8125 14.7394 3.00563 13.9782 3.37031 13.3013L7.5 5.67239L10.7475 11.6747L8.80313 15.3254C8.25634 16.3602 7.96995 17.5126 7.96875 18.683C7.96875 19.1729 8.01844 19.6515 8.11219 20.1136C7.91016 20.1399 7.70625 20.1563 7.5 20.1563ZM15 24.8438C11.64 24.8438 8.90625 22.08 8.90625 18.683C8.90625 17.67 9.15703 16.6608 9.63094 15.7655L15 5.68458L20.3672 15.7646C20.8434 16.6637 21.0929 17.6655 21.0938 18.683C21.0938 22.08 18.36 24.8438 15 24.8438ZM22.5 20.1563C22.2938 20.1563 22.0898 20.1399 21.8878 20.1136C22.2171 18.4852 21.9725 16.7929 21.1955 15.3244L19.2502 11.6715L22.5 5.67192L26.6297 13.3004C26.9942 13.9769 27.1859 14.7331 27.1875 15.5016C27.1875 18.068 25.0847 20.1563 22.5 20.1563Z" fill="#004290"/>
<path d="M6.70687 9.10655L5.90063 10.5953C5.60344 11.1442 6.43125 11.5844 6.72516 11.0415L7.53141 9.5528C7.82672 9.00811 7.00312 8.56092 6.70687 9.10655ZM4.6875 15.5017C4.6875 14.6317 5.07469 14.1198 5.12719 13.9942C5.42156 13.449 4.59797 13.0028 4.30219 13.5484C4.22953 13.7242 3.75 14.3247 3.75 15.5017C3.75 16.2465 3.97219 16.9656 4.39312 17.5811C4.74094 18.0892 5.52 17.5684 5.16703 17.0519C4.8542 16.5955 4.68701 16.055 4.6875 15.5017ZM12.6562 17.8126C13.6903 17.8126 14.5312 16.9717 14.5312 15.9376C14.5312 14.9036 13.6903 14.0626 12.6562 14.0626C11.6222 14.0626 10.7812 14.9036 10.7812 15.9376C10.7812 16.9717 11.6222 17.8126 12.6562 17.8126ZM12.6562 15.0001C13.1733 15.0001 13.5938 15.4206 13.5938 15.9376C13.5938 16.4547 13.1733 16.8751 12.6562 16.8751C12.1392 16.8751 11.7188 16.4547 11.7188 15.9376C11.7188 15.4206 12.1392 15.0001 12.6562 15.0001ZM17.3438 18.7501C16.3097 18.7501 15.4688 19.5911 15.4688 20.6251C15.4688 21.6592 16.3097 22.5001 17.3438 22.5001C18.3778 22.5001 19.2188 21.6592 19.2188 20.6251C19.2188 19.5911 18.3778 18.7501 17.3438 18.7501ZM17.3438 21.5626C16.8267 21.5626 16.4062 21.1422 16.4062 20.6251C16.4062 20.1081 16.8267 19.6876 17.3438 19.6876C17.8608 19.6876 18.2812 20.1081 18.2812 20.6251C18.2812 21.1422 17.8608 21.5626 17.3438 21.5626ZM17.9498 14.6687L11.3873 21.2312C10.943 21.6756 11.618 22.3262 12.0502 21.894L18.6127 15.3315C19.0514 14.8928 18.3881 14.2305 17.9498 14.6687Z" fill="#004290"/>
</svg>
