<svg width="30" height="30" viewBox="0 0 30 30" fill="none" xmlns="http://www.w3.org/2000/svg">
<g clip-path="url(#clip0_2905_11526)">
<path d="M19.8525 22.0184C22.2793 22.0184 22.2793 23.1903 24.7062 23.1903C26.3106 23.1903 26.8544 22.6781 27.7398 22.331M2.5625 21.8383C3.08275 22.0761 3.67291 22.2803 4.68576 22.2803C7.11248 22.2803 7.11248 21.1084 9.5392 21.1084M21.3696 18.1851H24.7168C24.7945 18.1851 24.869 18.1542 24.924 18.0993C24.9789 18.0444 25.0098 17.9698 25.0098 17.8921V14.8379C25.0098 14.7602 24.9789 14.6857 24.924 14.6308C24.869 14.5758 24.7945 14.545 24.7168 14.545H21.3696M17.488 21.5401C16.7728 22.0081 15.9179 22.2803 14.9994 22.2803C12.4864 22.2803 10.4492 20.2431 10.4492 17.7301C10.4492 15.2172 12.4864 13.18 14.9994 13.18C17.5123 13.18 19.5495 15.2172 19.5495 17.7301C19.5495 18.5623 19.3261 19.3424 18.9359 20.0136M23.1897 14.09V18.6401M8.62912 18.1851H5.28195C5.20425 18.1851 5.12974 18.1542 5.07479 18.0993C5.01985 18.0444 4.98898 17.9698 4.98898 17.8921V14.8379C4.98898 14.7602 5.01985 14.6857 5.07479 14.6308C5.12974 14.5758 5.20425 14.545 5.28195 14.545H8.62912M6.80908 14.09V18.6401M11.7819 25.4977C13.5589 27.2747 16.4399 27.2747 18.2169 25.4977M13.0689 24.2108C14.1351 25.2769 15.8637 25.2769 16.9299 24.2108M18.3074 5.50806L19.5495 6.02257L19.035 7.2647" stroke="#004290" stroke-miterlimit="10" stroke-linecap="round" stroke-linejoin="round"/>
<path d="M10.4492 6.02225C11.3347 6.73498 12.597 6.73498 13.4825 6.0223L13.4827 6.02207C14.3681 5.30939 15.6304 5.30939 16.5158 6.02195L16.5166 6.02254C17.402 6.7351 18.6641 6.7351 19.5496 6.02254M18.3074 9.10533L19.5495 9.61984L19.035 10.862" stroke="#004290" stroke-miterlimit="10" stroke-linecap="round" stroke-linejoin="round"/>
<path d="M10.4508 9.61941C11.3362 10.3321 12.5985 10.3321 13.4841 9.61947L13.4843 9.61924C14.3697 8.90656 15.6319 8.90656 16.5174 9.61912L16.5182 9.61971C17.4036 10.3323 18.6657 10.3323 19.5512 9.61971M8.1249 4.62793C7.57576 5.69035 7.26562 6.89633 7.26562 8.17473C7.26562 10.5477 8.33414 12.671 10.0162 14.0899" stroke="#004290" stroke-miterlimit="10" stroke-linecap="round" stroke-linejoin="round"/>
<path d="M19.9847 14.09C21.6668 12.671 22.7353 10.5477 22.7353 8.17477C22.7353 3.90264 19.2721 0.439453 15 0.439453C12.7317 0.439453 10.6914 1.41586 9.27644 2.97123M0.439453 25.535V28.9746C0.439453 29.2982 0.701777 29.5605 1.02539 29.5605H28.9746C29.2982 29.5605 29.5605 29.2982 29.5605 28.9746V16.5244C29.5605 16.1759 29.2581 15.9057 28.9116 15.9417C27.1973 16.1197 26.92 16.9917 25.0104 17.0754M4.98961 17.0754C3.07992 16.9918 2.80266 16.1198 1.08844 15.9417C0.741855 15.9057 0.439453 16.176 0.439453 16.5244V23.4842M12.2109 14.09H8.92272C8.84502 14.09 8.7705 14.1208 8.71555 14.1758C8.66061 14.2307 8.62975 14.3052 8.62975 14.3829V18.3472C8.62975 18.4249 8.66061 18.4994 8.71555 18.5543C8.7705 18.6093 8.84502 18.6401 8.92272 18.6401H10.4822" stroke="#004290" stroke-miterlimit="10" stroke-linecap="round" stroke-linejoin="round"/>
<path d="M19.5177 18.6402H21.0772C21.1549 18.6402 21.2294 18.6094 21.2844 18.5544C21.3393 18.4995 21.3702 18.425 21.3702 18.3473V14.3831C21.3702 14.3054 21.3393 14.2308 21.2844 14.1759C21.2294 14.121 21.1549 14.0901 21.0772 14.0901H17.7891" stroke="#004290" stroke-miterlimit="10" stroke-linecap="round" stroke-linejoin="round"/>
</g>
<defs>
<clipPath id="clip0_2905_11526">
<rect width="30" height="30" fill="white"/>
</clipPath>
</defs>
</svg>
