<svg width="30" height="30" viewBox="0 0 30 30" fill="none" xmlns="http://www.w3.org/2000/svg">
<path fill-rule="evenodd" clip-rule="evenodd" d="M23.6212 3.60882H25.636C26.2795 3.60882 26.8011 4.13046 26.8011 4.77393V28.3642C26.8011 29.0078 26.2795 29.5294 25.636 29.5294H4.36434C3.72087 29.5294 3.19922 29.0078 3.19922 28.3642V4.77393C3.19922 4.13046 3.72087 3.60882 4.36434 3.60882H6.37916V1.63576C6.37916 1.32673 6.50192 1.03037 6.72043 0.811853C6.93895 0.59334 7.23531 0.470581 7.54434 0.470581H22.456C22.609 0.470573 22.7605 0.500706 22.9019 0.559259C23.0433 0.617812 23.1717 0.703638 23.2799 0.811836C23.3881 0.920034 23.4739 1.04849 23.5325 1.18985C23.591 1.33122 23.6212 1.48274 23.6212 1.63576V3.60882ZM8.71963 28.7059H21.2807V25.8446H8.71963V28.7059ZM16.9928 21.4063H13.0075V25.0211H16.9928V21.4063ZM15.0002 21.9732C15.6848 21.9732 16.2406 22.5291 16.2406 23.2137C16.2406 23.8983 15.6848 24.4542 15.0002 24.4542C14.3155 24.4542 13.7597 23.8983 13.7597 23.2137C13.7597 22.5291 14.3155 21.9732 15.0002 21.9732ZM15.0002 22.7968C14.77 22.7968 14.5832 22.9836 14.5832 23.2137C14.5832 23.4438 14.77 23.6306 15.0002 23.6306C15.2303 23.6306 15.4171 23.4438 15.4171 23.2137C15.4171 22.9836 15.2303 22.7968 15.0002 22.7968ZM6.37916 4.43235H4.36434C4.31947 4.43235 4.27505 4.44118 4.2336 4.45835C4.19216 4.47552 4.1545 4.50069 4.12278 4.53242C4.09106 4.56414 4.0659 4.6018 4.04873 4.64325C4.03157 4.6847 4.02274 4.72913 4.02275 4.77399V28.3642C4.02275 28.5529 4.17569 28.7059 4.36434 28.7059H7.8961V22.8781C7.8961 21.6104 8.92369 20.5828 10.1913 20.5828H19.809C21.0766 20.5828 22.1042 21.6104 22.1042 22.8781V28.7059H25.636C25.8246 28.7059 25.9776 28.5529 25.9776 28.3642V4.77393C25.9776 4.58529 25.8246 4.43235 25.636 4.43235H23.6212V6.40541C23.6212 6.55842 23.591 6.70993 23.5325 6.8513C23.4739 6.99266 23.3881 7.1211 23.2799 7.22929C23.1717 7.3375 23.0432 7.42333 22.9019 7.48189C22.7605 7.54045 22.609 7.57059 22.456 7.57058H7.54434C7.39132 7.57059 7.23981 7.54045 7.09844 7.48189C6.95708 7.42333 6.82864 7.3375 6.72045 7.22929C6.61225 7.1211 6.52641 6.99266 6.46785 6.8513C6.40929 6.70993 6.37915 6.55842 6.37916 6.40541V4.43235ZM12.3392 18.9742C12.5451 18.2414 13.4146 15.6681 13.7026 14.8189L11.9909 13.4516C11.9436 13.4139 11.9053 13.3662 11.8785 13.312C11.8518 13.2578 11.8374 13.1983 11.8362 13.1379C11.835 13.0774 11.8472 13.0174 11.8718 12.9622C11.8964 12.907 11.9329 12.8579 11.9787 12.8183L17.1194 8.37729C17.189 8.31717 17.2768 8.2821 17.3687 8.27769C17.4606 8.27327 17.5514 8.29976 17.6265 8.35293C17.7016 8.40609 17.7567 8.48288 17.783 8.57103C17.8094 8.65918 17.8055 8.75362 17.7719 8.83929L16.203 12.8374L17.994 14.1345C18.0434 14.1702 18.0842 14.2166 18.1136 14.2701C18.1429 14.3236 18.1599 14.3829 18.1635 14.4438C18.1671 14.5047 18.1571 14.5657 18.1342 14.6222C18.1113 14.6788 18.0762 14.7296 18.0313 14.7709L13.0144 19.3886C12.9485 19.4493 12.8645 19.4868 12.7753 19.4954C12.6862 19.5041 12.5966 19.4834 12.5202 19.4365C12.4439 19.3897 12.3849 19.3192 12.3522 19.2357C12.3195 19.1523 12.3149 19.0605 12.3392 18.9742ZM13.5942 17.7357L17.103 14.506L15.4617 13.3173C15.3878 13.2638 15.3338 13.1872 15.3081 13.0996C15.2825 13.012 15.2866 12.9184 15.32 12.8334L16.3964 10.0902L12.8921 13.1175L14.4425 14.3559C14.5087 14.4088 14.557 14.4809 14.5808 14.5622C14.6045 14.6436 14.6026 14.7303 14.5753 14.8105C14.5753 14.8105 14.0252 16.4238 13.5942 17.7357ZM12.184 21.4063H10.1913C9.37851 21.4063 8.71963 22.0652 8.71963 22.8781V25.0211H12.184V21.4063ZM10.4518 21.9732C11.1365 21.9732 11.6923 22.5291 11.6923 23.2137C11.6923 23.8983 11.1365 24.4542 10.4518 24.4542C9.76716 24.4542 9.21128 23.8983 9.21128 23.2137C9.21128 22.5291 9.76716 21.9732 10.4518 21.9732ZM10.4518 22.7968C10.2216 22.7968 10.0348 22.9836 10.0348 23.2137C10.0348 23.4438 10.2216 23.6306 10.4518 23.6306C10.6819 23.6306 10.8687 23.4438 10.8687 23.2137C10.8687 22.9836 10.6819 22.7968 10.4518 22.7968ZM21.2807 25.0211V22.8781C21.2807 22.0652 20.6218 21.4063 19.809 21.4063H17.8163V25.0211H21.2807ZM19.5485 21.9732C20.2332 21.9732 20.789 22.5291 20.789 23.2137C20.789 23.8983 20.2332 24.4542 19.5485 24.4542C18.8639 24.4542 18.308 23.8983 18.308 23.2137C18.308 22.5291 18.8639 21.9732 19.5485 21.9732ZM19.5485 22.7968C19.3184 22.7968 19.1316 22.9836 19.1316 23.2137C19.1316 23.4438 19.3184 23.6306 19.5485 23.6306C19.7787 23.6306 19.9655 23.4438 19.9655 23.2137C19.9655 22.9836 19.7787 22.7968 19.5485 22.7968ZM22.456 1.29411H7.54434C7.45373 1.29411 7.36683 1.33011 7.30276 1.39418C7.23869 1.45825 7.20269 1.54515 7.20269 1.63576V6.40541C7.20269 6.49602 7.23869 6.58291 7.30276 6.64699C7.36683 6.71106 7.45373 6.74705 7.54434 6.74705H22.456C22.5466 6.74705 22.6335 6.71106 22.6976 6.64699C22.7616 6.58291 22.7976 6.49602 22.7976 6.40541V1.63576C22.7976 1.54515 22.7616 1.45825 22.6976 1.39418C22.6335 1.33011 22.5466 1.29411 22.456 1.29411ZM20.3865 2.49282C20.3865 2.91488 20.0439 3.25752 19.6218 3.25752C19.1997 3.25752 18.8571 2.91488 18.8571 2.49282C18.8571 2.07076 19.1997 1.72811 19.6218 1.72811C20.0439 1.72811 20.3865 2.07076 20.3865 2.49282ZM22.2452 2.49282C22.2452 2.91488 21.9025 3.25752 21.4805 3.25752C21.0584 3.25752 20.7157 2.91488 20.7157 2.49282C20.7157 2.07076 21.0584 1.72811 21.4805 1.72811C21.9025 1.72811 22.2452 2.07076 22.2452 2.49282ZM10.7159 2.45064C10.8195 2.45063 10.922 2.47102 11.0177 2.51064C11.1133 2.55026 11.2003 2.60834 11.2735 2.68156C11.3467 2.75478 11.4048 2.8417 11.4444 2.93737C11.484 3.03303 11.5044 3.13556 11.5044 3.23911V4.80205C11.5044 4.9056 11.484 5.00813 11.4444 5.1038C11.4048 5.19946 11.3467 5.28638 11.2735 5.3596C11.2003 5.43282 11.1133 5.4909 11.0177 5.53052C10.922 5.57014 10.8195 5.59053 10.7159 5.59052H9.15298C8.94389 5.59048 8.74337 5.50739 8.59552 5.35953C8.44768 5.21167 8.3646 5.01115 8.36457 4.80205V3.23911C8.3646 3.03001 8.44768 2.82949 8.59552 2.68163C8.74337 2.53377 8.94389 2.45069 9.15298 2.45064H10.7159ZM9.1881 3.27417V4.76699H10.6809V3.27417H9.1881ZM12.8153 3.58264C12.588 3.58264 12.4036 3.39811 12.4036 3.17088C12.4036 2.94364 12.588 2.75911 12.8153 2.75911H17.7655C17.9927 2.75911 18.1772 2.94364 18.1772 3.17088C18.1772 3.39811 17.9927 3.58264 17.7655 3.58264H12.8153ZM12.8153 5.28205C12.588 5.28205 12.4036 5.09752 12.4036 4.87029C12.4036 4.64305 12.588 4.45852 12.8153 4.45852H17.7655C17.9927 4.45852 18.1772 4.64305 18.1772 4.87029C18.1772 5.09752 17.9927 5.28205 17.7655 5.28205H12.8153Z" fill="#004290"/>
</svg>
