<svg width="30" height="30" viewBox="0 0 30 30" fill="none" xmlns="http://www.w3.org/2000/svg">
<g clip-path="url(#clip0_2904_11400)">
<path d="M27.5808 17.4193H21.2905V16.9355C21.2905 16.6684 21.5077 16.4516 21.7743 16.4516H25.1614C25.9618 16.4516 26.613 15.8003 26.613 15V13.0645C26.613 12.2642 25.9618 11.6129 25.1614 11.6129H21.7743C21.5077 11.6129 21.2905 11.3961 21.2905 11.1291V10.1613C21.2905 9.89426 21.5077 9.67746 21.7743 9.67746H25.1614C25.9618 9.67746 26.613 9.02619 26.613 8.22586V6.29039C26.613 5.49006 25.9618 4.83879 25.1614 4.83879H21.2904V2.9032H20.3227V0H17.4194V2.9032H16.4517V4.83867H12.5807C11.7804 4.83867 11.1291 5.48994 11.1291 6.29027V8.22574C11.1291 9.02607 11.7804 9.67734 12.5807 9.67734H15.9678C16.2344 9.67734 16.4517 9.89414 16.4517 10.1612V17.4193H10.1613C8.99326 17.4193 8.01585 18.2521 7.79085 19.3548H3.87102V20.3225H0V23.2257H3.87102V26.1289H6.77424V24.1935H7.79085C8.01585 25.2962 8.99279 26.1289 10.1613 26.1289H11.6129V28.0644H12.5807V30H15.4839V28.0645H16.4516V26.1291H17.4194C17.4194 26.6628 17.8534 27.0968 18.3871 27.0968V29.0323H21.2903V27.0968C21.8241 27.0968 22.2581 26.6628 22.2581 26.1291H23.2258V28.0645H24.1936V30H27.0968V28.0645H28.0645V26.0802C29.1673 25.8552 30 24.8783 30 23.7097V19.8387C30.0002 18.5047 28.9148 17.4193 27.5808 17.4193ZM4.83876 20.3226H7.74198V23.2258H4.83876V20.3226ZM0.96774 22.2581V21.2903H3.87096V22.2581H0.96774ZM5.8065 25.1613H4.83876V24.1935H5.8065V25.1613ZM18.3872 0.967734H19.3549V2.9032H18.3872V0.967734ZM17.4194 3.871H20.3227V4.83873H17.4194V3.871ZM15.9678 8.70967H12.5807C12.3141 8.70967 12.0969 8.49287 12.0969 8.2258V6.29033C12.0969 6.02326 12.3141 5.80646 12.5807 5.80646H25.1615C25.4281 5.80646 25.6453 6.02326 25.6453 6.29033V8.2258C25.6453 8.49287 25.4281 8.70967 25.1615 8.70967H21.7744C20.9741 8.70967 20.3228 9.36094 20.3228 10.1613V11.129C20.3228 11.9293 20.9741 12.5806 21.7744 12.5806H25.1615C25.4281 12.5806 25.6453 12.7974 25.6453 13.0645V15C25.6453 15.2671 25.4281 15.4839 25.1615 15.4839H21.7744C20.9741 15.4839 20.3228 16.1351 20.3228 16.9355V17.4193H17.4194V10.1613C17.4194 9.361 16.7682 8.70967 15.9678 8.70967ZM8.70972 23.7097V19.8387C8.70972 19.2087 9.11572 18.6764 9.67746 18.4761V25.0717C9.11572 24.8719 8.70972 24.3397 8.70972 23.7097ZM14.5162 29.0323H13.5485V28.0645H14.5162V29.0323ZM15.484 27.0968H12.5807V26.1291H15.484V27.0968ZM17.4194 24.1935V25.1613H10.6452V18.3871H18.3872V18.8709C18.3872 19.6713 19.0385 20.3225 19.8388 20.3225H23.2259C23.4925 20.3225 23.7098 20.5393 23.7098 20.8064C23.7098 21.0735 23.4925 21.2903 23.2259 21.2903H20.8065C20.0062 21.2903 19.3549 21.9415 19.3549 22.7419V23.2257H18.3872C17.8535 23.2258 17.4194 23.6599 17.4194 24.1935ZM20.3227 28.0645H19.355V27.0968H20.3227V28.0645ZM21.2905 26.129H18.3872V24.1935L21.2905 24.1931V26.129ZM26.1292 29.0323H25.1614V28.0645H26.1292V29.0323ZM24.1937 27.0968V26.1291H27.0969V27.0968H24.1937ZM29.0324 23.7097C29.0324 24.51 28.3812 25.1613 27.5808 25.1613H22.2582V24.1935C22.2582 23.6598 21.8241 23.2258 21.2905 23.2258H20.3227V22.7419C20.3227 22.4749 20.54 22.2581 20.8066 22.2581H23.2259C24.0263 22.2581 24.6775 21.6068 24.6775 20.8065C24.6775 20.0061 24.0263 19.3549 23.2259 19.3549H19.8388C19.5722 19.3549 19.355 19.1381 19.355 18.871V18.3871H27.5808C28.3812 18.3871 29.0324 19.0384 29.0324 19.8387V23.7097Z" fill="#004290"/>
<path d="M14.0327 7.7419C14.2999 7.7419 14.5166 7.52527 14.5166 7.25804C14.5166 6.9908 14.2999 6.77417 14.0327 6.77417C13.7655 6.77417 13.5488 6.9908 13.5488 7.25804C13.5488 7.52527 13.7655 7.7419 14.0327 7.7419Z" fill="#004290"/>
<path d="M24.1929 7.7419C24.4601 7.7419 24.6767 7.52527 24.6767 7.25804C24.6767 6.9908 24.4601 6.77417 24.1929 6.77417C23.9256 6.77417 23.709 6.9908 23.709 7.25804C23.709 7.52527 23.9256 7.7419 24.1929 7.7419Z" fill="#004290"/>
<path d="M24.1929 14.5161C24.4601 14.5161 24.6767 14.2994 24.6767 14.0322C24.6767 13.765 24.4601 13.5483 24.1929 13.5483C23.9256 13.5483 23.709 13.765 23.709 14.0322C23.709 14.2994 23.9256 14.5161 24.1929 14.5161Z" fill="#004290"/>
</g>
<defs>
<clipPath id="clip0_2904_11400">
<rect width="30" height="30" fill="white"/>
</clipPath>
</defs>
</svg>
