<svg width="30" height="30" viewBox="0 0 30 30" fill="none" xmlns="http://www.w3.org/2000/svg">
<g clip-path="url(#clip0_2906_11659)">
<path d="M4.62094 6.80981H0.732422C0.654722 6.80981 0.580204 6.84068 0.525262 6.89562C0.470319 6.95057 0.439453 7.02508 0.439453 7.10278V8.29077C0.439445 9.10159 0.702428 9.89054 1.18893 10.5392C1.6984 11.2185 1.8058 12.1224 1.45605 12.8961C0.808184 14.3292 0.439453 15.9771 0.439453 17.7302C0.439453 19.4834 0.808184 21.1312 1.45605 22.5643C1.8058 23.3379 1.6984 24.2419 1.18893 24.9212C0.702434 25.5699 0.439453 26.3588 0.439453 27.1697V29.2676C0.439453 29.3453 0.470319 29.4198 0.525262 29.4748C0.580204 29.5297 0.654722 29.5606 0.732422 29.5606H8.63238M16.1371 21.7385C16.5763 20.5112 16.8201 19.1555 16.8201 17.7302C16.8201 15.9771 16.4514 14.3292 15.8035 12.8962C15.4538 12.1225 15.5612 11.2185 16.0706 10.5392C16.5571 9.8906 16.8201 9.10165 16.8201 8.29083V7.10278C16.8201 7.02508 16.7892 6.95057 16.7343 6.89562C16.6793 6.84068 16.6048 6.80981 16.5271 6.80981H6.67172" stroke="#004290" stroke-miterlimit="10" stroke-linecap="round" stroke-linejoin="round"/>
<path d="M2.85938 6.80981V7.83521" stroke="#004290" stroke-linecap="round" stroke-linejoin="round"/>
<path d="M3.15791 9.75647C3.27611 10.0346 3.42752 10.2974 3.60885 10.5392C4.11832 11.2184 4.22572 12.1224 3.87598 12.8961C3.22811 14.3292 2.85938 15.977 2.85938 17.7301C2.85938 19.4833 3.22811 21.1312 3.87598 22.5642C4.22572 23.3379 4.11832 24.2418 3.60885 24.9211C3.12235 25.5698 2.85937 26.3587 2.85938 27.1695V27.5546" stroke="#004290" stroke-linecap="round" stroke-linejoin="round" stroke-dasharray="33.47 33.47"/>
<path d="M2.85938 28.5352V29.5605" stroke="#004290" stroke-linecap="round" stroke-linejoin="round"/>
<path d="M13.7438 16.0796C13.9665 16.5845 14.0901 17.1429 14.0901 17.7302C14.0901 19.9919 12.2566 21.8254 9.99488 21.8254C7.73316 21.8254 5.89971 19.9919 5.89971 17.7302C5.89971 15.4685 7.73316 13.635 9.99488 13.635C10.9272 13.635 11.7868 13.9466 12.4752 14.4713M1.34961 6.80977C1.34961 4.79941 2.9791 3.16992 4.98945 3.16992C4.98945 1.66172 6.21172 0.439453 7.71934 0.439453C9.01309 0.439453 10.0971 1.33945 10.3789 2.54707C10.6619 2.36543 10.9982 2.25996 11.3598 2.25996C12.3646 2.25996 13.1797 3.07441 13.1797 4.07988C14.6873 4.07988 15.9102 5.30215 15.9102 6.80977M10.1539 26.165C10.9584 25.447 12.0197 25.0105 13.1829 25.0105C13.2912 25.0105 13.3987 25.0143 13.5051 25.0218C13.8124 25.0434 14.086 24.8253 14.1272 24.5201C14.3733 22.6996 15.9274 21.3701 17.7327 21.3701C19.0296 21.3701 20.168 22.0485 20.8126 23.0695C20.9527 23.2914 21.226 23.3889 21.4766 23.3116C21.7379 23.2312 22.0097 23.1904 22.283 23.1906C23.4911 23.1906 24.516 23.9751 24.8752 25.0626C24.9556 25.306 25.1838 25.4671 25.4401 25.4653L25.4682 25.4652C27.6787 25.4652 29.4801 27.2165 29.5605 29.4074C29.5613 29.4271 29.5581 29.4469 29.551 29.4654C29.544 29.4838 29.5334 29.5007 29.5197 29.515C29.506 29.5293 29.4896 29.5406 29.4714 29.5484C29.4532 29.5562 29.4336 29.5603 29.4138 29.5603H8.63252C8.63252 28.9631 8.7476 28.3928 8.95684 27.8703" stroke="#004290" stroke-miterlimit="10" stroke-linecap="round" stroke-linejoin="round"/>
<path d="M17.585 27.5382C17.5161 26.6747 16.8134 25.9801 15.9492 25.9204" stroke="#004290" stroke-miterlimit="10" stroke-linecap="round" stroke-linejoin="round"/>
</g>
<defs>
<clipPath id="clip0_2906_11659">
<rect width="30" height="30" fill="white"/>
</clipPath>
</defs>
</svg>
