<svg width="30" height="30" viewBox="0 0 30 30" fill="none" xmlns="http://www.w3.org/2000/svg">
<path d="M25.6063 5.73755H5.01875C3.93713 5.73672 2.9 5.3069 2.13489 4.54237C1.36977 3.77784 0.939155 2.74104 0.9375 1.65942C0.9375 1.57654 0.970424 1.49706 1.02903 1.43845C1.08763 1.37985 1.16712 1.34692 1.25 1.34692H29.375C29.4579 1.34692 29.5374 1.37985 29.596 1.43845C29.6546 1.49706 29.6875 1.57654 29.6875 1.65942C29.6858 2.74104 29.2552 3.77784 28.4901 4.54237C27.725 5.3069 26.6879 5.73672 25.6063 5.73755ZM1.5625 1.97192C1.64252 2.82906 2.03897 3.62565 2.67452 4.20631C3.31007 4.78698 4.13914 5.11006 5 5.11255H25.6063C26.4647 5.11044 27.2917 4.78954 27.9269 4.2121C28.562 3.63467 28.9601 2.84188 29.0438 1.98755L1.5625 1.97192Z" fill="#004290"/>
<path d="M18.9367 9.5062H16.8492C16.7991 9.50647 16.7497 9.49469 16.7051 9.47184C16.6605 9.449 16.622 9.41577 16.593 9.37495C16.2617 8.8937 15.9961 8.50933 15.8148 8.25308C15.6367 8.50933 15.368 8.8937 15.0367 9.37495C15.0084 9.41692 14.9702 9.45137 14.9256 9.47533C14.8809 9.49928 14.8311 9.51202 14.7805 9.51245H11.6836C10.6079 9.50671 9.57795 9.07685 8.81732 8.31622C8.0567 7.5556 7.62684 6.52562 7.62109 5.44995C7.62109 5.36707 7.65402 5.28759 7.71262 5.22898C7.77123 5.17037 7.85071 5.13745 7.93359 5.13745H22.7023C22.7852 5.13745 22.8647 5.17037 22.9233 5.22898C22.9819 5.28759 23.0148 5.36707 23.0148 5.44995C23.0074 6.52723 22.5747 7.55796 21.8109 8.31768C21.0471 9.0774 20.014 9.50458 18.9367 9.5062ZM17.0148 8.8812H18.9367C19.7953 8.87979 20.6227 8.55913 21.2581 7.98156C21.8934 7.40399 22.2912 6.6108 22.3742 5.7562H8.24609C8.32058 6.61549 8.71537 7.41538 9.35213 7.99714C9.98889 8.57891 10.8211 8.90005 11.6836 8.89683H14.6148C15.1961 8.04995 15.5523 7.54058 15.5523 7.54058C15.5811 7.50019 15.6191 7.46722 15.6631 7.4444C15.7071 7.42158 15.7559 7.40956 15.8055 7.40933C15.855 7.40956 15.9039 7.42158 15.9479 7.4444C15.9919 7.46722 16.0298 7.50019 16.0586 7.54058C16.0586 7.54058 16.4336 8.03433 17.0148 8.8812Z" fill="#004290"/>
<path d="M15.8156 25.9001C14.1207 25.8976 12.4958 25.2232 11.2973 24.0246C10.0988 22.8261 9.42435 21.2013 9.42188 19.5063C9.42188 16.9001 12.7625 11.6063 14.7563 8.6813C15.2469 7.96255 15.5625 7.52505 15.5625 7.52505C15.5913 7.48466 15.6292 7.45169 15.6732 7.42887C15.7172 7.40605 15.766 7.39403 15.8156 7.3938C15.8652 7.39403 15.914 7.40605 15.958 7.42887C16.002 7.45169 16.04 7.48466 16.0687 7.52505C16.0687 7.52505 16.3812 7.96255 16.875 8.6813C18.8687 11.6063 22.2125 16.9001 22.2125 19.5063C22.21 21.2018 21.5352 22.8271 20.336 24.0257C19.1368 25.2243 17.5111 25.8984 15.8156 25.9001ZM15.8156 8.24692L15.2719 9.0313C13.7094 11.3375 10.0469 16.9782 10.0469 19.5063C10.082 21.0134 10.7053 22.447 11.7836 23.5005C12.8619 24.5541 14.3096 25.1439 15.8172 25.1439C17.3247 25.1439 18.7724 24.5541 19.8508 23.5005C20.9291 22.447 21.5524 21.0134 21.5875 19.5063C21.5875 16.9782 17.9312 11.3407 16.3594 9.0313C16.1375 8.70942 15.9531 8.43755 15.8156 8.24692ZM25.5844 28.6532C24.7379 28.6532 23.926 28.3171 23.3272 27.7189C22.7283 27.1206 22.3915 26.309 22.3906 25.4626C22.3906 23.8188 25.0281 20.1126 25.3281 19.6938C25.357 19.6532 25.3952 19.62 25.4395 19.5972C25.4838 19.5743 25.533 19.5624 25.5828 19.5624C25.6327 19.5624 25.6818 19.5743 25.7261 19.5972C25.7704 19.62 25.8086 19.6532 25.8375 19.6938C26.15 20.1126 28.775 23.8188 28.775 25.4626C28.7742 26.3085 28.4378 27.1196 27.8396 27.7178C27.2414 28.3159 26.4303 28.6524 25.5844 28.6532ZM25.5844 20.4188C24.6844 21.7157 23.0156 24.3563 23.0156 25.4626C23.0388 26.1279 23.3195 26.7583 23.7984 27.2208C24.2773 27.6832 24.917 27.9417 25.5828 27.9417C26.2486 27.9417 26.8883 27.6832 27.3672 27.2208C27.8461 26.7583 28.1268 26.1279 28.15 25.4626C28.15 24.3563 26.4813 21.7157 25.5844 20.4188Z" fill="#004290"/>
<path d="M9.7625 19.4001C9.7397 19.4034 9.71655 19.4034 9.69375 19.4001C9.09992 19.2694 8.56882 18.9391 8.18897 18.4643C7.80912 17.9895 7.60346 17.3988 7.60625 16.7908C7.60625 15.422 9.79375 12.3626 10.0312 12.0189C10.0602 11.9789 10.0983 11.9463 10.1423 11.9238C10.1863 11.9014 10.235 11.8897 10.2844 11.8897C10.3338 11.8897 10.3825 11.9014 10.4265 11.9238C10.4705 11.9463 10.5085 11.9789 10.5375 12.0189C10.5688 12.0595 11.275 13.0439 11.9219 14.1595C11.9592 14.2309 11.9676 14.314 11.9451 14.3914C11.9226 14.4689 11.8711 14.5346 11.8014 14.5749C11.7316 14.6153 11.6489 14.6271 11.5706 14.6079C11.4923 14.5887 11.4245 14.54 11.3812 14.472C10.9812 13.7814 10.5469 13.1283 10.2844 12.7408C9.54063 13.8251 8.23125 15.9095 8.23125 16.8033C8.23406 17.268 8.39352 17.7183 8.68386 18.0812C8.97419 18.4441 9.37844 18.6985 9.83125 18.8033C9.91413 18.8124 9.98999 18.8541 10.0422 18.9191C10.0943 18.9842 10.1185 19.0673 10.1094 19.1501C10.1003 19.233 10.0586 19.3089 9.99354 19.361C9.92849 19.4132 9.84538 19.4374 9.7625 19.4283V19.4001ZM9.00938 3.85327H4.89062C4.80774 3.85327 4.72826 3.82035 4.66965 3.76174C4.61105 3.70314 4.57812 3.62365 4.57812 3.54077C4.57812 3.45789 4.61105 3.37841 4.66965 3.3198C4.72826 3.2612 4.80774 3.22827 4.89062 3.22827H9.00938C9.09226 3.22827 9.17174 3.2612 9.23035 3.3198C9.28895 3.37841 9.32188 3.45789 9.32188 3.54077C9.32188 3.62365 9.28895 3.70314 9.23035 3.76174C9.17174 3.82035 9.09226 3.85327 9.00938 3.85327Z" fill="#004290"/>
<path d="M6.94922 3.85309C6.86724 3.85274 6.78868 3.82019 6.73047 3.76246C6.70031 3.73473 6.67681 3.70055 6.66172 3.66246C6.6453 3.62392 6.6368 3.58248 6.63672 3.54059C6.63721 3.49975 6.64571 3.45941 6.66172 3.42184C6.67681 3.38375 6.70031 3.34956 6.73047 3.32184C6.78902 3.26363 6.86822 3.23096 6.95078 3.23096C7.03334 3.23096 7.11254 3.26363 7.17109 3.32184C7.22883 3.38004 7.26137 3.45861 7.26172 3.54059C7.26263 3.58226 7.25519 3.6237 7.23984 3.66246C7.22707 3.69435 7.20912 3.72391 7.18672 3.74996C7.1568 3.78313 7.12012 3.80949 7.07915 3.82728C7.03818 3.84507 6.99388 3.85387 6.94922 3.85309ZM9.00859 3.85309C8.94725 3.85304 8.88728 3.83494 8.83616 3.80104C8.78503 3.76714 8.74502 3.71895 8.72109 3.66246C8.69716 3.60555 8.69062 3.54283 8.7023 3.48221C8.71398 3.42159 8.74336 3.36578 8.78672 3.32184C8.82387 3.28588 8.869 3.25921 8.91842 3.244C8.96784 3.2288 9.02015 3.22548 9.07109 3.23434L9.12734 3.25309L9.18359 3.28121L9.23047 3.32184C9.25858 3.35063 9.28086 3.38459 9.29609 3.42184C9.31359 3.45892 9.32215 3.49959 9.32109 3.54059C9.322 3.58226 9.31457 3.6237 9.29922 3.66246C9.28306 3.69997 9.2597 3.73394 9.23047 3.76246C9.20127 3.79143 9.16664 3.81434 9.12856 3.82989C9.09049 3.84544 9.04972 3.85332 9.00859 3.85309ZM18.8586 18.7812C18.7766 18.7809 18.6981 18.7483 18.6398 18.6906C17.8909 17.942 16.8753 17.5214 15.8164 17.5214C14.7575 17.5214 13.7419 17.942 12.993 18.6906C12.9639 18.7199 12.9294 18.7431 12.8913 18.759C12.8532 18.7749 12.8123 18.783 12.7711 18.783C12.7298 18.783 12.689 18.7749 12.6509 18.759C12.6128 18.7431 12.5783 18.7199 12.5492 18.6906C12.491 18.632 12.4583 18.5528 12.4583 18.4703C12.4583 18.3877 12.491 18.3085 12.5492 18.25C12.9779 17.8208 13.4869 17.4803 14.0473 17.248C14.6076 17.0158 15.2083 16.8962 15.8148 16.8962C16.4214 16.8962 17.0221 17.0158 17.5824 17.248C18.1427 17.4803 18.6518 17.8208 19.0805 18.25C19.1387 18.3085 19.1713 18.3877 19.1713 18.4703C19.1713 18.5528 19.1387 18.632 19.0805 18.6906C19.0513 18.7196 19.0166 18.7425 18.9786 18.758C18.9405 18.7736 18.8997 18.7815 18.8586 18.7812Z" fill="#004290"/>
<path d="M17.5628 20.0812C17.5216 20.0815 17.4809 20.0736 17.4428 20.058C17.4047 20.0425 17.3701 20.0196 17.3409 19.9906C16.9361 19.5868 16.3876 19.36 15.8159 19.36C15.2441 19.36 14.6957 19.5868 14.2909 19.9906C14.2323 20.0488 14.1531 20.0815 14.0706 20.0815C13.988 20.0815 13.9088 20.0488 13.8502 19.9906C13.821 19.9616 13.7977 19.927 13.7818 19.8889C13.766 19.8508 13.7578 19.81 13.7578 19.7687C13.7578 19.7275 13.766 19.6866 13.7818 19.6486C13.7977 19.6105 13.821 19.5759 13.8502 19.5469C14.3726 19.0274 15.0792 18.7358 15.8159 18.7358C16.5525 18.7358 17.2592 19.0274 17.7815 19.5469C17.8254 19.5904 17.8554 19.6459 17.8677 19.7065C17.88 19.7671 17.8741 19.8299 17.8506 19.8871C17.8272 19.9443 17.7874 19.9933 17.7361 20.0278C17.6849 20.0624 17.6246 20.081 17.5628 20.0812ZM16.2503 21.3812C16.2091 21.3815 16.1684 21.3736 16.1303 21.358C16.0922 21.3425 16.0576 21.3196 16.0284 21.2906C15.9992 21.2604 15.9643 21.2363 15.9256 21.2199C15.887 21.2034 15.8454 21.195 15.8034 21.195C15.7614 21.195 15.7198 21.2034 15.6811 21.2199C15.6425 21.2363 15.6075 21.2604 15.5784 21.2906C15.5493 21.3199 15.5148 21.3431 15.4767 21.359C15.4386 21.3749 15.3978 21.383 15.3565 21.383C15.3152 21.383 15.2744 21.3749 15.2363 21.359C15.1982 21.3431 15.1637 21.3199 15.1346 21.2906C15.1053 21.2616 15.0821 21.227 15.0662 21.1889C15.0504 21.1508 15.0422 21.11 15.0422 21.0687C15.0422 21.0275 15.0504 20.9866 15.0662 20.9486C15.0821 20.9105 15.1053 20.8759 15.1346 20.8469C15.2218 20.7585 15.3257 20.6884 15.4402 20.6405C15.5548 20.5926 15.6777 20.568 15.8018 20.568C15.9259 20.568 16.0488 20.5926 16.1634 20.6405C16.2779 20.6884 16.3818 20.7585 16.469 20.8469C16.4983 20.8759 16.5215 20.9105 16.5374 20.9486C16.5533 20.9866 16.5614 21.0275 16.5614 21.0687C16.5614 21.11 16.5533 21.1508 16.5374 21.1889C16.5215 21.227 16.4983 21.2616 16.469 21.2906C16.4108 21.3483 16.3322 21.3809 16.2503 21.3812Z" fill="#004290"/>
</svg>
