<svg width="30" height="30" viewBox="0 0 30 30" fill="none" xmlns="http://www.w3.org/2000/svg">
<path d="M23.2794 28.29H6.71943C5.63143 28.29 4.74609 27.4047 4.74609 26.3167V2.30671C4.74609 1.21871 5.63143 0.333374 6.71943 0.333374H23.2794C24.3674 0.333374 25.2528 1.21871 25.2528 2.30671V26.3167C25.2528 27.4054 24.3674 28.29 23.2794 28.29ZM6.71943 1.00004C5.99876 1.00004 5.41276 1.58604 5.41276 2.30671V26.3167C5.41276 27.0374 5.99876 27.6234 6.71943 27.6234H23.2794C24.0001 27.6234 24.5861 27.0374 24.5861 26.3167V2.30671C24.5861 1.58604 24.0001 1.00004 23.2794 1.00004H6.71943Z" fill="#004290"/>
<path d="M20.8074 16.6154H9.19143C8.28743 16.6154 7.55209 15.88 7.55209 14.976V0.666707C7.55209 0.482707 7.70143 0.333374 7.88543 0.333374C8.06943 0.333374 8.21876 0.482707 8.21876 0.666707V14.9754C8.21876 15.5114 8.65476 15.948 9.19143 15.948H20.8068C21.3434 15.948 21.7794 15.5114 21.7794 14.9754V0.666707C21.7794 0.482707 21.9288 0.333374 22.1128 0.333374C22.2968 0.333374 22.4461 0.482707 22.4461 0.666707V14.9754C22.4468 15.88 21.7114 16.6154 20.8074 16.6154ZM7.42676 20.7587H5.07943C4.89543 20.7587 4.74609 20.6094 4.74609 20.4254C4.74609 20.2414 4.89543 20.092 5.07943 20.092H7.42676C7.61076 20.092 7.76009 20.2414 7.76009 20.4254C7.76009 20.6094 7.61143 20.7587 7.42676 20.7587ZM7.42676 22.4527H5.07943C4.89543 22.4527 4.74609 22.3034 4.74609 22.1194C4.74609 21.9354 4.89543 21.786 5.07943 21.786H7.42676C7.61076 21.786 7.76009 21.9354 7.76009 22.1194C7.76009 22.3034 7.61143 22.4527 7.42676 22.4527ZM7.42676 24.1467H5.07943C4.89543 24.1467 4.74609 23.9974 4.74609 23.8134C4.74609 23.6294 4.89543 23.48 5.07943 23.48H7.42676C7.61076 23.48 7.76009 23.6294 7.76009 23.8134C7.76009 23.9974 7.61143 24.1467 7.42676 24.1467ZM24.9194 20.7587H22.5721C22.3881 20.7587 22.2388 20.6094 22.2388 20.4254C22.2388 20.2414 22.3881 20.092 22.5721 20.092H24.9194C25.1034 20.092 25.2528 20.2414 25.2528 20.4254C25.2528 20.6094 25.1034 20.7587 24.9194 20.7587ZM24.9194 22.4527H22.5721C22.3881 22.4527 22.2388 22.3034 22.2388 22.1194C22.2388 21.9354 22.3881 21.786 22.5721 21.786H24.9194C25.1034 21.786 25.2528 21.9354 25.2528 22.1194C25.2528 22.3034 25.1034 22.4527 24.9194 22.4527ZM24.9194 24.1467H22.5721C22.3881 24.1467 22.2388 23.9974 22.2388 23.8134C22.2388 23.6294 22.3881 23.48 22.5721 23.48H24.9194C25.1034 23.48 25.2528 23.6294 25.2528 23.8134C25.2528 23.9974 25.1034 24.1467 24.9194 24.1467ZM10.1474 29.6667H8.05743C7.87343 29.6667 7.72409 29.5174 7.72409 29.3334V27.9574C7.72409 27.7734 7.87343 27.624 8.05743 27.624C8.24143 27.624 8.39076 27.7734 8.39076 27.9574V29H9.81409V27.9574C9.81409 27.7734 9.96343 27.624 10.1474 27.624C10.3314 27.624 10.4808 27.7734 10.4808 27.9574V29.3334C10.4808 29.5174 10.3314 29.6667 10.1474 29.6667ZM21.9414 29.6667H19.8508C19.6668 29.6667 19.5174 29.5174 19.5174 29.3334V27.9574C19.5174 27.7734 19.6668 27.624 19.8508 27.624C20.0348 27.624 20.1841 27.7734 20.1841 27.9574V29H21.6081V27.9574C21.6081 27.7734 21.7574 27.624 21.9414 27.624C22.1254 27.624 22.2748 27.7734 22.2748 27.9574V29.3334C22.2748 29.5174 22.1254 29.6667 21.9414 29.6667ZM13.6434 25.654C13.5814 25.654 13.5188 25.6367 13.4634 25.6014C13.4018 25.5617 13.3549 25.5029 13.33 25.434C13.305 25.3651 13.3034 25.2899 13.3254 25.22L14.1001 22.7814L13.0514 22.1C13.0087 22.0722 12.9729 22.035 12.9468 21.9912C12.9207 21.9474 12.905 21.8982 12.9008 21.8474C12.8921 21.7447 12.9321 21.6434 13.0088 21.574L16.1941 18.6727C16.2476 18.6238 16.3157 18.5938 16.3879 18.5871C16.4601 18.5805 16.5325 18.5977 16.5941 18.636C16.6558 18.6742 16.7033 18.7314 16.7294 18.7991C16.7555 18.8667 16.7588 18.941 16.7388 19.0107L15.9894 21.634L16.9354 22.1967C17.0261 22.2507 17.0861 22.3447 17.0968 22.45C17.1074 22.5554 17.0674 22.6594 16.9894 22.73L13.8668 25.5687C13.8053 25.6236 13.7258 25.654 13.6434 25.654ZM13.7768 21.7754L14.6761 22.36C14.7373 22.3998 14.7838 22.4586 14.8084 22.5274C14.8329 22.5962 14.8342 22.6711 14.8121 22.7407L14.3354 24.24L16.2074 22.538L15.4274 22.0747C15.3641 22.0372 15.3151 21.9797 15.288 21.9113C15.2608 21.8429 15.2571 21.7674 15.2774 21.6967L15.7754 19.9547L13.7768 21.7754Z" fill="#004290"/>
<path d="M20.1763 6.81534H9.82161C9.63761 6.81534 9.48828 6.666 9.48828 6.482V2.67C9.48828 2.486 9.63761 2.33667 9.82161 2.33667H20.1763C20.3603 2.33667 20.5096 2.486 20.5096 2.67V6.482C20.5096 6.666 20.3603 6.81534 20.1763 6.81534ZM10.1549 6.14867H19.8429V3.00334H10.1549V6.14867ZM13.0043 14.612C12.2289 14.612 11.5989 13.9813 11.5989 13.2067C11.5989 12.432 12.2296 11.8013 13.0043 11.8013C13.7789 11.8013 14.4096 12.432 14.4096 13.2067C14.4096 13.9813 13.7796 14.612 13.0043 14.612ZM13.0043 12.4673C12.5969 12.4673 12.2656 12.7987 12.2656 13.206C12.2656 13.6133 12.5969 13.9447 13.0043 13.9447C13.4116 13.9447 13.7429 13.6133 13.7429 13.206C13.7429 12.7987 13.4123 12.4673 13.0043 12.4673ZM16.9936 14.612C16.2183 14.612 15.5883 13.9813 15.5883 13.2067C15.5883 12.432 16.2189 11.8013 16.9936 11.8013C17.7683 11.8013 18.3989 12.4313 18.3989 13.2067C18.3989 13.982 17.7683 14.612 16.9936 14.612ZM16.9936 12.4673C16.5863 12.4673 16.2549 12.7987 16.2549 13.206C16.2549 13.6133 16.5863 13.9447 16.9936 13.9447C17.4009 13.9447 17.7323 13.614 17.7323 13.2067C17.7323 12.7993 17.4009 12.4673 16.9936 12.4673ZM16.1876 10.4247H13.8103C13.6263 10.4247 13.4769 10.2753 13.4769 10.0913V8.52534C13.4769 8.34134 13.6263 8.192 13.8103 8.192H16.1876C16.3716 8.192 16.5209 8.34134 16.5209 8.52534V10.0913C16.5209 10.2753 16.3716 10.4247 16.1876 10.4247ZM14.1436 9.758H15.8543V8.85867H14.1436V9.758ZM20.1763 10.4247H17.7989C17.6149 10.4247 17.4656 10.2753 17.4656 10.0913V8.52534C17.4656 8.34134 17.6149 8.192 17.7989 8.192H20.1763C20.3603 8.192 20.5096 8.34134 20.5096 8.52534V10.0913C20.5096 10.2753 20.3603 10.4247 20.1763 10.4247ZM18.1323 9.758H19.8429V8.85867H18.1323V9.758ZM12.1989 10.4247H9.82161C9.63761 10.4247 9.48828 10.2753 9.48828 10.0913V8.52534C9.48828 8.34134 9.63761 8.192 9.82161 8.192H12.1989C12.3829 8.192 12.5323 8.34134 12.5323 8.52534V10.0913C12.5323 10.2753 12.3829 10.4247 12.1989 10.4247ZM10.1549 9.758H11.8656V8.85867H10.1549V9.758Z" fill="#004290"/>
</svg>
