<svg width="30" height="30" viewBox="0 0 30 30" fill="none" xmlns="http://www.w3.org/2000/svg">
<g clip-path="url(#clip0_3216_31487)">
<path d="M12.0398 19.38V15.9489M17.9587 15.9489V19.38M20.766 3.74946C21.9654 5.10708 22.6938 6.89067 22.6938 8.84419C22.6938 13.094 19.249 16.5387 14.9992 16.5387C10.7494 16.5387 7.30469 13.094 7.30469 8.84419C7.30469 4.59497 10.7494 1.14966 14.9992 1.14966C16.5566 1.14966 18.0068 1.61255 19.218 2.40825M27.6657 28.8503H28.9679C29.2948 28.8503 29.5598 28.5853 29.5598 28.2584V19.972C29.5598 19.6451 29.2948 19.38 28.9679 19.38H27.6657C27.3388 19.38 27.0738 19.6451 27.0738 19.972V28.2585C27.0738 28.5853 27.3388 28.8503 27.6657 28.8503Z" stroke="#004290" stroke-miterlimit="10" stroke-linecap="round" stroke-linejoin="round"/>
<path d="M23.39 27.3703H21.5109M27.0744 27.3703H25.4408M21.5108 20.8597H27.0746M2.92541 27.3706H8.48918M4.68164 20.86H2.92559M8.48906 20.86H6.73242M14.8891 5.11162C14.9275 5.00902 15.0724 5.00902 15.1109 5.11162C15.4052 5.898 16.1838 8.05349 16.1838 8.84433C16.1838 9.49812 15.6538 10.0281 15 10.0281C14.3462 10.0281 13.8162 9.49812 13.8162 8.84433C13.8162 8.05349 14.5949 5.898 14.8891 5.11162ZM16.4205 13.8162H13.5795C13.4539 13.8162 13.3334 13.7664 13.2446 13.6776C13.1558 13.5888 13.106 13.4683 13.106 13.3427V12.3957C13.106 12.2701 13.1558 12.1497 13.2446 12.0609C13.3334 11.9721 13.4539 11.9222 13.5795 11.9222H16.4205C16.5461 11.9222 16.6666 11.9721 16.7554 12.0609C16.8442 12.1497 16.894 12.2701 16.894 12.3957V13.3427C16.894 13.4683 16.8442 13.5888 16.7554 13.6776C16.6666 13.7664 16.5461 13.8162 16.4205 13.8162ZM20.3271 28.8503H9.67295C9.01916 28.8503 8.48918 28.3203 8.48918 27.6665V20.5638C8.48918 19.91 9.01916 19.38 9.67295 19.38H20.327C20.9808 19.38 21.5108 19.91 21.5108 20.5638V27.6665C21.5108 28.3203 20.9808 28.8503 20.3271 28.8503ZM2.3335 28.8503H1.03137C0.704473 28.8503 0.439453 28.5853 0.439453 28.2584V19.9719C0.439453 19.645 0.704473 19.38 1.03137 19.38H2.33355C2.66045 19.38 2.92547 19.645 2.92547 19.9719V28.2584C2.92541 28.5853 2.66039 28.8503 2.3335 28.8503Z" stroke="#004290" stroke-miterlimit="10" stroke-linecap="round" stroke-linejoin="round"/>
</g>
<defs>
<clipPath id="clip0_3216_31487">
<rect width="30" height="30" fill="white"/>
</clipPath>
</defs>
</svg>
