<svg width="30" height="30" viewBox="0 0 30 30" fill="none" xmlns="http://www.w3.org/2000/svg">
<g clip-path="url(#clip0_2905_11467)">
<path d="M27.3701 5.19325L15.1826 0.0370035C15.1248 0.0125826 15.0627 0 15 0C14.9373 0 14.8752 0.0125826 14.8174 0.0370035L2.62986 5.19325C2.54503 5.22916 2.47266 5.28926 2.42177 5.36605C2.37089 5.44284 2.34375 5.53291 2.34375 5.62503V13.0299C2.34375 20.7432 7.34344 27.6659 14.8621 29.9793C14.9519 30.007 15.048 30.007 15.1378 29.9793C22.51 27.7109 27.6562 20.8965 27.6562 13.0299V5.62503C27.6562 5.53291 27.6291 5.44284 27.5782 5.36605C27.5273 5.28926 27.455 5.22916 27.3701 5.19325ZM26.7188 13.0299C26.7188 20.4017 22.0159 26.8175 15 29.0401C7.9841 26.8175 3.28125 20.4018 3.28125 13.0299V5.93564L15 0.977726L26.7188 5.93564V13.0299Z" fill="#004290"/>
<path d="M13.0667 18.4185C13.6164 18.9682 14.5059 18.9681 15.0554 18.4185L21.1894 12.2845C21.7598 11.7141 21.7598 10.7858 21.1894 10.2154C20.6189 9.64501 19.6907 9.64501 19.1202 10.2154L14.0611 15.2746L11.8144 13.0279C11.2439 12.4575 10.3158 12.4575 9.74529 13.0279C9.17347 13.5996 9.17342 14.5253 9.74529 15.097L13.0667 18.4185ZM10.4081 13.6908C10.613 13.4859 10.9465 13.4859 11.1515 13.6908L13.7296 16.269C13.8175 16.3569 13.9367 16.4062 14.061 16.4062C14.1853 16.4062 14.3046 16.3569 14.3925 16.269L19.7832 10.8783C19.8319 10.8294 19.8898 10.7906 19.9536 10.7641C20.0174 10.7377 20.0858 10.7242 20.1548 10.7244C20.6219 10.7244 20.8554 11.2928 20.5265 11.6217L14.3925 17.7556C14.2097 17.9384 13.9124 17.9384 13.7296 17.7556L10.4081 14.4341C10.3593 14.3853 10.3205 14.3274 10.2941 14.2636C10.2677 14.1999 10.2541 14.1315 10.2541 14.0625C10.2541 13.9935 10.2677 13.9251 10.2941 13.8613C10.3205 13.7976 10.3593 13.7396 10.4081 13.6908Z" fill="#004290"/>
<path d="M14.8076 2.85381L5.43264 7.07256C5.35028 7.10959 5.28038 7.16964 5.23134 7.24547C5.18231 7.32131 5.15623 7.40969 5.15625 7.5V13.5049C5.15625 19.6448 9.04992 25.1328 14.8451 27.1611C14.9521 27.1986 15.0689 27.196 15.1741 27.1539L15.7486 26.9241C21.2446 24.7257 24.8438 19.4094 24.8438 13.4904V7.5C24.8437 7.4097 24.8177 7.32132 24.7686 7.24549C24.7196 7.16966 24.6497 7.10961 24.5674 7.07256L15.1924 2.85381C15.1319 2.82658 15.0663 2.8125 15 2.8125C14.9337 2.8125 14.8681 2.82658 14.8076 2.85381ZM23.9062 7.80304V13.4903C23.9062 19.0554 20.5676 23.9868 15.4004 26.0536L14.9906 26.2176C9.66164 24.2753 6.09375 19.1888 6.09375 13.5049V7.80304L15 3.79523L23.9062 7.80304Z" fill="#004290"/>
</g>
<defs>
<clipPath id="clip0_2905_11467">
<rect width="30" height="30" fill="white"/>
</clipPath>
</defs>
</svg>
