<svg width="30" height="30" viewBox="0 0 30 30" fill="none" xmlns="http://www.w3.org/2000/svg">
<path d="M28.1836 2.63672H1.81641C1.33484 2.63728 0.873151 2.82883 0.53263 3.16935C0.192108 3.50987 0.00055827 3.97156 0 4.45312L0 25.5455C0.00055827 26.027 0.192108 26.4887 0.53263 26.8292C0.873151 27.1698 1.33484 27.3613 1.81641 27.3619H28.1836C28.6652 27.3613 29.1269 27.1698 29.4674 26.8292C29.8079 26.4887 29.9994 26.027 30 25.5455V4.45312C29.9994 3.97156 29.8079 3.50987 29.4674 3.16935C29.1269 2.82883 28.6652 2.63728 28.1836 2.63672ZM24.1259 3.45703V3.98438C24.1256 4.24844 24.0206 4.50162 23.8339 4.68836C23.6472 4.87511 23.3941 4.98016 23.13 4.98047H6.87023C6.60613 4.98022 6.35291 4.8752 6.16616 4.68845C5.97941 4.5017 5.87439 4.24848 5.87414 3.98438V3.45703H24.1259ZM29.1797 25.5455C29.1794 25.8096 29.0743 26.0627 28.8876 26.2495C28.7009 26.4362 28.4477 26.5413 28.1836 26.5416H1.81641C1.55232 26.5413 1.29914 26.4362 1.1124 26.2495C0.925668 26.0627 0.820623 25.8096 0.820312 25.5455V4.45312C0.820623 4.18904 0.925668 3.93586 1.1124 3.74912C1.29914 3.56239 1.55232 3.45734 1.81641 3.45703H5.05383V3.98438C5.05439 4.46594 5.24594 4.92763 5.58646 5.26815C5.92698 5.60867 6.38866 5.80022 6.87023 5.80078H23.13C23.6115 5.80022 24.0732 5.60867 24.4137 5.26814C24.7542 4.92761 24.9457 4.46592 24.9462 3.98438V3.45703H28.1836C28.4477 3.45734 28.7009 3.56239 28.8876 3.74912C29.0743 3.93586 29.1794 4.18904 29.1797 4.45312V25.5455Z" fill="#004290"/>
<path d="M27.7148 6.85547H2.28516C2.17638 6.85547 2.07205 6.89868 1.99513 6.9756C1.91821 7.05252 1.875 7.15684 1.875 7.26562V19.1016C1.875 19.2103 1.91821 19.3147 1.99513 19.3916C2.07205 19.4685 2.17638 19.5117 2.28516 19.5117H27.7148C27.8236 19.5117 27.9279 19.4685 28.0049 19.3916C28.0818 19.3147 28.125 19.2103 28.125 19.1016V7.26562C28.125 7.15684 28.0818 7.05252 28.0049 6.9756C27.9279 6.89868 27.8236 6.85547 27.7148 6.85547ZM27.3047 18.6914H2.69531V7.67578H27.3047V18.6914Z" fill="#004290"/>
<path d="M10.9418 16.0949H13.9055C14.0142 16.0949 14.1186 16.0517 14.1955 15.9748C14.2724 15.8979 14.3156 15.7935 14.3156 15.6848V10.5505C14.3156 10.4418 14.2724 10.3374 14.1955 10.2605C14.1186 10.1836 14.0142 10.1404 13.9055 10.1404H10.9418C10.833 10.1404 10.7287 10.1836 10.6518 10.2605C10.5749 10.3374 10.5316 10.4418 10.5316 10.5505V15.6848C10.5316 15.7935 10.5749 15.8979 10.6518 15.9748C10.7287 16.0517 10.833 16.0949 10.9418 16.0949ZM11.352 10.9607H13.4953V15.2746H11.352V10.9607ZM15.2789 16.2266C15.3877 16.2266 15.492 16.1834 15.5689 16.1065C15.6459 16.0296 15.6891 15.9253 15.6891 15.8165V15.5017C15.6891 15.3929 15.6459 15.2886 15.5689 15.2117C15.492 15.1348 15.3877 15.0916 15.2789 15.0916C15.1701 15.0916 15.0658 15.1348 14.9889 15.2117C14.912 15.2886 14.8687 15.3929 14.8687 15.5017V15.8165C14.8687 15.9253 14.912 16.0296 14.9889 16.1065C15.0658 16.1834 15.1701 16.2266 15.2789 16.2266ZM6.58875 16.0949H9.55242C9.6612 16.0949 9.76553 16.0517 9.84245 15.9748C9.91937 15.8979 9.96258 15.7935 9.96258 15.6848C9.96258 15.576 9.91937 15.4717 9.84245 15.3947C9.76553 15.3178 9.6612 15.2746 9.55242 15.2746H6.99891V14.8033L9.8018 12.6562C9.85178 12.6178 9.89227 12.5685 9.92015 12.512C9.94803 12.4555 9.96255 12.3934 9.96258 12.3304V10.5505C9.96258 10.4418 9.91937 10.3374 9.84245 10.2605C9.76553 10.1836 9.6612 10.1404 9.55242 10.1404H6.58875C6.47997 10.1404 6.37565 10.1836 6.29873 10.2605C6.22181 10.3374 6.17859 10.4418 6.17859 10.5505V12.0372C6.17859 12.146 6.22181 12.2503 6.29873 12.3272C6.37565 12.4041 6.47997 12.4473 6.58875 12.4473C6.69753 12.4473 6.80186 12.4041 6.87877 12.3272C6.95569 12.2503 6.99891 12.146 6.99891 12.0372V10.9607H9.14227V12.1276L6.33938 14.275C6.28939 14.3133 6.2489 14.3627 6.22102 14.4191C6.19314 14.4756 6.17863 14.5378 6.17859 14.6008V15.6848C6.17859 15.7935 6.22181 15.8979 6.29873 15.9748C6.37565 16.0517 6.47997 16.0949 6.58875 16.0949ZM16.6523 16.0949H19.6158C19.6697 16.0949 19.723 16.0844 19.7728 16.0638C19.8226 16.0432 19.8678 16.0129 19.9059 15.9748C19.944 15.9368 19.9742 15.8915 19.9948 15.8418C20.0154 15.792 20.026 15.7386 20.0259 15.6848V13.9635C20.0259 13.8912 20.0068 13.8202 19.9705 13.7577C19.9342 13.6951 19.882 13.6433 19.8192 13.6075L18.9614 13.1176L19.8192 12.6278C19.882 12.5919 19.9342 12.54 19.9705 12.4775C20.0068 12.4149 20.0259 12.3439 20.0259 12.2716V10.5505C20.026 10.4967 20.0154 10.4433 19.9948 10.3935C19.9742 10.3438 19.944 10.2985 19.9059 10.2604C19.8678 10.2224 19.8226 10.1921 19.7728 10.1715C19.723 10.1509 19.6697 10.1404 19.6158 10.1404H16.6523C16.5985 10.1404 16.5451 10.1509 16.4953 10.1715C16.4456 10.1921 16.4003 10.2224 16.3623 10.2604C16.3242 10.2985 16.2939 10.3438 16.2733 10.3935C16.2527 10.4433 16.2422 10.4967 16.2422 10.5505V11.4512C16.2422 11.56 16.2854 11.6643 16.3623 11.7413C16.4392 11.8182 16.5436 11.8614 16.6523 11.8614C16.7611 11.8614 16.8654 11.8182 16.9424 11.7413C17.0193 11.6643 17.0625 11.56 17.0625 11.4512V10.9607H19.2056V12.0337L17.9306 12.7602C17.8678 12.7961 17.8156 12.8479 17.7793 12.9105C17.7431 12.973 17.7239 13.044 17.7239 13.1164C17.7239 13.1887 17.7431 13.2597 17.7793 13.3222C17.8156 13.3848 17.8678 13.4366 17.9306 13.4725L19.2056 14.2005V15.2734H17.0625V14.7838C17.0625 14.675 17.0193 14.5707 16.9424 14.4938C16.8654 14.4169 16.7611 14.3737 16.6523 14.3737C16.5436 14.3737 16.4392 14.4169 16.3623 14.4938C16.2854 14.5707 16.2422 14.675 16.2422 14.7838V15.6848C16.2422 15.7386 16.2527 15.792 16.2733 15.8418C16.2939 15.8915 16.3242 15.9368 16.3623 15.9748C16.4003 16.0129 16.4456 16.0432 16.4953 16.0638C16.5451 16.0844 16.5985 16.0949 16.6523 16.0949ZM22.3594 13.0663C22.6487 13.0663 22.9316 12.9805 23.1722 12.8198C23.4127 12.659 23.6003 12.4305 23.711 12.1632C23.8217 11.8959 23.8507 11.6017 23.7942 11.3179C23.7378 11.0342 23.5984 10.7735 23.3939 10.5689C23.1892 10.3643 22.9286 10.2249 22.6448 10.1685C22.361 10.112 22.0668 10.141 21.7995 10.2517C21.5322 10.3625 21.3037 10.55 21.143 10.7906C20.9822 11.0312 20.8964 11.314 20.8964 11.6034C20.8969 11.9912 21.0512 12.363 21.3254 12.6373C21.5997 12.9115 21.9715 13.0658 22.3594 13.0663ZM22.3594 10.9607C22.4865 10.9607 22.6107 10.9984 22.7164 11.069C22.8221 11.1396 22.9045 11.24 22.9531 11.3574C23.0018 11.4748 23.0145 11.6041 22.9897 11.7287C22.9649 11.8534 22.9037 11.9679 22.8138 12.0578C22.7239 12.1477 22.6094 12.2089 22.4848 12.2337C22.3601 12.2585 22.2309 12.2457 22.1134 12.1971C21.996 12.1484 21.8956 12.0661 21.825 11.9604C21.7544 11.8547 21.7167 11.7305 21.7167 11.6034C21.7169 11.433 21.7847 11.2696 21.9052 11.1491C22.0256 11.0286 22.189 10.9609 22.3594 10.9607ZM18.6424 20.5663H11.3576C11.2488 20.5663 11.1445 20.6095 11.0676 20.6865C10.9906 20.7634 10.9474 20.8677 10.9474 20.9765V25.0766C10.9474 25.1854 10.9906 25.2897 11.0676 25.3667C11.1445 25.4436 11.2488 25.4868 11.3576 25.4868H18.6424C18.7512 25.4868 18.8555 25.4436 18.9324 25.3667C19.0094 25.2897 19.0526 25.1854 19.0526 25.0766V20.9765C19.0526 20.8677 19.0094 20.7634 18.9324 20.6865C18.8555 20.6095 18.7512 20.5663 18.6424 20.5663ZM18.2323 24.6665H11.7677V21.3866H18.2323V24.6665ZM27.7148 20.5663H20.5174C20.4636 20.5663 20.4102 20.5769 20.3604 20.5975C20.3106 20.6181 20.2654 20.6483 20.2273 20.6864C20.1892 20.7245 20.159 20.7697 20.1384 20.8195C20.1178 20.8693 20.1072 20.9226 20.1073 20.9765V25.0766C20.1072 25.1305 20.1178 25.1839 20.1384 25.2336C20.159 25.2834 20.1892 25.3286 20.2273 25.3667C20.2654 25.4048 20.3106 25.435 20.3604 25.4556C20.4102 25.4762 20.4636 25.4868 20.5174 25.4868H27.7148C27.8236 25.4868 27.9279 25.4436 28.0049 25.3667C28.0818 25.2897 28.125 25.1854 28.125 25.0766V20.9765C28.125 20.8677 28.0818 20.7634 28.0049 20.6865C27.9279 20.6095 27.8236 20.5663 27.7148 20.5663ZM27.3047 24.6665H20.9276V21.3866H27.3047V24.6665ZM9.48258 20.5663H2.28516C2.17638 20.5663 2.07205 20.6095 1.99513 20.6865C1.91821 20.7634 1.875 20.8677 1.875 20.9765V25.0766C1.875 25.1854 1.91821 25.2897 1.99513 25.3667C2.07205 25.4436 2.17638 25.4868 2.28516 25.4868H9.48258C9.53645 25.4868 9.5898 25.4762 9.63958 25.4556C9.68935 25.435 9.73458 25.4048 9.77267 25.3667C9.81076 25.3286 9.84097 25.2834 9.86158 25.2336C9.88218 25.1839 9.89277 25.1305 9.89273 25.0766V20.9765C9.89277 20.9226 9.88218 20.8693 9.86158 20.8195C9.84097 20.7697 9.81076 20.7245 9.77267 20.6864C9.73458 20.6483 9.68935 20.6181 9.63958 20.5975C9.5898 20.5769 9.53645 20.5663 9.48258 20.5663ZM9.07242 24.6665H2.69531V21.3866H9.07242V24.6665Z" fill="#004290"/>
<path d="M23.8477 23.7656C23.9247 23.8386 24.0268 23.8793 24.133 23.8793C24.2392 23.8793 24.3413 23.8386 24.4184 23.7656L25.3338 22.8792C25.3738 22.8421 25.406 22.7973 25.4285 22.7475C25.451 22.6978 25.4633 22.644 25.4648 22.5895C25.4662 22.5349 25.4568 22.4806 25.4369 22.4297C25.4171 22.3788 25.3873 22.3324 25.3493 22.2932C25.3113 22.254 25.2659 22.2228 25.2157 22.2013C25.1655 22.1799 25.1115 22.1687 25.0569 22.1685C25.0023 22.1682 24.9481 22.1788 24.8977 22.1997C24.8473 22.2206 24.8015 22.2514 24.7631 22.2902L24.1331 22.8996L23.5029 22.2902C23.4248 22.2146 23.3198 22.1731 23.2111 22.1748C23.1024 22.1765 22.9988 22.2214 22.9232 22.2995C22.8475 22.3776 22.806 22.4825 22.8077 22.5913C22.8095 22.7 22.8543 22.8036 22.9324 22.8792L23.8477 23.7656ZM14.0843 23.88C14.1908 23.8802 14.2932 23.8387 14.3695 23.7644L14.9998 23.1544L15.63 23.7637C15.7086 23.8367 15.8127 23.876 15.92 23.8731C16.0272 23.8703 16.1291 23.8255 16.2037 23.7484C16.2783 23.6713 16.3198 23.5681 16.3192 23.4608C16.3186 23.3535 16.276 23.2508 16.2005 23.1745L15.285 22.2891C15.2079 22.2163 15.1058 22.1757 14.9998 22.1757C14.8937 22.1757 14.7917 22.2163 14.7145 22.2891L13.7991 23.1752C13.7404 23.232 13.7 23.3051 13.6831 23.385C13.6662 23.4649 13.6736 23.548 13.7042 23.6237C13.7349 23.6994 13.7874 23.7642 13.8551 23.8099C13.9228 23.8556 14.0026 23.88 14.0843 23.88ZM4.75195 23.4375H7.01531C7.12409 23.4375 7.22842 23.3943 7.30534 23.3174C7.38226 23.2404 7.42547 23.1361 7.42547 23.0273C7.42547 22.9186 7.38226 22.8142 7.30534 22.7373C7.22842 22.6604 7.12409 22.6172 7.01531 22.6172H4.75195C4.64317 22.6172 4.53885 22.6604 4.46193 22.7373C4.38501 22.8142 4.3418 22.9186 4.3418 23.0273C4.3418 23.1361 4.38501 23.2404 4.46193 23.3174C4.53885 23.3943 4.64317 23.4375 4.75195 23.4375Z" fill="#004290"/>
</svg>
