<svg width="71" height="70" viewBox="0 0 71 70" fill="none" xmlns="http://www.w3.org/2000/svg">
<path d="M62.3559 6.19751H8.3082C5.04062 6.19751 2.38281 8.85669 2.38281 12.1243V57.8758C2.38281 61.1434 5.04062 63.8012 8.3082 63.8012H62.3545C65.6221 63.8012 68.2799 61.1434 68.2799 57.8758V12.1243C68.2812 8.85669 65.6234 6.19751 62.3559 6.19751ZM8.3082 7.83813H62.3545C64.717 7.83813 66.6393 9.7604 66.6393 12.1229V16.0522H4.02344V12.1243C4.02344 9.76177 5.9457 7.83813 8.3082 7.83813ZM62.3559 62.162H8.3082C5.9457 62.162 4.02344 60.2383 4.02344 57.8758V17.6928H66.6406V57.8758C66.6406 60.2383 64.7184 62.162 62.3559 62.162ZM10.6775 11.9452C10.6775 11.4926 11.0453 11.1249 11.4979 11.1249H12.6189C13.0715 11.1249 13.4393 11.4926 13.4393 11.9452C13.4393 12.3977 13.0715 12.7655 12.6189 12.7655H11.4979C11.0439 12.7655 10.6775 12.3991 10.6775 11.9452ZM15.3342 11.9452C15.3342 11.4926 15.702 11.1249 16.1545 11.1249H17.2756C17.7281 11.1249 18.0959 11.4926 18.0959 11.9452C18.0959 12.3977 17.7281 12.7655 17.2756 12.7655H16.1545C15.7006 12.7655 15.3342 12.3991 15.3342 11.9452ZM19.9895 11.9452C19.9895 11.4926 20.3572 11.1249 20.8098 11.1249H21.9309C22.3834 11.1249 22.7512 11.4926 22.7512 11.9452C22.7512 12.3977 22.3834 12.7655 21.9309 12.7655H20.8098C20.3572 12.7655 19.9895 12.3991 19.9895 11.9452ZM11.6195 30.6415C6.49941 35.7616 6.49941 44.0932 11.6195 49.2133C14.1803 51.7727 17.5422 53.0538 20.9055 53.0538C24.2687 53.0538 27.6307 51.7741 30.1914 49.2133C35.3115 44.0932 35.3115 35.7616 30.1914 30.6415C25.0713 25.5213 16.7396 25.5213 11.6195 30.6415ZM13.9027 49.0342C14.4824 46.2411 16.9666 44.1862 19.8596 44.1862H21.9541C24.8471 44.1862 27.3312 46.2411 27.9109 49.0342C23.7957 52.202 18.0152 52.202 13.9027 49.0342ZM20.9055 42.1163C18.9148 42.1163 17.2947 40.4961 17.2947 38.5055C17.2947 36.5149 18.9148 34.8948 20.9055 34.8948C22.8961 34.8948 24.5162 36.5149 24.5162 38.5055C24.5162 40.4961 22.8961 42.1163 20.9055 42.1163ZM29.2713 47.801C28.44 45.3428 26.4098 43.4629 23.9187 42.8026C25.2709 41.851 26.1582 40.2801 26.1582 38.5055C26.1582 35.6098 23.8025 33.2542 20.9068 33.2542C18.0111 33.2542 15.6555 35.6098 15.6555 38.5055C15.6555 40.2815 16.5414 41.8524 17.8949 42.8026C15.4039 43.4616 13.3736 45.3428 12.5424 47.801C8.30683 43.303 8.38476 36.2004 12.7816 31.8022C17.2619 27.3233 24.5531 27.3219 29.032 31.8022C33.4289 36.2004 33.5068 43.303 29.2713 47.801ZM62.8904 31.6559C62.8904 32.1084 62.5226 32.4762 62.0701 32.4762H42.0449C41.5924 32.4762 41.2246 32.1084 41.2246 31.6559C41.2246 31.2034 41.5924 30.8356 42.0449 30.8356H62.0701C62.5226 30.8356 62.8904 31.202 62.8904 31.6559ZM62.8904 39.9274C62.8904 40.3799 62.5226 40.7477 62.0701 40.7477H42.0449C41.5924 40.7477 41.2246 40.3799 41.2246 39.9274C41.2246 39.4749 41.5924 39.1071 42.0449 39.1071H62.0701C62.5226 39.1071 62.8904 39.4749 62.8904 39.9274ZM57.6473 48.1989C57.6473 48.6514 57.2795 49.0192 56.8269 49.0192H42.0449C41.5924 49.0192 41.2246 48.6514 41.2246 48.1989C41.2246 47.7463 41.5924 47.3786 42.0449 47.3786H56.8269C57.2795 47.3786 57.6473 47.7463 57.6473 48.1989Z" fill="white"/>
</svg>
