<svg width="70" height="70" viewBox="0 0 70 70" fill="none" xmlns="http://www.w3.org/2000/svg">
<g clip-path="url(#clip0_1797_19382)">
<path d="M63.7655 12.0875C54.1343 9.44851 44.4466 5.33944 35.7495 0.204566C35.5228 0.0706442 35.2643 0 35.001 0C34.7377 0 34.4792 0.0706442 34.2525 0.204566C25.3045 5.48696 16.1403 9.37373 6.2357 12.0875C5.92442 12.1727 5.64978 12.3579 5.45404 12.6145C5.2583 12.8711 5.1523 13.1849 5.15234 13.5077V28.553C5.15234 44.0464 12.2998 54.3019 18.296 60.1768C24.7513 66.5021 32.2709 70 35.001 70C37.7309 70 45.2504 66.5021 51.7057 60.1768C57.7017 54.302 64.8488 44.0465 64.8488 28.553V13.5075C64.8488 12.8442 64.4053 12.2626 63.7655 12.0875ZM61.9039 28.5529C61.9039 43.0236 55.2374 52.5932 49.6445 58.0731C43.2965 64.2931 36.5094 67.0548 35.001 67.0548C33.4926 67.0548 26.7051 64.2931 20.3569 58.0731C14.7642 52.593 8.0974 43.0236 8.0974 28.5529V14.6254C17.569 11.9361 26.3898 8.18305 35.0013 3.17874C43.3977 8.05029 52.6586 11.99 61.9039 14.6248V28.5529Z" fill="white"/>
<path d="M21.9507 14.4607C21.6527 13.7039 20.7978 13.3322 20.0409 13.6304C17.4004 14.6704 14.7238 15.6162 12.0162 16.4661C11.717 16.5599 11.4557 16.7468 11.2701 16.9995C11.0845 17.2521 10.9844 17.5575 10.9844 17.871V23.5573C10.9844 24.3705 11.6438 25.0297 12.4568 25.0297C13.2699 25.0297 13.9293 24.3705 13.9293 23.5573V18.9471C16.3525 18.163 18.7507 17.3036 21.1204 16.3702C21.8772 16.0723 22.2489 15.2174 21.9507 14.4607ZM24.7479 14.74C24.9454 14.74 25.146 14.7002 25.3383 14.6163L25.3654 14.6045C26.1104 14.278 26.4459 13.4108 26.1194 12.6661C25.7927 11.9211 24.9205 11.5841 24.1764 11.9103L24.1526 11.9206C23.4072 12.2461 23.0706 13.1126 23.3961 13.8577C23.6377 14.4109 24.1798 14.74 24.7479 14.74ZM52.5462 47.4802C51.8657 47.0354 50.9533 47.2267 50.508 47.9074C49.2946 49.7646 47.8711 51.543 46.2764 53.1928C44.9648 54.5496 43.5529 55.8057 42.0528 56.9505C41.4062 57.4435 41.2818 58.3675 41.7747 59.0143C41.9121 59.1948 42.0894 59.341 42.2927 59.4416C42.496 59.5422 42.7198 59.5944 42.9466 59.5941C43.2581 59.5941 43.5718 59.4958 43.8384 59.2924C45.4563 58.0576 46.9789 56.7029 48.3935 55.2398C50.1177 53.4564 51.6585 51.5314 52.9734 49.5182C53.4185 48.8374 53.2269 47.9249 52.5462 47.4802ZM38.6332 59.2599L38.5487 59.3096C37.845 59.7172 37.6045 60.6179 38.0119 61.3216C38.1087 61.489 38.2375 61.6357 38.3911 61.7533C38.5446 61.8709 38.7198 61.957 38.9067 62.0069C39.0935 62.0567 39.2884 62.0692 39.4801 62.0436C39.6718 62.0181 39.8566 61.9551 40.0239 61.8581L40.1213 61.8008C40.8231 61.3898 41.0588 60.4879 40.6478 59.7861C40.2366 59.0846 39.3345 58.8493 38.6332 59.2599ZM24.9655 31.9949C24.0614 31.0906 22.8589 30.5929 21.5801 30.5929C20.3012 30.5929 19.0986 31.0907 18.1941 31.9949C16.3275 33.8619 16.3275 36.8998 18.1941 38.7667L26.8889 47.4612C27.7931 48.3651 28.9956 48.8629 30.2746 48.8629C31.5536 48.8629 32.756 48.3651 33.6604 47.4609L51.8113 29.3098C53.6778 27.4424 53.6778 24.4049 51.8111 22.5386C50.9068 21.6343 49.7044 21.1366 48.4252 21.1366C47.1462 21.1366 45.9438 21.6344 45.0394 22.5386L30.2744 37.3035L24.9655 31.9949ZM47.1219 24.6211C47.2927 24.4494 47.4958 24.3134 47.7196 24.2208C47.9433 24.1282 48.1832 24.0809 48.4254 24.0816C48.9181 24.0816 49.3807 24.2731 49.729 24.6211C50.4474 25.3395 50.4474 26.509 49.7287 27.2277L31.578 45.3785C31.2301 45.7265 30.767 45.918 30.2746 45.918C29.7821 45.918 29.319 45.7265 28.971 45.3785L20.2765 36.6843C19.5577 35.9656 19.5577 34.7961 20.2762 34.0776C20.6243 33.7297 21.0873 33.5379 21.5799 33.5379C22.0725 33.5379 22.5353 33.7294 22.8833 34.0774L29.2332 40.4274C29.5095 40.7034 29.8838 40.8586 30.2744 40.8586C30.665 40.8586 31.0394 40.7036 31.3154 40.4274L47.1219 24.6211Z" fill="white"/>
</g>
<defs>
<clipPath id="clip0_1797_19382">
<rect width="70" height="70" fill="white"/>
</clipPath>
</defs>
</svg>
