<svg width="71" height="70" viewBox="0 0 71 70" fill="none" xmlns="http://www.w3.org/2000/svg">
<path d="M14.8867 28.4375C13.8051 28.4375 12.7478 28.1168 11.8485 27.5159C10.9491 26.9149 10.2482 26.0608 9.83427 25.0616C9.42035 24.0623 9.31205 22.9627 9.52306 21.9019C9.73408 20.841 10.2549 19.8666 11.0197 19.1018C11.7846 18.3369 12.759 17.8161 13.8198 17.6051C14.8807 17.3941 15.9802 17.5024 16.9795 17.9163C17.9788 18.3302 18.8329 19.0311 19.4338 19.9305C20.0347 20.8298 20.3555 21.8871 20.3555 22.9688C20.3537 24.4186 19.777 25.8086 18.7518 26.8338C17.7266 27.859 16.3366 28.4358 14.8867 28.4375ZM14.8867 19.6875C14.2378 19.6875 13.6034 19.8799 13.0638 20.2405C12.5242 20.601 12.1036 21.1135 11.8553 21.7131C11.6069 22.3126 11.5419 22.9724 11.6685 23.6089C11.7951 24.2454 12.1076 24.8301 12.5665 25.2889C13.0254 25.7478 13.6101 26.0603 14.2466 26.187C14.8831 26.3136 15.5428 26.2486 16.1424 26.0002C16.742 25.7519 17.2544 25.3313 17.615 24.7917C17.9755 24.2521 18.168 23.6177 18.168 22.9688C18.168 22.0985 17.8223 21.2639 17.2069 20.6486C16.5916 20.0332 15.757 19.6875 14.8867 19.6875ZM11.6055 51.4063H2.85548C2.5654 51.4063 2.2872 51.291 2.08208 51.0859C1.87697 50.8808 1.76173 50.6026 1.76173 50.3125C1.7585 47.283 2.33661 44.2811 3.4647 41.4695L7.03798 32.5347C7.51608 31.3399 8.39738 30.3501 9.52897 29.7372C10.6606 29.1242 11.971 28.9268 13.233 29.1791C13.9686 29.3273 14.6664 29.6237 15.2838 30.0504C15.9011 30.4771 16.4251 31.025 16.8238 31.6608L21.0117 38.3644L26.1524 39.0983C27.0137 39.2202 27.7967 39.6642 28.3435 40.3407C28.8904 41.0173 29.1603 41.8761 29.0988 42.7438C29.0373 43.6115 28.649 44.4237 28.0123 45.0164C27.3756 45.6091 26.5377 45.9383 25.6678 45.9375H17.0742C16.871 45.9376 16.6717 45.8811 16.4988 45.7742C16.3259 45.6674 16.1862 45.5145 16.0953 45.3327L14.2819 41.7058L12.6806 50.5083C12.6348 50.7601 12.5021 50.9879 12.3057 51.152C12.1092 51.3161 11.8614 51.406 11.6055 51.4063ZM3.97658 49.2188H10.6922L12.7178 38.0855C12.759 37.8597 12.8702 37.6527 13.0355 37.4936C13.2009 37.3345 13.4121 37.2315 13.6393 37.1991C13.8664 37.1667 14.098 37.2065 14.3013 37.313C14.5046 37.4195 14.6692 37.5872 14.7719 37.7923L17.7502 43.75H25.6678C25.9832 43.7494 26.2867 43.6295 26.5174 43.4144C26.7481 43.1993 26.8888 42.9049 26.9114 42.5903C26.934 42.2757 26.8367 41.9642 26.6391 41.7184C26.4415 41.4726 26.1582 41.3106 25.8461 41.265L20.2002 40.4578C20.0426 40.4352 19.8919 40.3785 19.7585 40.2916C19.6251 40.2047 19.5123 40.0897 19.428 39.9547L14.9688 32.8202C14.6436 32.3002 14.1808 31.8804 13.6317 31.6073C13.0825 31.3343 12.4685 31.2187 11.8577 31.2732C11.2468 31.3278 10.663 31.5505 10.171 31.9166C9.67898 32.2827 9.29795 32.7779 9.07017 33.3473L5.49579 42.2811C4.60853 44.4935 4.09513 46.838 3.97658 49.2188ZM56.4492 28.4375C55.3676 28.4375 54.3103 28.1168 53.411 27.5159C52.5116 26.9149 51.8107 26.0608 51.3968 25.0616C50.9828 24.0623 50.8745 22.9627 51.0856 21.9019C51.2966 20.841 51.8174 19.8666 52.5822 19.1018C53.3471 18.3369 54.3215 17.8161 55.3823 17.6051C56.4432 17.3941 57.5427 17.5024 58.542 17.9163C59.5413 18.3302 60.3954 19.0311 60.9963 19.9305C61.5972 20.8298 61.918 21.8871 61.918 22.9688C61.9162 24.4186 61.3395 25.8086 60.3143 26.8338C59.2891 27.859 57.8991 28.4358 56.4492 28.4375ZM56.4492 19.6875C55.8003 19.6875 55.1659 19.8799 54.6263 20.2405C54.0867 20.601 53.6661 21.1135 53.4178 21.7131C53.1694 22.3126 53.1044 22.9724 53.231 23.6089C53.3576 24.2454 53.6701 24.8301 54.129 25.2889C54.5879 25.7478 55.1726 26.0603 55.8091 26.187C56.4456 26.3136 57.1053 26.2486 57.7049 26.0002C58.3045 25.7519 58.8169 25.3313 59.1775 24.7917C59.538 24.2521 59.7305 23.6177 59.7305 22.9688C59.7305 22.0985 59.3848 21.2639 58.7694 20.6486C58.1541 20.0332 57.3195 19.6875 56.4492 19.6875ZM68.4805 51.4063H59.7305C59.4745 51.406 59.2267 51.3161 59.0303 51.152C58.8338 50.9879 58.7011 50.7601 58.6553 50.5083L57.0541 41.7058L55.2461 45.3327C55.1548 45.5153 55.0143 45.6688 54.8403 45.7757C54.6663 45.8826 54.4659 45.9386 54.2617 45.9375H45.6681C44.7979 45.9391 43.9595 45.6105 43.3222 45.0181C42.6848 44.4256 42.2959 43.6134 42.234 42.7454C42.1721 41.8774 42.4418 41.0183 42.9886 40.3414C43.5354 39.6645 44.3187 39.2202 45.1803 39.0983L50.3209 38.3644L54.5111 31.6608C54.9098 31.025 55.4338 30.4771 56.0511 30.0504C56.6685 29.6237 57.3662 29.3273 58.1019 29.1791C59.3639 28.9261 60.6746 29.1233 61.8064 29.7363C62.9381 30.3493 63.8193 31.3395 64.2969 32.5347L67.8702 41.4695C68.9986 44.281 69.5771 47.283 69.5742 50.3125C69.5742 50.6026 69.459 50.8808 69.2539 51.0859C69.0488 51.291 68.7706 51.4063 68.4805 51.4063ZM60.6438 49.2188H67.3594C67.2408 46.838 66.7274 44.4935 65.8402 42.2811L62.2658 33.3473C62.0382 32.7779 61.6573 32.2826 61.1654 31.9165C60.6735 31.5503 60.0897 31.3276 59.4789 31.273C58.8681 31.2184 58.2541 31.3341 57.705 31.6072C57.156 31.8803 56.6933 32.3001 56.3683 32.8202L51.908 39.9547C51.8236 40.0897 51.7108 40.2047 51.5775 40.2916C51.4441 40.3785 51.2934 40.4352 51.1358 40.4578L45.4899 41.265C45.1778 41.3106 44.8945 41.4726 44.6969 41.7184C44.4993 41.9642 44.402 42.2757 44.4246 42.5903C44.4471 42.9049 44.5879 43.1993 44.8186 43.4144C45.0492 43.6295 45.3527 43.7494 45.6681 43.75H53.5858L56.5641 37.7923C56.6668 37.5872 56.8314 37.4195 57.0347 37.313C57.2379 37.2065 57.4695 37.1667 57.6967 37.1991C57.9238 37.2315 58.135 37.3345 58.3004 37.4936C58.4658 37.6527 58.5769 37.8597 58.6181 38.0855L60.6438 49.2188Z" fill="white"/>
<path d="M49.4864 35.3981L48.0459 31.7188H23.29L22.2783 34.3044L20.2461 33.5081L21.5291 30.2269C21.6089 30.0227 21.7482 29.8471 21.929 29.7231C22.1098 29.5991 22.3237 29.5322 22.543 29.5313H48.793C49.0132 29.5311 49.2283 29.5974 49.4101 29.7216C49.592 29.8457 49.7322 30.0218 49.8123 30.2269L51.5241 34.6019L49.4864 35.3981ZM35.668 55.7812C33.928 55.7795 32.2598 55.0876 31.0295 53.8572C29.7992 52.6269 29.1072 50.9587 29.1055 49.2188V48.125C29.1055 46.3845 29.7969 44.7153 31.0276 43.4846C32.2583 42.2539 33.9275 41.5625 35.668 41.5625C37.4085 41.5625 39.0777 42.2539 40.3084 43.4846C41.5391 44.7153 42.2305 46.3845 42.2305 48.125V49.2188C42.2287 50.9587 41.5368 52.6269 40.3064 53.8572C39.0761 55.0876 37.4079 55.7795 35.668 55.7812ZM35.668 43.75C34.5076 43.75 33.3949 44.2109 32.5744 45.0314C31.7539 45.8519 31.293 46.9647 31.293 48.125V49.2188C31.293 50.3791 31.7539 51.4919 32.5744 52.3123C33.3949 53.1328 34.5076 53.5938 35.668 53.5938C36.8283 53.5938 37.9411 53.1328 38.7616 52.3123C39.582 51.4919 40.043 50.3791 40.043 49.2188V48.125C40.043 46.9647 39.582 45.8519 38.7616 45.0314C37.9411 44.2109 36.8283 43.75 35.668 43.75ZM47.6992 67.8125H45.5117V62.3438C45.5117 61.4735 45.166 60.6389 44.5507 60.0236C43.9353 59.4082 43.1007 59.0625 42.2305 59.0625H29.1055C28.2352 59.0625 27.4006 59.4082 26.7853 60.0236C26.1699 60.6389 25.8242 61.4735 25.8242 62.3438V67.8125H23.6367V62.3438C23.6385 60.8939 24.2152 59.5039 25.2404 58.4787C26.2656 57.4535 27.6556 56.8767 29.1055 56.875H42.2305C43.6803 56.8767 45.0703 57.4535 46.0955 58.4787C47.1208 59.5039 47.6975 60.8939 47.6992 62.3438V67.8125ZM58.6367 61.25H48.793V59.0625H57.543V55.9869L54.1939 47.4294L56.2316 46.6331L59.6561 55.3831C59.7055 55.51 59.7307 55.6451 59.7305 55.7812V60.1562C59.7305 60.4463 59.6152 60.7245 59.4101 60.9296C59.205 61.1348 58.9268 61.25 58.6367 61.25ZM22.543 61.25H12.6992C12.4091 61.25 12.1309 61.1348 11.9258 60.9296C11.7207 60.7245 11.6055 60.4463 11.6055 60.1562V55.7812C11.6053 55.6451 11.6305 55.51 11.6798 55.3831L15.1044 46.6331L17.1431 47.4294L13.793 55.9869V59.0625H22.543V61.25Z" fill="white"/>
<path d="M66.293 30.625H64.1055V3.28125H7.23047V30.625H5.04297V2.1875C5.04297 1.89742 5.1582 1.61922 5.36332 1.4141C5.56844 1.20898 5.84664 1.09375 6.13672 1.09375H65.1992C65.4893 1.09375 65.7675 1.20898 65.9726 1.4141C66.1777 1.61922 66.293 1.89742 66.293 2.1875V30.625Z" fill="white"/>
<path d="M24.4098 23.742L22.8633 22.1954L30.5195 14.5392C30.7246 14.3341 31.0028 14.2189 31.2928 14.2189C31.5828 14.2189 31.861 14.3341 32.0661 14.5392L37.8553 20.3284L51.3008 6.88293L52.8473 8.4295L38.6286 22.6482C38.4235 22.8533 38.1453 22.9685 37.8553 22.9685C37.5653 22.9685 37.2871 22.8533 37.082 22.6482L31.2928 16.859L24.4098 23.742Z" fill="white"/>
<path d="M53.168 14.2188H50.9805V8.75H45.5117V6.5625H52.0742C52.3643 6.5625 52.6425 6.67773 52.8476 6.88285C53.0527 7.08797 53.168 7.36617 53.168 7.65625V14.2188ZM12.6992 6.5625H25.8242V8.75H12.6992V6.5625ZM12.6992 10.9375H20.3555V13.125H12.6992V10.9375Z" fill="white"/>
</svg>
